<svg width="711" height="518" fill="none" xmlns="http://www.w3.org/2000/svg"><path d="M144.075 257.654c-5.361 1.308-10.722 2.617-16.135 3.771-7.234 1.539-14.493 2.463-21.599-.744a3.309 3.309 0 00-1.205-.282c-7.03-.359-12.236-3.797-16.34-9.337-3.182-4.31-7.979-3.463-12.468-3.284-.128 0-.256.436-.461.795.436 2.437 2.257 4.105 4.078 5.464 6.26 4.618 12.878 8.671 20.317 11.133 5.412 1.796 11.03 2.411 16.673 3.207 5.259.744 10.441.795 15.648.128 5.156-.667 6.541.436 6.541 5.566.026 12.647.026 25.267-.025 37.914 0 1.359-.283 2.745-.411 4.104-.308 3.155-.769 6.311-.898 9.466-.154 3.463-.128 6.951 0 10.414.103 3.386-.564 6.567-1.539 9.799-.821 2.72-.923 5.67-1.18 8.543-.128 1.513.231 3.052.154 4.566-.205 4.001-.744 8.003-.769 12.005-.026 4.976.256 9.953.513 14.929.308 5.797.487 11.62 1.154 17.392.462 4.027.924 7.952-.667 11.826-.308.744-.308 1.667-.205 2.462.539 4.438-1.847 7.337-5.079 9.799-.77.59-1.745 1.026-2.283 1.796-.744 1.052-1.616 2.309-1.642 3.514-.051 1.719 1.719 2.155 3.053 2.232 4.001.231 7.387 2.232 10.979 3.617 11.594 4.463 22.035 10.979 32.295 17.854 2.258 1.513 4.669 2.77 7.824 4.617 0-1.924.257-2.822-.051-3.412-1.231-2.334-2.694-4.515-3.95-6.823-1.027-1.924-2.078-3.899-2.771-5.951-.718-2.207-1.077-4.566-1.513-6.85-.385-2.026-.949-4.078-1.001-6.105-.205-7.875-3.001-15.57-1.795-23.548.051-.257-.077-.539-.129-.821-.307-3.309-.795-6.593-.872-9.902-.154-5.233-.051-10.466-.051-15.724v-20.265-2.258c0-.667-.026-1.334 0-2.001.026-.59.051-1.179.205-1.744.282-1.18.616-2.437 1.308-3.386 12.929-10.03 27.807-6.9 37.35-.436 9.183 5.823 15.878 16.674 17.417 28.294 1.462 11.082-1.898 21.753-9.491 30.013-5.233 5.695-12.775 8.055-19.675 6.438l-6.31 41.274c20.418 1.873 38.067-5.13 52.535-20.906 14.75-16.905 19.11-40.35 11.62-62.642-7.003-20.829-23.035-36.22-41.864-40.119-.667-.129-1.513-.36-2.539-.642-2.155-.564-5.156-1.385-8.799-1.872.256-.206.513-.385.744-.616a33.01 33.01 0 001.924-1.873 71.11 71.11 0 002.334-2.462c1.796-2.001 3.514-4.079 5.259-6.105 8.234-9.594 13.185-20.753 15.468-33.117 1.872-10.209 1.128-20.137-3.053-29.705-.821-1.898-1.744-3.848-3.078-5.361-5.669-6.464-11.826-12.236-21.291-12.082-6.31-2.36-12.313.59-18.341 1.436-4.643.667-9.081 3.258-13.467 5.285-6.516 3.027-12.929 6.336-19.393 9.491-.949.513-2.001.975-3.053 1.231zm23.702 69.183h.077c.231-8.721.539-17.417.719-26.139.102-4.976-.026-9.953.051-14.955.077-4.284.41-8.568.487-12.852.026-2.206-.154-4.412-.41-6.592-.487-4.156 1.36-7.696 5.105-9.568 4.104-2.053 7.926-1.539 10.927 1.821 2.873 3.206 4.464 6.926 5.541 11.287 1.411 5.746.667 11.594 2.104 17.238.128.513.128 1.129.025 1.642-1.513 8.285-2.462 16.725-4.745 24.779-1.334 4.746-3.181 9.312-5.926 13.391-.923 1.385-2.001 2.693-3.155 3.95-.975 1.052-1.975 2.052-3.104 2.976-.333.256-.641.513-.975.795-1.308 1.103-2.924 2.36-4.437 1.257-.334-.231-.59-.539-.847-.898-.539-.744-.923-1.667-1.206-2.591-.051-.205-.128-.436-.179-.641-.334-1.488-.052-3.232-.052-4.9zM346.267 382.323c-7.208-3.746-16.289-5.105-26.293-3.977-19.316 2.232-39.76 14.673-41.735 32.655-1.514 13.57 8.182 23.421 23.933 19.727l5.694-16.931c-7.952 2.386-13.185-.795-13.569-5.387-.847-9.927 11.979-20.752 25.446-22.394 8.414-1.077 15.443.283 20.753 3.309-4.387 5.746-8.876 12.544-13.57 20.445-9.851 16.212-22.882 33.886-36.503 32.963-3.258-.052-6.823-2.335-8.875-5.105l-12.057 12.569c2.129 4.72 10.312 7.978 17.572 7.876 10.235-.18 18.495-4.643 25.754-11.826 2.719 2.694 5.823 4.181 10.748 4.694 21.445 2.027 38.247-18.52 38.786-39.324.231-10.107-2.95-18.11-8.568-23.754 6.208-6.977 11.364-10.004 15.751-10.363l-2.796-8.876c-6.542 1.18-13.288 5.772-20.471 13.699zm-17.058 53.894c-2.488-.051-4.694-.975-5.541-3.078 3.643-5.207 7.131-11.005 10.671-17.059 4.925-8.362 9.312-15.109 13.262-20.495 3.258 4.36 4.925 9.799 4.618 15.827-1.257 16.34-13.237 25.113-23.01 24.805zM365.998 424.366c-.77 7.491 7.285 10.184 13.852 9.517 5.874-.59 11.313-3.514 16.007-7.798 2.719 3.848 8.054 5.669 13.236 5.105 7.952-.872 14.93-7.106 15.981-15.237 1.206-9.44-7.208-12.698-4.54-18.419l-9.081-3.873-4.232 8.003c-1.514 2.643-3.181 5.618-4.849 8.286-.41.693-.82 1.36-1.257 2.026h-.025c-6.439 9.671-13.647 12.57-17.726 12.826-1.898.103-4.386-.692-4.386-3.129 0-3.027 4.771-4.489 9.465-3.078l4.156-8.517c-2.129.052-4.156.103-6.131.308-1.667-.205-2.873-1.077-2.565-2.386.616-3.155 7.26-3.001 11.518-.538l6.284-9.03c-12.492-3.36-24.01 1.026-25.754 8.722-.462 2.026-.077 3.796.821 5.284-6.157 2.155-10.158 5.875-10.774 11.928zm37.99-8.08a61.622 61.622 0 002.848-4.489c.769-1.283 2.129-3.463 3.104-5.387 1.436 2.129 2.873 4.566 3.181 6.054.692 3.796-1.129 7.465-4.772 7.824-2.026.205-4.001-.719-5.207-2.694l.846-1.308zM452.599 384.657c3.565-3.848 4.386-8.85 1.59-10.774-2.642-2.154-7.567-.538-11.21 3.232-3.565 3.925-4.386 8.696-1.667 10.774 2.565 2.181 7.721.513 11.287-3.232zM427.199 414.927c-3.411 8.362-1.436 13.852 5.31 13.185 4.233-.411 9.363-3.335 14.699-9.363.59 4.694 3.54 7.644 8.927 7.131 4.617-.385 8.49-3.437 11.209-6.721-3.18 8.337-7.798 15.032-16.955 16.469-3.258.564-7.414-.77-10.082-2.925l-8.49 11.98c3.257 3.925 12.261 5.207 19.469 3.514 29.474-6.977 26.371-44.916 38.786-60.538l-12.492 1.257a38.251 38.251 0 00-1.822 3.899c-1.667-2.027-4.463-3.181-7.721-2.873-8.645 1.026-15.673 10.132-18.777 17.417-.282.667-.513 1.334-.744 1.976-3.412 4.566-7.773 9.209-9.722 8.849-1.591-.282-2.129-1.693 3.566-12.774l6.9-13.647-12.954 1.308-9.107 21.856zm38.94-15.879c2.796-2.616 5.823-2.488 5.823.488 0 3.026-2.95 9.85-5.823 12.543-2.95 2.719-5.9 2.642-6.054-.308-.231-3.693 3.027-10.081 6.054-12.723zM494.253 387.222L479.4 423.545l13.339-1.334 8.568-22.83c3.335-4.412 8.183-4.617 6.824-.154-1.437 4.772-2.797 8.388-2.95 11.595-.385 7.542 6.9 10.902 14.236 9.722l5.156-11.646c-3.873 1-9.003.436-5.9-7.208l1.822-4.13c3.104-6.747 1.667-11.826-2.719-12.441-2.129-.231-6.593.436-11.441 3.796l1.359-3.027-13.441 1.334zM258.745 351.206a.591.591 0 00-.077.283v1.051c0 .334.256.59.59.59h22.881a.58.58 0 00.59-.59v-1.051a.521.521 0 00-.076-.283c-1.694-3.257-2.36-5.463-2.36-7.9v-34.374h4.104l13.364 43.788a.602.602 0 00.565.436h19.983c.333 0 .59-.257.59-.59v-1.052a.694.694 0 00-.129-.385c-1.923-2.36-3.411-4.899-4.437-7.567l-13.724-36.759c7.747-4.233 15.904-15.443 15.904-30.577 0-18.11-11.21-30.295-27.858-30.295h-29.371a.58.58 0 00-.59.59v1.052c0 .102.025.205.077.282 1.693 3.078 2.488 5.566 2.488 7.875v87.55c0 2.36-.795 4.874-2.514 7.926zm21.573-87.396h2.437c9.158 0 13.775 4.797 13.775 14.237 0 9.337-6.002 14.391-11.671 14.391h-4.541V263.81zM358.324 244.88c-21.548 0-36.041 21.727-36.041 54.074 0 33.065 14.493 55.28 36.041 55.28 21.47 0 35.887-21.907 35.887-54.51 0-32.809-14.417-54.844-35.887-54.844zm0 91.782c-8.568 0-14.545-15.622-14.545-38.016 0-21.753 5.977-36.964 14.545-36.964 8.619 0 14.39 15.468 14.39 38.478 0 21.829-5.797 36.502-14.39 36.502zM398.137 268.198h.615a.516.516 0 00.334-.103l1.795-1.206c3.976-2.36 6.773-3.411 9.081-3.411h7.439v79.829c0 2.616-1.18 4.848-3.232 7.849a.565.565 0 00-.103.333v1.052c0 .334.257.59.59.59h24.524a.58.58 0 00.59-.59v-1.052a.515.515 0 00-.103-.333c-2.052-2.976-3.232-5.233-3.232-7.849v-79.804h7.413c2.309 0 5.105 1.052 9.055 3.386l1.822 1.206a.514.514 0 00.333.103h.616c.333 0 .59-.257.59-.59v-21.06a.58.58 0 00-.59-.59h-57.563a.58.58 0 00-.59.59v21.06a.62.62 0 00.616.59zM466.527 351.207a.58.58 0 00-.077.282v1.052c0 .334.256.59.59.59h24.087a.58.58 0 00.59-.59v-1.052a.52.52 0 00-.077-.282c-1.616-3.052-2.668-5.233-2.668-7.901v-39.375h17.418v39.375c0 2.745-1.334 5.516-2.642 7.876a.574.574 0 00-.077.282v1.051c0 .334.256.59.59.59h23.163a.58.58 0 00.59-.59v-1.051a.516.516 0 00-.102-.334c-1.668-2.411-2.463-4.745-2.463-7.08v-89.012c0-2.411 1.154-4.592 2.514-7.131a.52.52 0 00.077-.282v-1.052a.581.581 0 00-.59-.59h-23.164a.581.581 0 00-.59.59v1.052a.52.52 0 00.077.282c1.309 2.36 2.642 5.13 2.642 7.875v30.757h-17.417v-30.757c0-2.591 1.026-4.951 2.642-7.875a.59.59 0 00.077-.282v-1.052a.581.581 0 00-.59-.59H467.04a.58.58 0 00-.59.59v1.052c0 .102.025.205.077.282 1.308 2.36 2.642 5.13 2.642 7.875v87.55c0 2.745-1.334 5.515-2.642 7.875zM540.586 351.207a.585.585 0 00-.077.282v1.052c0 .333.257.59.59.59h48.764a.58.58 0 00.59-.59v-19.239a.58.58 0 00-.59-.59h-.615a.508.508 0 00-.282.077c-4.669 2.565-7.465 4.027-10.313 4.027h-16.519v-34.245h6.361c2.258 0 5.182.846 8.671 2.514a.93.93 0 00.256.051h1.206a.58.58 0 00.59-.59v-19.393a.581.581 0 00-.59-.59h-1.206c-.102 0-.179.026-.256.051-3.592 1.719-6.362 2.514-8.671 2.514h-6.361v-24.856h13.929c2.411 0 5.335 1 10.491 3.565.077.052.18.052.257.052h.615a.58.58 0 00.59-.59v-18.778a.58.58 0 00-.59-.59h-46.353a.581.581 0 00-.59.59v1.052c0 .103.026.205.077.282 1.693 3.079 2.489 5.567 2.489 7.875v87.55c.025 2.36-.77 4.874-2.463 7.927zM602.2 351.207a.585.585 0 00-.077.282v1.052c0 .333.257.59.59.59h22.882c.333 0 .59-.257.59-.59v-1.052a.518.518 0 00-.077-.282c-1.693-3.258-2.36-5.464-2.36-7.901v-34.374h4.104l13.365 43.788a.6.6 0 00.564.436h19.983a.58.58 0 00.59-.59v-1.051a.698.698 0 00-.128-.385c-1.924-2.36-3.412-4.9-4.438-7.567l-13.75-36.76c7.747-4.232 15.904-15.442 15.904-30.577 0-18.11-11.184-30.295-27.857-30.295h-29.372a.581.581 0 00-.59.59v1.052c0 .103.026.205.077.282 1.693 3.079 2.488 5.567 2.488 7.875v87.55c.026 2.36-.769 4.874-2.488 7.927zm21.573-87.396h2.437c9.158 0 13.775 4.797 13.775 14.237 0 9.337-6.002 14.39-11.671 14.39h-4.541v-28.627zM690.266 268.351c0-3.719 2.488-7.721 6.515-7.721 5.438 0 10.184 4.309 12.826 8.362.103.18.308.283.513.283h1.206c.154 0 .308-.077.436-.18.102-.128.179-.282.179-.436l-.615-20.906a.574.574 0 00-.257-.462c-1.077-.77-6.002-2.386-14.288-2.386-15.853 0-26.498 9.363-26.498 23.318 0 11.158 4.258 20.675 13.8 30.859 10.261 10.877 14.827 19.06 14.827 26.55 0 7.875-4.258 13.185-10.62 13.185-6.797 0-11.338-3.437-14.749-11.159a.58.58 0 00-.539-.359h-1.206c-.154 0-.308.077-.436.18-.128.102-.179.282-.179.436l.461 20.444c0 .129.052.257.154.385 2.155 2.54 8.055 5.515 17.572 5.515 17.033 0 28.473-11.748 28.473-29.217 0-13.724-6.438-26.652-20.906-41.915-4.617-4.951-6.669-9.492-6.669-14.776zM171.682 195.551h.129l25.549-3.899a.576.576 0 00.487-.564v-1.309a.687.687 0 00-.128-.384c-1.95-2.591-2.847-5.079-2.847-7.85l.025-57.563 35.656 62.18c.129.231.385.36.667.334l6.798-1.026a.577.577 0 00.488-.564l.076-104.66c0-2.694.847-5.618 2.591-8.978a.488.488 0 00.077-.257v-1.154c0-.18-.077-.36-.231-.488a.646.646 0 00-.513-.154l-25.549 3.9a.577.577 0 00-.487.564v1.154c0 .154.051.282.154.41 1.949 2.386 2.847 4.849 2.821 7.978l-.025 37.452-23.549-43.916a.637.637 0 00-.667-.333l-21.393 3.257a.577.577 0 00-.488.565V81.4c0 .103.026.23.103.334 1.539 2.513 2.719 4.694 2.719 8.08l-.051 94.655c0 3.156-1.668 6.567-2.925 8.85a.522.522 0 00-.077.283v1.308c0 .179.077.359.231.487.103.077.231.154.359.154zM255.493 182.776h.128l27.217-4.155c25.96-4.823 41.453-29.038 41.479-64.771.026-22.087-5.002-38.068-14.493-46.2-5.9-5.078-13.262-6.977-21.907-5.668l-32.527 4.95a.577.577 0 00-.487.565v1.154c0 .103.026.231.102.334 1.437 2.334 2.873 5.104 2.873 8.054l-.051 94.656c0 2.565-1.026 5.695-2.898 8.85a.51.51 0 00-.077.282v1.308c0 .18.077.359.23.488.129.077.257.153.411.153zm23.061-101.427l9.132-1.385c2.052-.308 3.95.256 5.592 1.667 5.207 4.463 8.08 17.058 8.055 35.451-.026 25.96-7.234 42.864-19.29 45.199l-3.566.538.077-81.47zM334.442 170.72h.128l53.433-8.157a.577.577 0 00.488-.565l.025-20.803a.633.633 0 00-.231-.488.622.622 0 00-.513-.154l-.667.103c-.077.026-.179.051-.23.103-5.156 3.565-8.209 5.617-11.364 6.105l-18.008 2.745.026-37.093 7.157-1.077c2.462-.385 5.669.051 9.491 1.257.102.025.179.025.282.025l1.334-.205a.576.576 0 00.487-.564l.026-20.958c0-.18-.077-.36-.231-.487a.62.62 0 00-.513-.154l-1.334.205c-.077 0-.154.051-.231.077-3.976 2.462-7.003 3.796-9.568 4.207l-6.9 1.052.025-26.935 15.443-2.36c2.642-.41 5.874.18 11.492 2.103.103.026.205.052.308.026l.667-.102a.577.577 0 00.487-.565l.026-20.316c0-.18-.077-.36-.231-.487a.647.647 0 00-.513-.154l-50.765 7.746a.577.577 0 00-.488.565v1.154c0 .103.026.231.103.334 1.847 3.026 2.719 5.592 2.719 8.08l-.051 94.656c0 2.513-.872 5.386-2.771 9.003a.5.5 0 00-.077.257v1.154c0 .18.077.359.231.488.052.128.18.179.308.179zM491.204 88.3c11.21 10.03 16.187 18.085 16.187 26.166 0 8.619-4.746 15.134-11.8 16.212-7.414 1.128-12.364-1.822-16.058-9.517a.654.654 0 00-.693-.359l-1.334.205a.576.576 0 00-.487.564l.487 22.035c0 .154.077.308.18.436 1.616 1.642 5.104 3.181 10.44 3.54 2.54.154 5.49.052 8.85-.461 18.546-2.822 31.013-17.367 31.039-36.17 0-14.852-7.054-27.78-22.907-41.89-5.002-4.514-7.234-9.054-7.234-14.775 0-4.104 2.796-8.952 7.311-9.645 5.925-.898 11.107 2.95 13.98 6.85.154.205.385.307.616.256l1.333-.205a.577.577 0 00.488-.565l-.642-22.496a.598.598 0 00-.333-.54c-1.513-.846-7.388-1.461-15.673-.204-17.264 2.616-28.859 14.467-28.859 29.448-.025 12.082 4.643 21.676 15.109 31.116zM567.858 135.577c2.206.128 4.489.026 6.798-.308 23.42-3.565 39.145-29.602 39.17-64.77.026-21.446-5.669-38.145-15.955-46.995-6.439-5.515-14.519-7.721-23.395-6.387-23.497 3.59-39.324 29.422-39.35 64.283-.026 21.574 5.746 38.427 16.212 47.405 4.771 4.104 10.389 6.387 16.52 6.772zm6.875-100.376a9.178 9.178 0 011.667-.077c1.667.103 3.258.795 4.694 2.027 5.823 5.002 9.286 18.88 9.286 37.17-.025 23.702-6.438 40.606-15.981 42.068-2.283.36-4.463-.307-6.413-2-5.9-5.079-9.414-18.752-9.414-36.606.026-23.625 6.669-41.145 16.161-42.582zM625.62 126.342h.129l25.549-3.899a.576.576 0 00.487-.564v-1.309a.687.687 0 00-.128-.384c-1.95-2.591-2.847-5.079-2.847-7.85l.025-57.563 35.656 62.18c.129.231.385.36.667.334l6.798-1.026a.577.577 0 00.488-.564l.076-104.66c0-2.694.847-5.618 2.591-8.978a.489.489 0 00.077-.257V.648c0-.18-.077-.36-.231-.488a.645.645 0 00-.513-.154l-25.549 3.9a.577.577 0 00-.487.564v1.154c0 .154.051.282.154.41 1.949 2.386 2.847 4.849 2.821 7.978l-.025 37.452-23.549-43.89a.637.637 0 00-.667-.334l-21.393 3.258a.577.577 0 00-.488.564v1.155c0 .102.026.23.103.333 1.539 2.514 2.719 4.694 2.719 8.08l-.051 94.656c0 2.411-.924 5.233-2.925 8.85a.52.52 0 00-.077.282v1.308c0 .18.077.36.231.488.103.051.231.128.359.128zM309.1 472.72l-5.284-1.154c-.436-.103-.898.102-1.154.487l-18.701 30.988a1.097 1.097 0 00-.077.974.957.957 0 00.77.616l5.643 1.231c.436.103.898-.102 1.155-.487l4.925-8.029 8.952 1.924 1.18 9.337c.052.462.385.821.847.924l5.592 1.205c.077.026.154.026.231.026.256 0 .513-.103.718-.282.257-.231.385-.59.334-.924l-4.259-35.938a1.157 1.157 0 00-.872-.898zm-8.516 17.726l3.001-4.797.718 5.592-3.719-.795zM327.93 513.173l5.386.641c.565.103 1.129-.359 1.206-.949l2.283-18.956 8.645 20.803c.154.359.487.616.872.667l4.771.59h.128c.231 0 .462-.077.667-.231.231-.179.36-.436.411-.718l4.104-33.989a1.117 1.117 0 00-.231-.795 1.138 1.138 0 00-.718-.41l-5.387-.642c-.282-.051-.564.052-.795.231-.231.18-.359.436-.411.718l-2.129 17.675-8.183-19.47a1.038 1.038 0 00-.872-.641l-5.387-.642c-.538-.077-1.128.334-1.205.949l-4.105 33.989c-.025.282.052.565.231.795.154.206.411.334.719.385zM367.659 517.226l10.671.334h.462c3.642 0 6.823-1.385 9.44-4.156 2.693-2.822 4.181-7.413 4.412-13.595.154-6.208-1.026-10.877-3.54-13.852-2.54-3.027-5.772-4.618-9.62-4.746l-10.671-.333c-.231-.026-.564.102-.769.282-.206.205-.334.461-.334.744l-1.077 34.219a1.062 1.062 0 001.026 1.103zm7.08-17.982l.333-10.62 4.156.129c1.924.128 3.36 1.026 4.412 2.744 1.103 1.847 1.616 4.566 1.514 8.055-.129 3.284-.821 5.926-2.053 7.824-1.128 1.744-2.616 2.616-4.489 2.616l-4.181-.128.308-10.62zM448.599 515.2c4.181-.513 7.541-2.412 10.004-5.618 2.462-3.207 3.463-6.747 3.001-10.466-.41-3.386-1.975-6.31-4.668-8.645-2.668-2.308-6.644-3.617-11.877-3.873-1.899-.051-3.284-.385-4.156-.924-.744-.461-1.154-1-1.231-1.667-.154-1 .128-1.924.846-2.77.744-.898 1.745-1.386 3.027-1.565 2.309-.257 4.079.564 5.438 2.437.334.487 1.001.59 1.488.282l5.054-3.386c.231-.154.41-.411.461-.693.052-.282 0-.59-.179-.821-3.258-4.643-7.619-6.72-13.108-6.207-3.899.461-6.901 2.257-8.927 5.284-2.001 3.001-2.796 6.156-2.309 9.363.334 2.796 1.796 5.105 4.335 6.823 2.437 1.642 5.772 2.54 9.851 2.642 2.667.154 4.566.719 5.669 1.642 1.077.898 1.616 1.821 1.718 2.822.18 1.565-.23 2.975-1.282 4.309s-2.386 2.078-4.053 2.232c-2.924.359-5.387-1.077-7.542-4.412a1.09 1.09 0 00-.692-.462c-.283-.051-.59 0-.821.154l-5.721 3.822c-.487.334-.615.975-.307 1.488 3.591 5.541 8.285 8.337 13.98 8.337.641-.026 1.334-.051 2.001-.128zM478.451 466.384a1.034 1.034 0 00-.821-.128l-6.285 1.436a1.043 1.043 0 00-.795 1.283l5.823 25.498c.744 3.258 2.052 6.054 3.899 8.285 1.616 1.899 3.771 3.258 6.413 4.079 1.514.462 3.027.693 4.541.693 1.128 0 2.257-.129 3.386-.385 2.616-.59 4.976-1.847 7.003-3.72 2.026-1.872 3.36-4.053 3.95-6.438.718-2.822.718-5.9-.025-9.184l-5.823-25.498a1.032 1.032 0 00-1.283-.795l-6.285 1.437c-.282.051-.513.23-.667.487a1.019 1.019 0 00-.128.821l5.823 25.498c.539 2.334.385 4.258-.487 5.925-.821 1.591-2.13 2.566-4.002 3.002-1.873.41-3.463.102-4.9-.949-1.487-1.103-2.462-2.797-3.001-5.131l-5.823-25.498a1.082 1.082 0 00-.513-.718zM534.062 451.66c-2.155-.257-4.771.128-7.747 1.154l-12.723 4.361a1.15 1.15 0 00-.616.539 1.015 1.015 0 00-.051.821l13.185 38.555a1.08 1.08 0 001.026.718c.128 0 .231-.026.359-.052l6.105-2.077c.257-.103.487-.283.616-.539.128-.257.154-.539.051-.821l-5.387-15.725 6.285-2.154c2.873-.949 5.105-2.309 6.669-4.079 1.565-1.77 2.54-3.771 2.899-5.9.333-2.103.128-4.309-.616-6.49-.718-2.129-2.052-4.001-3.899-5.566-1.898-1.565-3.95-2.489-6.156-2.745zm1.898 14.339c-.385.847-1 1.411-1.873 1.693l-8.131 2.771-2.565-7.465 7.875-2.693c.898-.282 1.77-.206 2.719.205.898.385 1.513 1.154 1.924 2.334.461 1.257.461 2.283.051 3.155zM583.759 454.533c1.36-1.924 2.129-4.002 2.258-6.182.128-2.155-.308-4.31-1.283-6.387-.949-2.052-2.462-3.771-4.463-5.105-2.027-1.36-4.182-2.052-6.388-2.078-2.206 0-4.72.641-7.593 1.975l-12.184 5.669a1.114 1.114 0 00-.565.616c-.102.257-.077.564.026.821l17.187 36.964c.128.257.333.462.615.565a.915.915 0 00.36.077c.154 0 .307-.026.461-.103l5.849-2.719c.539-.257.77-.898.513-1.437l-7.003-15.083 6.028-2.796c2.745-1.283 4.823-2.873 6.182-4.797zm-6.464-5.695c-.308.873-.846 1.514-1.693 1.899l-7.798 3.617-3.335-7.157 7.542-3.515c.846-.359 1.744-.384 2.719-.102.923.282 1.642.975 2.18 2.129.565 1.206.693 2.206.385 3.129zM598.789 420.211c-.282-.051-.564-.026-.821.128l-5.541 3.309c-.513.308-.667.975-.385 1.488l20.881 34.989c.205.334.564.513.924.513.179 0 .384-.051.564-.153l21.727-12.98c.257-.154.411-.385.487-.667a1.034 1.034 0 00-.128-.821l-3.36-5.644c-.308-.513-.975-.667-1.488-.384l-15.263 9.106-16.956-28.422a1.107 1.107 0 00-.641-.462zM628.265 401.126l-6.208 4.591a1.09 1.09 0 00-.436 1.001c.051.385.308.718.667.872l24.908 9.953 10.338 14.006c.179.231.41.385.692.436h.154c.231 0 .462-.077.641-.205l5.182-3.822c.487-.36.59-1.027.231-1.514l-10.312-14.006-2.283-26.627c-.026-.384-.282-.718-.616-.897-.359-.154-.769-.129-1.077.102l-6.08 4.489a1.09 1.09 0 00-.436.949l1.283 16.802-15.571-6.259a1.077 1.077 0 00-1.077.129z" fill="#F0EEE3"/><path d="M44.471 151.148c4.13 2.026 7.927 4.72 11.851 7.182 1.411.898 2.822 1.873 4.028 3.002 2.385 2.257 2.437 4.104.205 6.49-5.823 6.259-9.21 13.98-12.724 21.573-2.36 5.079-4.437 10.286-6.284 15.545-2.13 6.054-4.079 12.159-5.746 18.367-1.437 5.387-1.693 11.184-3.694 16.314-2.565 6.516-3.925 13.006-3.797 19.957.077 3.617-.538 7.234-.538 10.877 0 3.899.564 7.824.436 11.723-.334 10.594 1.513 20.855 4.155 31.013 1.206 4.592 2.72 9.106 4.08 13.647 1 3.334 2 6.669 3.026 10.004.539 1.744 1.077 3.463 1.77 5.156 3.13 7.773 5.695 15.853 9.645 23.215 4.002 7.465 9.44 14.186 14.16 21.265 4.694 7.08 10.85 12.801 16.956 18.547a134.64 134.64 0 007.926 6.849c1.232 1 2.617 2.462 4.464 1.282 1.744-1.128 1.026-3.026 1.128-4.643 0-.128-.025-.282-.05-.41-.924-6.721-.77-13.365.948-19.957.59-2.309 1.257-4.643 1.386-6.977.333-6.234 3.001-11.569 5.925-16.828 2.18-3.925 1.667-5.079-2.206-7.285-3.155-1.796-6.618-3.463-9.004-6.028-6.541-7.055-13.134-14.16-17.161-23.139-3.078-6.9-7.105-13.441-9.44-20.547-1.795-5.464-3.976-10.876-4.54-16.853-.642-6.875-2.899-13.621-4.284-20.445a38.874 38.874 0 01-.744-7.9c.051-4.182.462-8.363.718-12.544-.641-11.569 1.54-22.856 3.848-34.04 1.719-8.465 4.207-16.802 6.644-25.088 1.642-5.618 3.668-11.158 5.797-16.622 2.052-5.31 5.207-6.388 10.261-3.951 1.513.719 3.052 1.462 4.694 1.796 9.338 1.821 18.572 1.873 27.525-2.103 4.309-1.924 7.234-.052 6.515 4.514-.923 6.028-.615 11.98-.461 18.008.256 9.825-.975 19.521-2.104 29.243-.59 5.156-1.205 10.261-3.052 15.135-.898 2.334-2.001 4.617-2.745 7.003-.282.923-.205 2.462.359 2.975.564.513 2.103.385 3.001.052 1.129-.436 2.104-1.36 3.078-2.155 7.388-6.08 15.392-11.21 24.036-15.237 4.438-2.053 9.107-3.566 13.647-5.387 4.335-1.745 4.874-4.361 1.539-7.516-.615-.565-1.436-.975-1.924-1.616-1.18-1.539-2.59-3.053-3.206-4.823-1.129-3.283-2.206-6.695-2.514-10.132-.539-5.926-.59-11.903-.667-17.854a4026.664 4026.664 0 01-.282-35.272c-.051-8.08 0-16.16 0-24.241 0-1.128 0-2.231-.051-3.36-.154-5.823-.334-11.646-.513-17.469 0-.282.025-.564.025-.847.257-6.13.795-12.287.667-18.418-.231-11.056 1.154-21.727 6.08-31.782.538-1.129 1.051-2.309 1.257-3.54.282-1.668-.539-2.72-2.335-2.642-.821.05-1.718.128-2.437.461-4.72 2.206-9.696 3.181-14.775 4.31-7.285 1.642-13.775.898-20.214-2.463-1.231-.641-2.539-1.334-3.873-1.539-4.772-.693-8.568-3.206-12.313-5.951-1.462-1.078-2.95-2.13-4.54-3.027-3.849-2.18-6.978-5.002-9.312-8.85-2.309-3.77-4.028-3.72-7.362-.77-2.822 2.489-5.72 4.9-8.825 7.03-3.488 2.41-3.745 3.924-.205 6.643 9.158 7.029 14.827 16.34 17.828 27.268 1.257 4.54 2.514 9.465 2.027 14.006-.873 7.85-1.206 15.776-3.36 23.574-2.002 7.311-4.439 14.391-7.158 21.419-.64 1.668-1.487 3.335-2.54 4.797-2.077 2.899-3.462 3.027-6.207.795-.436-.359-.82-.769-1.231-1.154-6.157-5.848-13.75-8.542-21.958-9.158-9.466-.692-18.572 1.283-27.422 4.772-3.797 1.513-7.516 2.975-10.517 5.823-1.309 1.257-2.77 2.385-4.08 3.617-3.385 3.206-6.31 6.695-7.336 11.466-.307 1.437-.846 3.053.462 3.822.975.539 2.642.257 3.848-.128 3.31-1.078 6.464-2.565 9.8-3.566 10.568-3.335 20.495-.975 29.986 3.72zm43.84-12.416c2.282-4.617 3.975-9.517 6.027-14.262 4.618-10.774 6.901-22.138 8.004-33.707.513-5.54.026-11.184-.051-16.776 0-.667-.283-1.36-.462-2.027-1.514-5.515-2.976-11.03-4.566-16.52-.513-1.744-.693-3.36.795-4.591 1.565-1.308 3.309-.718 4.669.308 4.899 3.745 10.594 5.566 16.391 7.182 3.72 1.026 5.31 3.31 5.336 7.542-.128.641-.334 1.719-.539 2.822-.179.949-.487 1.923-.513 2.873-.231 5.72-.513 11.415-.564 17.135-.103 10.748.025 21.471-.077 32.219-.026 3.488-.513 6.951-.718 10.44a55.87 55.87 0 000 5.874c.179 3.489.666 6.952.718 10.441.102 6.669-3.771 11.184-10.338 12.672-2.565.59-5.079.462-7.362-.539-4.361-1.872-8.722-3.796-12.8-6.208-5.49-3.206-6.721-9.286-3.95-14.878zM401.987 160.434h.128l25.062-3.823a.576.576 0 00.487-.564v-1.154a.675.675 0 00-.077-.308c-1.847-3.207-2.565-5.49-2.565-8.132l.026-30.243c1.436 2.001 2.899 4.027 4.412 5.977 2.847 3.693 5.977 7.182 9.029 10.722 1.463 1.693 2.976 3.36 4.541 4.925 2.796 2.822 5.874 5.413 8.465 8.388a124.597 124.597 0 0014.699 14.263c3.463 2.847 6.977 5.643 10.414 8.516 7.593 6.311 14.827 13.108 23.472 18.059.256.154.615.308.718.539.333.795.975 1.796.77 2.411-.257.744-1.232 1.308-2.027 1.719-.436.231-1.18 0-1.77-.051-3.873-.231-7.747-.462-11.62-.719a65.434 65.434 0 01-4.464-.436c-1.872-.282-3.719-.769-5.592-.949-3.488-.333-7.003-.205-10.44-.821-7.208-1.282-14.288-3.104-20.932-6.669-1.642-.872-3.514-1.334-5.156-1.95-1.206 1.616-.488 2.925-.051 4.233 1.641 4.771 5.617 7.67 9.26 10.697 4.694 3.899 10.44 5.669 16.084 7.541 2.898.949 5.874 1.232 8.824 1.719 3.873.641 7.696.59 11.518.333 3.232-.205 6.464-.769 9.696-.795 4.438-.025 8.516-1.154 12.698-2.18 3.95-.975 7.798-2.411 12.005-2.54 2.078-.077 3.873.231 5.669 1.462 3.386 2.309 7.003 4.105 11.082 4.772 1.256.205 2.488.795 3.719 1.231 4.669 1.59 9.337 3.258 14.032 4.771 2.206.718 4.463 1.155 6.72 1.693 3.797.898 7.593 2.181 11.416 2.591 8.439.898 16.879 1.591 25.292 1.103 1.463-.077 2.976-.256 4.438-.102 6.618.769 13.108.025 19.521-.847 8.055-1.103 15.981-2.924 23.934-4.566 5.335-1.103 10.055-3.591 14.775-6.028 1.975-1.001 3.796-2.283 5.515-3.643 2.334-1.821 2.437-4.284.052-6.233-3.54-2.899-7.08-5.849-11.57-7.234-1.821-.564-3.616-1.257-5.438-1.924-2.18-.795-4.309-1.744-6.541-2.386-2.591-.743-5.259-1.18-7.901-1.821-5.13-1.257-10.312-1.205-15.468-1.513-5.335-.334-10.671-.385-16.007-.59-.692-.026-1.385-.282-2.077-.308-1.976-.051-3.925-.128-5.875-.026-2.462.154-4.874.539-7.311.718-3.924.283-7.849.462-11.774.693-.795.051-1.59-.051-2.385.026-2.848.256-5.67.487-8.491.872-1.642.231-3.207.949-4.848.975-3.669.025-7.337-.026-10.749 1.334-.256.102-.59.102-.872.077-4.514-.283-8.542 1.77-13.108 1.693-3.848-.052-7.619 1.462-11.415 2.283-2.283.487-4.515.461-6.593-1.052-2.129-1.565-4.309-3.078-6.387-4.72-2.539-2.027-5.105-4.053-7.49-6.285-3.412-3.206-6.721-6.541-9.979-9.876-3.617-3.719-7.157-7.516-10.748-11.261-.77-.821-1.565-1.616-2.334-2.437-1.719-1.873-3.592-3.643-5.131-5.643-3.694-4.849-7.387-9.697-10.799-14.725-2.668-3.924-4.848-8.157-7.414-12.159-2.385-3.719-4.206-7.541-4.899-11.851-.334-2.078-1.462-2.591-3.489-2.206-.564.103-1.103.462-1.667.513-2.924.308-5.9 1.129-8.747.718-.103-.025-.231-.051-.334-.076a5.924 5.924 0 012.283-.437.631.631 0 00.385-.128c2.001-1.744 4.386-2.924 7.029-3.488a.931.931 0 00.23-.103c8.337-6.054 16.777-19.265 16.777-35.143 0-9.979-3.104-17.93-9.03-23.01-5.489-4.72-12.954-6.49-21.573-5.182l-32.193 4.9a.577.577 0 00-.487.564v1.154c0 .103.025.231.102.334 1.847 3.027 2.719 5.592 2.719 8.08l-.051 94.656c0 2.514-.872 5.387-2.77 9.004a.487.487 0 00-.077.256v1.155c0 .179.077.359.23.487.206.128.334.18.488.18zm131.44 33.244c1.206-.333 2.488-.513 3.745-.718 6.465-1.052 12.929-2.155 19.419-3.078 4.053-.59 8.183-.847 12.287-1.334 3.309-.41 6.567-1.334 9.902-1.36 8.003-.076 15.827-2.103 24.369-.564 2.95 0 6.311-.051 9.671.051 1.462.052 2.95.462 4.438.642 4.745.513 9.517.872 14.262 1.539 3.643.513 7.26 1.385 10.877 2.103.795.154 1.564.334 2.334.565 1.821.564 3.694 1.051 5.464 1.77 1.641.667 3.078 1.77 3.232 3.694.128 1.693-1.18 2.513-2.437 3.283-5.438 3.335-11.364 5.72-17.726 7.029-3.719.769-7.541 1.128-11.312 1.693-.872.128-1.744.282-2.591.538-3.591 1.129-7.259 1.462-11.081.565-.667-.154-1.386-.129-2.053-.052-3.309.385-6.592 1.103-9.953 1.155-3.745.051-7.516-.436-11.286-.719-.693-.051-1.411-.333-2.053-.23-2.462.384-4.899-.18-7.387-.437-3.13-.333-6.105-1.051-9.055-2.103-.18-.077-.385-.154-.59-.154-4.926-.128-9.594-1.719-14.289-3.155-3.36-1.026-6.643-2.309-9.953-3.463-1.616-.564-3.257-1-4.848-1.616-1.385-.539-2.898-.975-4.053-1.873-2.001-1.616-1.693-3.129.667-3.771zM425.048 60.314l2.847-.436c4.977-.77 8.773-.077 11.261 2.052 2.489 2.13 3.771 5.823 3.746 10.954 0 10.209-6.696 16.75-12.955 17.7l-4.899.743V60.314z" fill="#F0EEE3"/></svg>