<svg width="316" height="232" fill="none" xmlns="http://www.w3.org/2000/svg"><path d="M117.156 101.255c10.024 6.601 30.925 19.971 34.336 20.648 4.265.845 26.031-7.893 27.537-8.141 1.506-.248 40.081-7.111 45.197-13.624 3.624.091 11.242.006 12.716-1.062 1.843-1.334 30.371-3.45 42.496-1.835l-34.736 11.387c-1.981.498-5.109 2.8-1.774 8.027 4.169 6.533 3.324 10.797.394 11.794-2.343.799-22.122 5.531-31.718 7.798" stroke="#B48645" stroke-width="1.9" stroke-linecap="round"/><path d="M172.133 131.397l-31.94 34.647c-.949.5-2.413 1.635-.674 2.174 1.739.539 5.525-1.941 7.2-3.248l72.016-38.662M179.079 129.739l40.838-8.782M206.953 120.512c9.734-1.43 28.095-3.489 23.672-.286-4.423 3.203-7.202 4.279-8.039 4.417" stroke="#B48645" stroke-width="1.9" stroke-linecap="round"/><path d="M152.254 157.872l23.463-20.361-5.687-.096M119.495 143.668c-1.165-2.902-3.11-8.873-1.57-9.539 1.541-.666 14.759-4.319 21.175-6.062" stroke="#B48645" stroke-width="1.9" stroke-linecap="round"/><path d="M136.081 131.657l-11.369-3.285-18.359-20.699c-1.949-1.398-2.517-4.639 10.803-6.418" stroke="#B48645" stroke-width="1.9" stroke-linecap="round"/><path d="M109.448 107.68c2.121-.693 7.012-1.257 9.615 2.027 3.254 4.105 9.431 10.308 10.016 10.727.584.42 4.842 4.36-1.767 4.932M197.179 114.385c-.994-4.993-1.759-15.076 3.127-15.468M182.048 110.172c5.51-8.298 21.542-22.005 41.593-10.454M122.672 144.177c5.381.317 16.66.971 18.735 1.042" stroke="#B48645" stroke-width="1.9" stroke-linecap="round"/><path d="M129.097 151.885l15.055.617 5.7-6.094c-4.374-1.515-13.725-4.445-16.135-4.049M125.939 142.092c-1.894-1.063-5.262-3.775-3.584-6.113M237.667 112.88c.076 3.597.678 11.645 2.478 15.061M278.936 97.323c3.542-.41 11.161-1.114 13.301-.642M115.288 114.969l3.349-1.583M118.211 117.066l5.021-.826M121.795 123.18l7.366-2.244M242.211 99.756c-2.17-2.737-6.11-6.42-4.519.744 1.591 7.163 5.667 10.412 7.505 11.14M153.119 144.323l6.692-.07M162.315 146.935l-.413-2.51 4.518-.744c-.053-1.366.778-4.046 4.525-3.838" stroke="#B48645" stroke-width="1.9" stroke-linecap="round"/><path d="M111.215 142.696l-94.25 18.998M112.507 137.577l-39.34 4.851M113.771 144.897l-56.933 19.081" stroke="#B48645" stroke-width="1.9"/><path d="M125.972 70.607c4.375 2.881 13.498 8.717 14.987 9.012 1.861.37 11.362-3.445 12.019-3.553.657-.108 17.494-3.104 19.727-5.947 1.582.04 4.907.003 5.551-.463.804-.582 13.256-1.506 18.548-.801l-15.161 4.97c-.865.218-2.23 1.222-.774 3.504 1.819 2.851 1.45 4.712.172 5.148-1.023.348-9.656 2.414-13.845 3.403" stroke="#B48645" stroke-width="1.3" stroke-linecap="round"/><path d="M149.968 83.763l-13.941 15.123c-.414.218-1.053.714-.294.949.759.235 2.411-.847 3.143-1.418l31.433-16.875M153 83.04l17.825-3.834M165.166 79.012c4.248-.624 12.263-1.523 10.332-.125-1.93 1.398-3.143 1.868-3.509 1.928" stroke="#B48645" stroke-width="1.3" stroke-linecap="round"/><path d="M141.292 95.319l10.241-8.887-2.483-.042M126.993 89.12c-.509-1.267-1.358-3.874-.686-4.164.673-.29 6.442-1.885 9.243-2.646" stroke="#B48645" stroke-width="1.3" stroke-linecap="round"/><path d="M134.232 83.877l-4.962-1.434-8.014-9.035c-.85-.61-1.098-2.025 4.716-2.801" stroke="#B48645" stroke-width="1.3" stroke-linecap="round"/><path d="M122.608 73.411c.925-.302 3.06-.548 4.196.885 1.42 1.792 4.117 4.5 4.372 4.682.255.183 2.113 1.903-.771 2.153M160.9 76.338c-.434-2.18-.768-6.58 1.365-6.751M154.296 74.499c2.405-3.622 9.402-9.605 18.154-4.563M128.379 89.341c2.349.139 7.272.424 8.178.455" stroke="#B48645" stroke-width="1.3" stroke-linecap="round"/><path d="M131.184 92.706l6.571.27 2.488-2.661c-1.909-.661-5.991-1.94-7.042-1.767M129.805 88.431c-.826-.464-2.296-1.647-1.564-2.668M178.572 75.68c.033 1.57.296 5.084 1.082 6.575M196.585 68.89c1.546-.178 4.872-.486 5.806-.28M125.156 76.593l1.462-.69M126.433 77.508l2.191-.36M127.997 80.177l3.215-.98M180.555 69.953c-.947-1.195-2.666-2.802-1.972.324.695 3.127 2.473 4.545 3.276 4.863M141.669 89.405l2.921-.03M145.683 90.545l-.181-1.095 1.972-.325c-.023-.596.34-1.766 1.975-1.675" stroke="#B48645" stroke-width="1.3" stroke-linecap="round"/><path d="M123.379 88.695L82.24 96.987M123.943 86.46l-17.172 2.118M124.494 89.656l-24.85 8.328" stroke="#B48645" stroke-width="1.3"/><path d="M134.532 57.057c.925 1.517 1.902 3.026 3.149 4.305.321.33.484.22.512-.192.07-1.01-.031-2.024-.115-3.03-.054-.655.008-.723.559-.341 1.104.765 2.175 1.548 3.398 2.123.274.129 1.463.806 1.837.42.564-.581-.138-2.168-.352-2.687-.788-1.914-1.649-3.798-2.522-5.672M146.596 55.704c1.664-.377 1.962-2.806.973-4.013-.105-.127-.508.846-.573.966-.268.494-.754 1.151-.83 1.721-.031.23.361.6.476.724a6.759 6.759 0 003.299 1.954c.991.25 2.162.43 2.932-.353M162.095 48.559c-.104.445-.337 1.594.426 1.612.567.012 1.388-.273 1.624-.834.191-.456.156-.99.002-1.441-.017-.048-.23-.537-.219-.186.04 1.251 1.336 2.92 1.872 3.986.603 1.2 1.601 2.923.942 4.313-.926 1.952-2.52.965-4.183.742M169.634 45.973c-.899.709-1.186 1.494-.946 2.653.229 1.107 1.168 1.302 2.171 1.238 1.017-.065 2.738-.63 2.372-2.018-.484-1.843-3.274-2.514-4.855-2.98M173.898 42.167c1.538 2.101 3.276 4.183 4.553 6.466.114.204.161.355.131.573M174.304 46.13c1.785-.126 3.491-.42 5.254-.702M187.009 37.672c1.473 1.359 2.913 2.773 4.462 4.038" stroke="#000" stroke-width="1.24" stroke-linecap="round" stroke-linejoin="round"/><path d="M191.277 39.651c-.453 1.382-.684 2.771-.877 4.209-.054.403-.258.985-.018 1.3M193.728 36.54c.133.974.35 1.922.534 2.886.029.155.022.794.205.931.339.253 1.037-.414 1.151-.68.466-1.088-2.205-2.084-2.956-2.185M195.939 36.368c.295.283 3.251 3.87 3.664 2.732.446-1.227-1.025-2.926-1.635-3.867M202.943 37.776a23.994 23.994 0 00-1.569-3.39c-.195-.347.607-.392.835-.46M215.26 27.545c-.329.948-.752 1.855-1.141 2.748-.095.217.144.442.3.544.945.624 1.981.948 2.833 1.744.928.868 1.704 1.937 2.452 2.961.618.847-.319.614-.962.496a17.63 17.63 0 01-4.058-1.282c-.214-.096-.755-.409-.679-.187M219.928 30.048c.488.695 1.521 1.7 1.688 2.571M219 27c0 .154.014.367-.003.572M225.798 27.082c-.469 1.6-.784 3.242-1.273 4.833M222.633 28.534c1.865 1.273 3.68 2.525 5.814 3.282M163.356 47.32c-.652-1.123-.858.064-1.332.603" stroke="#000" stroke-width="1.24" stroke-linecap="round" stroke-linejoin="round"/><path d="M174 62.288c.744-2.306 1.776-4.73 2.099-7.138" stroke="#000" stroke-width=".754" stroke-linecap="round" stroke-linejoin="round"/></svg>