<svg xmlns="http://www.w3.org/2000/svg" viewBox="0 0 232.3 127.9" width="232" height="127"><path fill="#b48645" fill-rule="evenodd" d="M214.4 47c.1.7-.2.8-.4 1.1a8.6 8.6 0 01-2-.7c0-1.2 1.7-.7 2.4-.4m-4.6.6c-.6 0-1.4.1-1.7-.2-.1-.6.2-.8.4-1.1 1 0 1.9.4 1.3 1.3m-8.8-1.5c0 .3-.3.4-.3.8-.9.3-2.5.2-2.8-.6.3-1.3 2.2-.5 3-.2m-4.5 1.1c-1.2 0-3.4 1-4-.2-.2-1.5 4.1-1.5 4 .2M174.7 51c.2 1.4-1.2 1.3-1.9 1.9-.4 0-.4-.6-.7-.8a2 2 0 012.6-1.1m-34.5-36.2a24.9 24.9 0 00-3.8 8.5c.2 1.3.8 5-.2 6.7-2.2.2-1.3-2.7-2-4 .6-4.8 1.2-8.8 5.2-11.4l.8.2m-4.7 18.4a1.4 1.4 0 011-2.5c1.5.3.8 2.6-1 2.5m-2.9 29c-.6.8-1.8 0-2.4-.4-.2-2.4 2.5-.9 2.4.4m-5.6-3a1.4 1.4 0 01-2.5-1.3 1.7 1.7 0 012.4 1.3m-1.1-21.1c-2.1.1-1.9-3.5-.2-3.8.9.6.2 2.4.2 3.8M110 57.5c0 1.2-2.3 1.5-3 .7-.6-1.8 2.9-2 3-.7m-44 8.9h-1a2.2 2.2 0 010-1.9c1.4-.4 1.6 1.3 1 1.9m-.2-2.8c-1.6.5-1.5-1.6-1.1-2.5 1.6-.4 1.5 1.5 1.1 2.5m-.5-3.5c-1.4.2-1.4-3.1-.2-3.2a2.3 2.3 0 01.2 3.2m-.6-4.5c-1.2-.1-1.4-2-.6-2.7 1 .4 1.5 2 .6 2.7m-2.5 8.9c-.3-.9-1-2.6 0-3.2.8.5 1.9 3.2 0 3.2M60.7 75c-.7 1.5-3.4-.1-4.3-.6-.1-.7.3-.9.5-1.2 1 1 3 .7 3.8 1.7"/><path fill="#b48645" fill-rule="evenodd" d="M221.8 122c-.9.3-.9-.6-1.4-.2a70.5 70.5 0 01-7.4 3.2c-3.3 1.2-9 3-13.2 2.9a53.6 53.6 0 01-19-3.8c-.7 0-.7.6-1.4.6a3.4 3.4 0 01-.7-1.6c-3.5-.7-6.6-3.6-9.3-3.7l-1-1.4c-3.8 1-8.2 1-12.3 1.3-8.8.7-17.6 2.7-26.7 4.4-7.6 1.4-15 3-24.7 2.9-9-.2-18.5-.8-27.3-1.8-5-.5-10.1-.6-14.8-1.9a142.8 142.8 0 01-23.2-8.1 57.5 57.5 0 01-13.6-8.8c-.6.1-.9-.1-1.3-.2-4.8-4.2-9.2-8.8-14-12.9C7.7 88.3 2 82.2.4 76a10 10 0 01-.4-2.7c0-.7.7-1 1-1.7a31.5 31.5 0 012-5.1c2.6-1.4 4.3-3.6 7.5-4.4 1-1.5 2.4-2.4 3-4.3.7-1 1.7-1 2.8-1.5 1.2-.6 2.3-1.8 3.6-2.3.7-.3 1.8-.3 2.7-.6s1.4-.8 2-1c3.6-.9 7.8-.1 10.9-1.5 1.4.4 3 .4 4-.4 3.1.4 6.5 0 10.2.4 2 .2 4.2 1 6.3 1.1 4.1.2 7.6-2 11.1-2.8a14.2 14.2 0 002.9.2 4.4 4.4 0 011 2c-.5.4-1-.3-1.5-.3 1.8 4.5 2 11.7 2.4 16.4-.1.5-.6.7-.7 1.3.3.7 1.6.4 2.3.7 0-2 .1-4.3-.8-5.5.3-4.7-2.7-8.3-1.1-13 4.5-2.4 11-.5 16.8-.8a63 63 0 005.2-.6 22.9 22.9 0 003.4-.7 25.8 25.8 0 006.8-3.3c2.9 0 5.4-1 8.4-1.9s5.7-.4 7.4-2.2c.7.7 1-.2 2.3 0 .2-.8 0-1.6.7-2.1 1 0 1.2.7 2 1 1.2-.2 2.3 0 3-1.2.1-1.2-.5-2 .5-2.5 1.4-.3.5 1.7 1.5 2 1.8 0 .8-3 2.8-3-.3-.6-1.5-1.3-1.1-2 .6-1.6 2.6-.3 3 .5 1.8 0 3.8-.7 3.8-2 .6-.7-1.4-1-.6-2 2.1-.4 3.2 1.7 4.2 3 1-1.5-1.2-2.3.2-3.3-3-1.3-1.3-7.3 2.3-7-1.6-3.2-1.4-7-1.5-11.4-2.7 1.9-6.5 4-8.8 7.2-1 1.4-2 2.7-3 4.4a16.6 16.6 0 00-2.4 7c-.1 2.3 1 4.3 0 6.3-2-.3-2-3.2-2-4.6a22.6 22.6 0 01.6-4.4A16.2 16.2 0 01129 24c.6-1 .8-2.6 1.3-3.4l1.2-1.1c1-1.4 2.2-2.8 2.8-4.4a47 47 0 018.6-5.3 10.7 10.7 0 014.9-9.1c4.4-1.8 9.7.9 8.5 5.1-1.5-1-2.2-3-4.2-3.2-9.1-1-8.2 10.5-6.8 17.6.8-.2-.2-1.8.6-2.3-2.1-4.6-.4-12 3.8-14 1.5.1 3.7-.3 4.2.8 0 .8-.4 1-1.2 1 1.7.4 4 .5 3.8 3.2a18.8 18.8 0 002.7 1.1c0-1-2.1-.8-2.3-2-.1-1 .7-1 1.1-1.8s.1-1.1.6-1.5c1.6-1.4 5-.3 5.7-2.5.7 0 .7.6 1.3.6 4.6-.9 8.3-1.7 12.7-1 3.6.6 6.8 1 10.8 1.3a13.2 13.2 0 014.8 1.6c.7.3 1.7.2 2.5.5 2.7 1.1 5 3.4 7.2 4.4 1.8-.2 3.3 1 4.5 1.5 1 .4 2 .2 2.7.6 1.9 1 1.7 3.3 2.6 4.9.2.8-.5.8-.5 1.5-.4 4.4 1.5 9.4 1.5 14 0 3.8-2.3 7.6-1.7 12.2a4.2 4.2 0 002.4.5c3.2 2.8 4 11.7 6.1 16 3.6 6.3 4.5 16.2 6 23.5 0 .9-.7 0-1.3.2 1.6 1.2 3.1 2.5 4.8 3.6 2 4.4 1.6 9.3 1.5 14.6 0 1.4-.8 2.7-1 4 0 .6.3 1.3.2 1.9-.4 2.6-2.3 4.7-3.8 6.6a21.5 21.5 0 01-5.1 5.2c-.2.6-.3 1.3-.8 1.7m7.8-32.7c.4 4.3-.5 8.9 1.3 11-.3-3.4.4-8.1-1.3-11m-.2 12.6c-3.9-7.1-12.9-9.7-21.4-11-.6.1-.4 1-1.2.9a1.3 1.3 0 01-.5-1.3c-4.7-.5-10.4-2-15.4-.8-.3-.2-.3-.7-1-.6-4.5.6-9.7 0-14.4.2-3 .2-6 .5-8.3 1.7-.5.1-.4-.3-1-.1 0 .9-.4.8-.1 1.7 1.6-1 3.6 0 5.3-1 7.2.6 16.2-.4 24.6.2 3.6.2 8-.1 10.3 1 3.2-.2 6.5.5 9.5 1 3 .6 5.5 2.2 7.6 3.5.8.5 1.7.5 2.2 1 2.7 2.1 5.4 6.6 3 8.5-1.8 0-.5-3.1-1.9-3.6.2 2.8.4 5.6 2 7.2 1.7-2.3 1.6-6.2 2.2-9.5-.6.2-.5 1.1-1.5 1M228 89.2c0 2.2-1 7 .6 8.3a48.6 48.6 0 00-.6-8.3m-.6 22.5a.8.8 0 01-.5-.2c-.8-3.3-1.4-6.8-2.1-10.2.4-.4.5-1.4-.4-1.5a55 55 0 002.5 13.5 1.5 1.5 0 00.5-1.6m-1-22c0-1 .5-2.7-.5-3.2a19.9 19.9 0 00-.2 6.5c0 .8-.5 2.4.8 2.6v-5.9m-1.3 24.7c-.5-5.5-1.9-10.3-2.7-14.8 0-.4.6-1.2-.4-1.3a87 87 0 002.9 17.4c.2-.5 1-.9.2-1.3m-1.7-31.3c.5-.5 1.8-1.4 1-2.1a10 10 0 01-1 2m.6 5.2a20.5 20.5 0 01-.6 5.1 3.5 3.5 0 001.3.8c-.5-1.6.1-4.5-.7-5.9m-1.6-4c-.4 3-.9 5.8-.5 8.5 2-1.4 0-6.9 1.9-8-.5-.1-.8-.5-1.4-.5m-.9 22.2c-.4-3-.3-5.6-1.7-8 1.3 5.7 1.3 12.8 3.2 18v-.6c-.3-3-1.1-6.6-1.5-9.5m.8-30a6.4 6.4 0 00.5-1.9c-.7.2-1.3 1.4-.5 1.9m-.4 5c0 .4-.3.4-.4.7.1 0 1 .4 1 0-.4 0-.2-.7-.6-.6m-.6-14.6c.6 0 .5-.6.8-.8-.6 0-.9.2-.8.8m0 7.4l.8-1.5c-.7 0-1.6 1.1-.8 1.5m-1 6.6c.8 0 1-.5 1-1.1-.7 0-.6.7-1 1.1m-.3 31.5c.8 1.4.2 4 1.3 5.1-.2-1.3-.2-4.5-1.3-5m.3-40.3c.5.1.8-.8.4-1 0 .4-.5.4-.4 1m-.1 6.8c-.1-.5.3-.5.7-.6v-.7c-.6 0-1.5 1-.7 1.3m.5 6.5c-1.2 1.3-.9 4.3-1.5 6.2.8-.4.9.4 1.5.6-.1-3 .4-5 0-6.8m-.7-15c.1-.4.5-.7.3-1.4-.5 0-1 1.2-.3 1.4m-.6 6.8c.2-.7 1-.8 1-1.7-.9-1-1.9.9-1 1.7m-1.7 19.4c.7 4 1.1 9.9 1.9 13.6.1.6.1 1.3.7 1.5-1.1-5.1-.6-11-2.6-15.1m1.3-34c.2.4.2 1 .8 1 0-.5-.2-1-.8-1m.8 57c-.2-2.3-.9-4.2-1.2-6-.8-5.3-1.1-11.4-2.4-15.8-.2-.6.4-2.3-1-1.9-.2 4.2 1.5 9.3 1.5 13.7 1.6 3 .5 8.5 2.9 10.6 0-.2.2-.2.2-.5m-1-51.4c.7 0 .7-.8.8-1.4-.7 0-.8.6-.8 1.4m-.3 6.2c.6 0 .8-.6.9-1.1-.7 0-.8.5-1 1.1M217 91.1c2.6.5 1.4-4.2 2.3-6.1 0-.1 0-.4-.2-.4a60.9 60.9 0 00-2.1 6.5m1.7-11c-.5.3-.4.8.4.9 0-.5-.1-.8-.4-1m-.8-7.1c.8-.2 1-.7 1-1.6-.7.2-1 .6-1 1.6m.2-12.6c0 .6 0 1 .6 1 0-.4-.2-.8-.6-1m.2 3.8c-1.3 0-.5 2 0 2.5.5-.9.3-1.5 0-2.5m-.3 13.3c-.5.4-.8 1.2.2 1.3.3-.2.4-1.3-.2-1.3m-.6 5.3c-.4 2.5-2.4 5.7-2 8 1.5-2 1.8-5.2 3-7.6-.4 0-.5-.4-1-.3m-.2-11.8c.9 0 1-.8 1-1.9a1.4 1.4 0 00-1 1.9m.2-17.8l-.7.2c0 .9.1 1.8 1 2a5.1 5.1 0 00-.2-2.2m-.2 23.5c0-.3.7-1 .2-1.3-.3.3-1 1-.2 1.3m-.4-15.2c0 .5-.7.4-.6 1 .3.2.2 1 .8 1 .8-.3.2-1.7-.2-2m.6 59.8c-1.6-7.6-2.3-15.5-3.6-24.6-.2-.9 1-.7.2-1.2-.8.2-1 1.2-1 1.7-.2 1.9.5 3.9.6 5.3a50.7 50.7 0 001 6.3c.8 4.7.7 9.6 2.6 13l.2-.5m-1-55.3c-1 .7-.3 1.8 0 2.9 1.5-.3.4-2.3 0-2.9m-.2 8.7c.6 0 .7-.5.7-1.1-.6 0-1.2.6-.7 1.1m.4 4.6a.9.9 0 00-1 .4c.5 0 .4.7 1.1.5a1.2 1.2 0 00-.1-.9m-1-28.3c0 .5-.3.4-.2 1 .5 0 .6-.4 1.2-.2v-.6c-.6.2-.5-.3-1-.2m-.6 3.8c.3.8.4 1.7 1.2 1.9.1-.6-.2-1.8-1.2-1.9m.6 16.5c-.2.6-.6 1-.2 1.7 1-.1 1.3-1.5.2-1.7m.4-11.8a.8.8 0 00-.4 1.6c0-.7 1-1 .4-1.6M214.4 86c-.4 1.3-1.6 3.7-.8 4.4 1-2.7 2.4-5.8 2.5-8.7-1 .8-1.2 2.7-1.7 4.3m.7-22.6c0 .5-.6.4-.5 1a2.5 2.5 0 01.5 1.4c1.3-.4 1-1.8 0-2.3M214 46.3c-3.1.1-7-.7-10.2-.6.5.4 1.9 0 1.8 1-.7.6-2.6.7-3-.2-.2-.6 1.2-.9.2-1a35.9 35.9 0 00-13.4 1c0 .8 1.7 0 1.5 1-.3.7-1.3.7-2.1 1-.9 0-.4-1.5-1.3-1.6-.8.1-.8 1-1.3 1.1-.7-.2-1-1-1.8-.5a2.3 2.3 0 01-.3 1.9c5.6-1.4 12-.6 18.4-2.1 1.4 1 2.8.4 5.5.6a33.7 33.7 0 008 1.5c0-1.8-1-2.4-2-3m1 32.1c.2-.5 1.1-.3 1-1.3-.4-.3-1.8 1-1 1.3m-.6-10c-.7.8.3 1.3.4 2.3 1.3-.4.4-2-.4-2.3m-.4 8.1a1.4 1.4 0 001.3-1 1.4 1.4 0 00-1.3 1m1.3 45.6c-.8-6.2-2.8-12.5-3-18.6a51.2 51.2 0 00-1-8.5 94 94 0 003.9 27.5l.2-.4M214 56.4a1 1 0 01-.6.5 7.3 7.3 0 01.8 2.1c1.6-.2.7-2.2-.2-2.6m.2-3.5c-.3.4 0 .3 0 .8.4 0 .7 0 .8-.4-.4 0-.3-.5-.8-.4m-.4 8.8a1.2 1.2 0 000 1c1.1.1.8-1 0-1m.4 11.7c-.1.6-.9.5-1 1.2 0 .3.2.6.4.7.4-.4 1.6-1.3.6-1.9m.2 8.4c-.6 0-.2-1.2-1-1-1.5 2.7-1.4 6-2.6 8.9h1.1c.8-2.7 1.5-5.5 2.5-8m-1.2-16.3c-.7.7.2 1.2.2 2.2 1.2-.1.9-2.1-.2-2.2m-.3-14.6c-.2.7.7 1.3 1 .5-.5 0-.5-.6-1-.5m.3 19.7c-1.5 0-1.2 2.1-.3 2.7 1-.8.9-1.5.3-2.7m0-16.3c-.8 0-.8 1-.5 1.5 1 .1 1-1 .5-1.5m-.5 4.2c-1.4.1-.2 1.8.4 2.2 1-.7-.4-1.4-.4-2.2m.4 63.9c-1.3-8-3-16.5-3.3-25.6-.9-.8 0-2-1.7-2.1 1 8.8 1.9 19.6 4.2 28.8.8 0 1.5-.5.7-1.1m-.5-90.3l-.4.2c.1.4.1 1 .6 1.1.1-.5.3-1-.2-1.3m-.2 31.3c-.4.3-.2 1.4.6 1.1-.1-.4 0-1.1-.6-1.1m-.2-37a2 2 0 00.4 2.6 7.6 7.6 0 00-.4-2.6m0 49.3c0 .2-.2.3-.4.4l.2.7c.6.1.8-1 .2-1m-.8-23.6a1 1 0 00.6 1.3c.7-.2.3-1.6-.6-1.3m.8 15.4c-.8.3-1.7 2-.6 2.6.8-.5 1-1.5.6-2.6m-.6-11.4c-.4.2-.9 1.2 0 1.3a.8.8 0 000-1.3m-.7 4a.5.5 0 01-.4.5c0 .8.7 1 .8 2 1.3-.3.5-2.3-.4-2.5m.2 25.2c.4-1.6.3-3.3 1-4.6 0-.2-.2-.2-.3-.3h-.5c-1.1 2.8-1.9 6-2.9 8.9 1.9 0 2.3-2.4 2.7-4m0-71.2c-.4 1.5-1.1 2.4-.2 3.8 1.1-.4 1.3-3.2.2-3.8m.2 7c-.1.8 0 1.4.5 1.6 0-.7 0-1.3-.5-1.6m-.4 12.6a.9.9 0 01-.6.5c0 1.1.7 1.4.6 2.5 1.6-.3.6-2.3 0-3m0 38.9a2.7 2.7 0 00.5 2.4 1.7 1.7 0 00-.5-2.4m-.8-22.3a1.9 1.9 0 00.6 1.1 16 16 0 001-1.3c-.6 0-1.3-.1-1.6.2m1.2 14.6c-.9.1-1 1.1-1.6 1.5.2.6.4 1.1 1 1.1.4-1 1-1.4.6-2.6m-1-41.4c-.6.9.6 1.2.4 2.1 1.2-.2 0-1.7-.4-2m.4 5.6c-.4.3.3 1.7.6.8-.4 0-.2-.7-.6-.8m.6 12.5v-1c-.8-.1-.6 1 0 1m-1.3 37a2 2 0 001.3-1.3c-.6.3-1.2.6-1.3 1.3m0-24.8c0 .7.2 1.4.7 1.7a1 1 0 00-.7-1.7m-3.5 40.4c-.7 3.4.4 7.5.6 11.2a44.3 44.3 0 00.6 6.8l1.1 6.5c.3 2.2.5 4.5 2 5.5-1.6-9.5-3-21.8-4.3-30m3-76.1c.1.8.3 1.6 1 1.9a2.5 2.5 0 00-1-1.9m.2 39.6c0 .3-.2.3-.3.4-.2.8.5.6.3 1.4 1 0 1-1.8 0-1.8m-.3 4.4a2 2 0 00-.2 3c.3-.7 1.1-.8 1.3-1.7-.4-.4-.5-1.2-1.1-1.3m.1 8.7a.7.7 0 00.8.8c.6-.7-.3-1.6-.8-.8m.4 3.6a1.8 1.8 0 00-.7 2.9c1-.7 1.6-1.7.7-2.9m0-31.3c.1.7-1 1.2-.4 1.7 0-.3.5-.2.8-.2-.1-.5 0-1.2-.4-1.5m0-16.7c-.5 0-.4-.3-.7 0 0 .6.5.8.7 1.3.5-.4-.1-.6 0-1.3m-.4 4.6a1.3 1.3 0 000 2 1.3 1.3 0 000-2m-1.9-18.8c.4.6 1.2.7 1.2 1.7.7 0 .7-.8 1.1-1.1-.9 0-1.3-1.4-2.2-.6m1 39.4c0 .7 0 1.4.8 1.2.1-.7-.4-.9-.7-1.2m-.4 34.2c.8-2.3 1.5-4.8.6-6-2 2-2.1 5.8-2.9 9 1.4.4 2-1.8 2.3-3m.2-65.6c-.4.8.2 1.5.8 1.9a7 7 0 00-.8-2m.4 35c-1.2 0-.7 1.3-.4 1.9l.8-.2c0-.8-.4-1-.4-1.7m-.2 12.9c-.4.5-.2 1.6.4 1.7.2-.6-.2-1.1-.4-1.7m-.8-29.2c-.8 1 .4 2.4 1 3.2.4-1.1-.6-2.3-1-3.2m.8 33.2c-.7.3-1 1-1.5 1.5.4.2.2.9.7 1 .6-.9 1.5-1.3.8-2.5m-.2-12.5c-1.1.2-2.2 2-.8 2.7.7-.9 1.5-1.4.8-2.7M207 78.2c.6-.2.6.3 1.1.1.2 0 1-.6.6-.7-.2 1-1.7-.8-1.7.6m.6-62.8a1.4 1.4 0 001.1 1.3c-.2-.6-.3-1.3-1.1-1.3m.3 13c-.6.7 0 1.6.4 2.1.7-.6 0-1.3-.4-2m-.5-5.5a1.8 1.8 0 001.1 2c-.3-.8-.3-1.9-1.1-2m-.2 27.5c.5.7 1-.2 1.3-.8-.8 0-1.3 0-1.3.8m1.3 74.1c-2.3-9.6-2.7-20.1-4.1-30.3-1-.5-1.6-.2-2.9-.2-.5 5 1 10.6 1.7 16s1 11.1 2.9 15.5c-1.4-9.5-2.6-20-3.8-28-.2-1-1.4-2.7.3-3.3 1.3.5.7 2.4.8 3.4.4 6 2 10.8 2.5 17.5.8 2.3.8 6.2 1.5 8.5.1.5 0 1.5.7 1.4.3 0 .3-.3.4-.4m-1.7-71.2c0 .6.4.6.4 1.1.4 0 1-.1 1-.7-.3-.4-.9-.9-1.4-.4m.2 11.4c-.7.6.3 1.6.8 2 .4-.7-.3-1.7-.8-2m.6 5.3c-1 .1-2 1.8-.6 2.3.1-1.1 1.5-1.2.6-2.3m-1.2-52.7a2.5 2.5 0 001.2 1.9 1.5 1.5 0 00-1.2-2m.6 39.7c-.5.3-.5 1.3-1.3 1.3.2.5 0 1.5.7 1.4.4-.7 2-2 .6-2.7m-.6-21.4c0 .8 0 1.7.8 1.9.5-.7-.3-1.7-.8-2m.4 6c-1 .6-.4 1.7-1 2.8.8-.1.9.3 1.6.2-.1-1.1-.5-2-.6-3m-2.5-30.4c1.2.5 1.5 2 2.3 2.9.4-.6-.7-.9-.4-2 .4 0 .8 0 1-.3-.9-.2-2-1.1-2.8-.6m2.6 14.6c-1.1.3-.5 1-.4 1.9 1-.2.2-1 .4-1.9m-.6 5.3a1.4 1.4 0 00.8 1.1c-.2-.4 0-1.2-.8-1m-1-11.5a2.2 2.2 0 001.2 2.1c.5-1-.6-1.5-1.1-2m0 46.8c-.2.6-.8.8-1 1.5.2.7.8 1 .8 2 2-.4 1.4-2.7.1-3.5m1.2 8.3c-.9.2-1 1.2-1.2 2 .9 0 1-.8 1.4-1.2-.1-.3-.3-.4-.2-.8m-1.3 4.6c-.9 2.9-2 6-2.1 9.1 2.6 0 2-3.5 2.6-5.7.3-1.2 1-2 1-3v-.4zm.3-27.9c0 .6.2.8.8.8a.5.5 0 10-.8-.8m0 10.8c-.5.6-.1 1 .2 1.7 1.1 0 .7-1.6-.2-1.7m0-7.6c-.3.7-1.1 1-1.3 1.7a4.9 4.9 0 01.6 1c1-.3 2.2-2 .7-2.7m-.1-21.8c-.5.4 0 .7 0 1.3.9.1.4-1.1 0-1.3m-1-19.1c-.4.8.6 1.8 1.3 2.2a3 3 0 00-1.3-2.3m.5 24.3c-1 .7-.7 1.8-.2 2.7 1-.3 1.3-2.2.2-2.7m-.5-16c-.9 1 .2 2.5 1 3a2.7 2.7 0 00-1-3m.5 6.5a1 1 0 00.6 1.2c-.1-.5 0-1.2-.6-1.2m-.3 44c0 .7-.4.7-.6 1 0 .7.1 1.4.7 1.5.3-1 1.4-2-.1-2.5m-.6-23.1c.1.6.3 1 1 1.1-.1-.4.3-.4.2-1a1.6 1.6 0 00-1.2-.1m.8 3.6c-.6-.2-2 1-1.4 1.9.8-.2 1.8-1 1.4-2m-.4 7a1.1 1.1 0 00.2 1.9c.5-.5.5-1.6-.2-1.9m-1-43.6c-.2.6.9 1.4.8 2.4 1.2-.4 0-2.1-.7-2.4m1 48c-1.2 0-1.7 1.8-.7 2.3.6-.7 1.4-1.4.6-2.3m-.5-33.9c0 .8 0 1.4.6 1.6a1 1 0 00-.6-1.6m-.2 7.2a4 4 0 00.8-2c-.7 0-1.4 1.9-.8 2m0 31.5c-1.4.5-.6 2-.4 3 1.4-.5.7-1.8.4-3m0-27.3c-.2.9-.7 1.4-.8 2.3 1.3.2 1.4-1.8.8-2.3m-.4 9a2 2 0 00-1.4 1.3c.3.1.3.6.6 1 1-.5 1.6-1.5.7-2.4m.2 6.7c-1.3.2-.7 1.2-.3 2 1.1-.1.5-1.2.3-2m.4 68c-1.5-10.8-2.8-22.5-4.6-31.6-.8.2-.7 1.3-.7 1.7a35.7 35.7 0 00.4 7.2c.8 6 2.3 13.5 2.8 19.4l.2 1.1a4.7 4.7 0 001.7 2.7c0-.3.3-.3.2-.6M203 18.6c-.6 0-.7.5-.8 1 .5.6.5 1.8 1.4 2 .5-1.2-.6-1.7-.6-3m.2 43.3c-.8 0-1 .8-1.3 1.3.2.3.5.5.5 1 .8-.1 1-.8 1.4-1.3-.4-.2-.4-.7-.6-1m0 13.3c-.3.4 0 1.3.6 1.5 0-.7-.1-1.3-.6-1.5m-.2 4c-.9 2-1.3 4.5-2 6.6.1 1.3 0 1.8-1 2.1-1.3-2.5 2-6.3 1-9.3-2 2.2-.8 7.6-3.3 9-1-1.2.2-2.8.6-4.2a17.5 17.5 0 00.7-4.8 1.5 1.5 0 01-1.1-.2c-1 3.5-2.1 5.7-2.7 9.7 1.9-.3 4.9.7 6.8.2.4-3.7 1.4-5.6 1.8-9zm-.4-68.2c-.6.6.5 2 1 1.5-.4-.4-.4-1.3-1-1.5m-.7 15.6c-.3 1 .9 2 1.3 3 .7-1-.4-2.6-1.3-3m1.3 6.4c-1 0-1.4 2.2-.4 2.5.2-.9.8-1.6.4-2.5m-1.7-20a8.9 8.9 0 001.1 2.5c.7-1.2-.5-2-1.1-2.4m.5 53.7c-.7.5-.1 1.2 0 1.9 1-.2.8-1.7 0-2m.4-11.3c-.8.2-1.3 1.2-.4 1.7a1.3 1.3 0 00.4-1.7m-.8 16.3a2 2 0 001 2c-.2-.7-.3-1.7-1-2m0-50c0 .7.4 1.8.8 1.4-.4-.4-.3-1.2-.8-1.5m0 20.5c.7 0 .6-.7.8-1.1-.7 0-.6.7-.8 1.1m.2 17.3a1.9 1.9 0 00-1.3 1.3c.1.5.7.4.5 1.1.8-.1.9-.9 1.4-1.3a1.8 1.8 0 01-.6-1.1m-.8-9.9c0 .5-.1 1.3.4 1.3l.8-1.3zm-.3-20.3c.1 1-.5 1.1-.6 2 .6.3.3 1.6 1.3 1.6a2.5 2.5 0 00-.7-3.6m.5 7.4c-.7.8-1.3 3-.2 3.6.3-1.2 1.3-2.6.2-3.6m-.9-21.2c.3 1 .4 2.2 1.3 2.6 0-1.4-.4-2.3-1.3-2.6m.6 37.5a1.7 1.7 0 01-.8.8c0 .7.6.8.6 1.5 1.3 0 1-1.9.2-2.3m0 11.2a1 1 0 01-.6.6c.2.5.2 1.3 1 1.3a1.3 1.3 0 00-.4-1.9m-.6 9.1c-.7 1.3-1.4 2.6-1 4 1.8-.4 3-3 1-4m.6-49.5c-1.3.3-.4 1.1-.2 2 .6 0 .5-.6.7-.8a1 1 0 01-.5-1.2m-.2 45c-1.2.1-.9 2.3.3 2.1.5-.8-.2-1.3-.3-2m.5 57a2.5 2.5 0 01-.2-.5c-1-7.5-2.8-18.1-3.4-27.4 0-1.4 0-3-1-4.1-.8 6.5.5 11.7 1.2 17.6.5 4.2 1 8.4 1.7 12.1.2 1 .2 2.3 1.5 2.7l.2-.4m-1.9-67.5c.2.4.2 1 .8 1.1 0-.9 1-1 1-1.9-1-.5-1.1.5-1.8.8m.2-47.6c.3.6.4 1.3 1.2 1.5-.1-.8-.4-1.4-1.2-1.5m-.2 7c-.1.6.8 2.6 1.4 2.5-.7-.6-.4-2.2-1.4-2.5m.2 15c-1.6.7-1.2 3.5.2 4.1.9-1.7.6-2.5-.2-4.1m.4 18.2c-1.6-.1-1.1 1.6-.2 1.9.4-.6.8-1.3.2-2m-.6 11c0 .3-.2.4-.3.5.2.4.3 1 .7 1.3 1-.3.5-1.6-.4-1.7m0-35.5c-.6.6-.8 2.3.2 2.7.3-.6.9-2.5-.2-2.7m.4 15c-1.2.3-.5 2.3-.2 2.7-.2-.8.6-1.9.2-2.7M199 55a2.2 2.2 0 00-1 1.3c.4.3.4.8.8 1 .2-.7 1.2-.5 1.2-1.3-.6 0-.2-1-1-1m.2 11.2c-.6.3-.5 1.8.4 1.7a1 1 0 00-.4-1.7m-.3-53.7a1 1 0 001 1.7c-.1-.8-.2-1.6-1-1.7m-.2 7.6a2.2 2.2 0 001 2.9 3 3 0 00-1-2.9m.2 50.8c-.9.6-1.7 2.4-.2 2.9 0-1 .8-1 1-1.7-.5-.2-.1-1.2-.8-1.2m-.2-11.5c-1 0-.8 1.4-.3 1.9 1-.3.6-1.2.3-2m-1.3-52a3 3 0 001.3 2c.7-1.2-.6-1.6-1.3-2m.2 29.5l-.6 1.9c.2.7 1.1.7 1.2 1.7 1.6-.9-.2-2.6-.6-3.6m-.2 27.3c.2.6.4 1.3 1 1.5 1.2-.6-.2-2.9-1-1.5m.3-49.1a2 2 0 00.7 1.7c.4-.6-.3-1.3-.7-1.7m-.2 8.4c-.6 1.1-.6 2.2.6 2.8.6-1.1.5-2.2-.6-2.8m.4 6.6c-.3.9-1.6 2.4-.2 2.8.5-.8 1.4-2.2.2-2.8m-.2 20.1c.4.4 1 0 1-.6-.5.1-.9.2-1 .6m-1 61c-.2-4-1.4-8.3-1.7-12.4 0-1.8.4-3.6-.7-5 .6 11 1.2 22.7 4 32.1 0 .2.3.2.3 0-.7-4.8-1.5-10.2-1.8-14.6m1.3-58.4c-.9-.1-1 .6-1.3 1a3.6 3.6 0 00.7 1.2c.7-.6 1.2-1.1.6-2.2m-.4 15.5c-.6 1-1.9 1.7-1 3 1-.4 2.2-2.2 1-3m-1.1-59c-.4.9.5 2 1.3 2.3a4 4 0 00-1.3-2.3m.2 7.6a2.5 2.5 0 00.7 3.2c.4-1.2.3-2.5-.7-3.2m.1 40.4c0 .2-.2.3-.3.4-.2.7.4.7.3 1.3a.9.9 0 000-1.7m-.3 4.4a1.4 1.4 0 00-.2 1.5c.6 0 .8-.6 1.1-1-.4 0-.3-.6-1-.5m.2 12.3a1 1 0 00.6 1.7 1.6 1.6 0 00-.6-1.7m-.5-47.2L195 29c.5.3.7 1 1.2 1.3.7-1 1.5-3 0-3.6m0 38.9c-1 .7-1.5 2.4-.2 3.2.7-1 1.8-2.4.2-3.2m-.6-54a3.2 3.2 0 001.3 2.2c-.3-.9-.3-2-1.3-2.1m.4 28.6a2.1 2.1 0 001 2.9 4 4 0 00-1-2.9m.8 10.4a1.2 1.2 0 00-.8 1.7 1.2 1.2 0 00.8-1.7m-.8-16.3c-.3.9-.6 1.8.2 2.3a10.6 10.6 0 00.6-1.9c-.3 0-.5-.3-.8-.4m-.2-14.4c-.8.1-.7 1-1 1.7a8.3 8.3 0 001.4 1.7c.8-1.3-.2-2.2-.4-3.4m0 34.7c-.7.6-.5 1.2 0 2 1.3-.1.6-1.6 0-2m-3 32.9c.4-.1.4.2.8.1 1.4-2.8 2-6.4 3-9.6a21.8 21.8 0 00-3.8 9.5m3.8 37.5c-1-2.5-1.3-7.2-1.7-11-.3-2-.2-4-.4-5.9-.3-2.8-1-6.6-1.3-8.7s0-4.4-1.2-6c-.8 5.8.7 13 1.3 19.9.5 4.3 2 8.4 1.8 12-1.3-.6-1.8-2.4-2-3.7-1.2-8.4-1.9-16.7-2.6-25.6 0-.8.1-2.1-.8-2.6h-1c-.8 2.2-.6 4.6-.3 7.2a234.6 234.6 0 003.8 24.6c1.4 0 3.6 1 4.3 0zm-.8-66c-1 0-1.3 1.8-.4 2.1a1.5 1.5 0 00.4-2m-.8 12.2c.1.8.1 1.6 1 1.7a1.4 1.4 0 00-1-1.7m.4 4.4v.7c.3 0 .7.1.7-.1-.3-.1-.1-.8-.7-.6m-.2-62c-1.2.4-.5 2.6.4 2.8.8-1.2-.4-1.5-.4-2.8m-1.5 9.7c-.4 1.7-.9 3 .7 3.7a2.2 2.2 0 00-.7-3.8m.7 7.8a1.8 1.8 0 00.6 2.7 1.9 1.9 0 00-.6-2.7m.2 18.4c0 .5 0 1 .6 1-.1-.5.3-.4.2-1zM194 66c1-.2 1.4-.9 1.4-2-1 .2-1.2 1-1.4 2m.4-27.7c0 .7 0 1.3.6 1.5.4-.5.1-1.6-.6-1.5m.6 15c-.8-.2-.8.4-1 1 .2 0 .3.2.4.3.8 0 .8-.7.6-1.3m-1.8-45c-.3.7 1 2.3 1.6 2.1-.9-.3-.5-2-1.6-2m1 48.5c-.2.6-.9.7-1 1.5.4.2.3.8 1 .8.5-.5 1-2 0-2.3m-.1 16.2c-1 1-1.2 2.6-2.3 3.4 2.6.5 3.7-2 2.3-3.4m-.2-67.2c0 .6.4.8.8 1V6l-.8-.2M194 17c-.8.2-.7 1.4-1.2 2 .7.1.5 1 1.2 1.2a3.5 3.5 0 000-3.2m-.4 51.2a1.7 1.7 0 001 2c0-.9-.1-1.8-1-2m0-6.8l-1.1 1.5c.2.5.2 1.3 1 1.3.5-1 1.5-2 .1-2.8m.6 16.5h-.6c-2.1 2.6-3.2 6.1-4.4 9.7.3.3 1.2.1 1.7.1.8-3.4 2.9-6.6 3.3-9.8m-1.7-67.5c-.2.4-.6.7-.6 1.3a7.9 7.9 0 001.7 1.7c0-.6.5-.6.4-1.3-.9-.2-1-1.2-1.5-1.7m.3 24.2c-.4.8.2 1.4.4 2.1a.9.9 0 00.8-.7c-.8-.1-.3-1.4-1.2-1.4m.2 17.7c.4.3 1-.3 1-1-.7 0-1.3.5-1 1m.2-10.3c.7.2.6-.5.6-1.1-.7 0-.3.8-.6 1.1m-1.1 14c.3.2.2.8 1 .6-.3-.8.6-.6.5-1.3-.6-.8-1.4 0-1.5.7m.2 13.7c-.1.5-.8.5-.8 1.1.3.6.9 1 1 1.8 1.5-.5.6-2.3-.2-2.9m0-41.7c-.1.3-.4.4-.4 1a6 6 0 011.1 1.8 2.4 2.4 0 00-.7-2.8m.5 38.5c-.2.2-.6 1 0 1.1.2-.3.7-1 0-1.1m-.7-45c0 1-.8 2 .2 2.4 0-.9.7-1.2.7-2.2a1.3 1.3 0 00-1-.2m.3 37.5a9.6 9.6 0 00-1.4 2c.3.2.6.4.6.9 1-.4 2.1-2.2.8-2.9m-1.2-45.5c-1 1.2.2 2.8 1.2 3.6 1-1.7.1-2.8-1.2-3.6m.6 24.1c-.2.7-.6 1-.6 1.9.3.4.5.9 1.4.8.2-1.4.4-2-.8-2.7m.6 13c.4 0 0-.6.2-.8-.8-.5-.9 1.1-.2.9M192 53c-.2.7-1.4.9-1 1.7.5.4 2-1.1 1-1.7m-.4 11.4a1.3 1.3 0 00-.2 1.9 1.5 1.5 0 001-1.1c-.6.1-.3-.7-.7-.8m-.4-33.6c-.7.9 0 2.3.8 2.7a2.5 2.5 0 00-.8-2.7m-.4-26.2c-.6.8.5 2.4 1.2 2-1 0-.4-1.7-1.2-2m-1.1 2.1c-.1.4-.5.6-.4 1.2.7.6 1 1.7 1.9 2.2 1.5-1.4-1-2.2-1.5-3.4m1.5 50.5c-.4.7-1.6 1.3-1 2.5.9-.4 2.1-1.9 1-2.5m-.3 14.6c-.6 0-.8.6-1 1.1a3 3 0 01.8 2c1.4-.7.6-2 .2-3m-1-55a4 4 0 001 4.7 4.1 4.1 0 00-1-4.8m.6 52.6c.4.3 1-.3 1-1a1 1 0 00-1 1m-.4 8.7c-.9 3.3-4 6.7-3.4 9.9 2.2-2.9 3.4-6.6 4.8-10.3-.8-.2-.8.4-1.4.4m.6-53c.2.7-.3.8-.2 1.4.4 0 .3.5.8.4 0-.8 0-1.5-.6-1.7M189.5 52a1.3 1.3 0 00.8 1.5c0-.9 1-.8 1.1-1.7-.5-.7-1.4-.1-1.9.2m.8-9.9c0 1 .2 1.7 1 1.7 0-.9-.3-1.5-1-1.7m-.2-8a2.2 2.2 0 00.4 3.5c1-1 .1-2.5-.4-3.5m0 28c0 .4-.7.3-.6 1 .3.3.4 1 .8 1.2.1-.4.7-.4.7-1-.6-.1-.3-1.2-1-1.3m.9 63c-1-2-1.4-6.4-2-10-.7-5.3-1.5-10.9-1.8-15.8-.1-1.4.5-3.2-.8-4.1 1.1 9.7 1.4 19.9 3.2 28.2a2.5 2.5 0 001.4 2.1zm-1-69.6l-1.1 1.3a1.9 1.9 0 00.5 1.2c.3-.8 1-1.2 1.4-2-.4 0-.4-.4-.8-.5m-.2 11.2c0 .4-.4 1 0 1.3.6 0 1-.2 1-.7-.5-.1-.4-.7-1-.6m-1-57c-1 1.4.5 3 1.4 3.7.8-1.7-.4-2.8-1.4-3.6m1.4 18.8c-.7.2-1.2 1.6-.2 1.9.2-.5.6-1.4.1-2m-.9-7.1c-1.3.6-.5 2.7.6 3 .9-1-.5-1.9-.6-3m.6 49c-.1.6-.7.7-.6 1.4.5-.1 1.4-1 .6-1.3m-.6 3.8c-.3.7-.1 1.8 1 1.7-.2-.7-.2-1.6-1-1.7m.2-14a1.5 1.5 0 00-1 1.1c.3 0 .2.4.4.6a1 1 0 00.6-1.7m-.8-21.5c-.3.6.4 1.6 1 2 0-1.2-.6-1.5-1-2m-1-25.6a16 16 0 00-.6 2.5 19.8 19.8 0 001.5 2c1-1.8.8-3.5-1-4.5m.6 37.2c0 1.3 1 1 1.2 0zm.6 3.2a1.2 1.2 0 00-.6 2.3c.6-.7 1.7-1.5.6-2.3m0 10.5c-1.2.3-.6 1.4-.2 2 1.3-.1.3-1.3.2-2m-.2-32.1c-.2.8-.8 1.5-.4 2.3 1 0 1.4-2 .4-2.3m.2 36.4c-1 .1-1.3 1.6-.4 2 .6-.7 1-1 .4-2M187.4 25a3 3 0 001.2 2.8 2.3 2.3 0 00-1.2-2.8m0 53c-1.3 3.5-3.2 6.3-3.7 10.2 1.9-3.2 3.3-6.9 5-10.3-.6 0-.7-.3-1.3 0m-.1-73.2c.2.7.2 1.6.9 1.9a1.3 1.3 0 00-1-2m.2 37.3c0 .9 0 1.6.8 1.7a1.2 1.2 0 00-.8-1.7m0 16.3c-.5.6-.8 1.8.2 2 .1-.6.6-.8.8-1.3-.6 0-.3-.8-1-.7m-3 36.4c-1 .8-.7 2.4-.6 3.6.7 8 2 15.9 3 23.5.2 1.1 0 2.8 1.4 3.3l-3.8-30.4m1.5-20.5c.1-.5.6-.7.8-1.1-.7-.2-.3-1.3-1.2-1.2-.7.7.2 1 0 2.3-.5.2-.7.1-1.1-.2-.3.8-1 1.3-1.3 2.1 1.8-.6 3 .3 5.1.4v-.6c-.8-.6-2-.7-2.3-1.7m.4-56.4c-.9 1.4.7 2.8 1.3 3.8 1-1.9-.3-2.8-1.3-3.8m1.1 46c1.7-1.3-1.3-1.6 0 0m-1.8-57.9c-.2.4-.5.5-.4 1.1a13.2 13.2 0 012.2 2.7 2.9 2.9 0 00-1.8-3.8m.9 22a3 3 0 001 4c.4-1.7.3-3.2-1-4m.6 38.1c-.1.5-.6.6-.6 1.2.2.4.3 1 1 1 .3-1 .4-1.7-.4-2.2m.2-30c-.2.5-.4 1.5.3 1.6 0-.6.2-1.5-.3-1.6m.1 16c-.5-.3-1.1.5-1.3 1.1a.5.5 0 01.4.6c.7-.1 1.5-1 1-1.7m-.6 18.4c-.7.5-.1 1.5.5 1.7a1.4 1.4 0 00-.5-1.7m-.8-14.6c-.6 1.1-.8 1.4 0 2.5a1.3 1.3 0 000-2.5m-1.7-47.3a7.5 7.5 0 01-.6 2.3c.9 1 1.4 2.3 2.3 3.3 1.4-2.5 0-4.3-1.7-5.6m.8 12.6a3.7 3.7 0 00-.4 1.1c1 .2 1 1.7 1.9 2 .3-1.1-1-2.2-1.5-3.1m1.1 19.9c.6 0 .5-.7.6-1.2-.6 0-.5.7-.6 1.2m-.4 19.5c-.3.6-.2 1.3.6 1.3.4-.4 0-1.3-.6-1.3m-.7-28a2.3 2.3 0 001.1 2.6 2.2 2.2 0 00-1.1-2.7m1 31.7c-.2.6-.8.7-.6 1.6.7 0 1.4-1.3.6-1.6m-.6 4c-.2.5-.4 1.5.4 1.6.7-.2.2-1.5-.4-1.6m-.4-16.7c.4.4 1 0 1-.5-.5 0-1 0-1 .5m-.5 26.4c-1.7 3-3.8 7.1-3.8 10.6.6.1.6-.3 1.3-.1.4-3.8 2.6-6.7 4-10.5-.3-.3-.8.2-1.5 0m-1.4 27.1c-.1-2.7-.1-6.2-.5-8.9-.2-.7-.3-2-1.2-2.2-.5 2.6 0 5.1.2 8.3.4 4.8 1.3 12.5 2.3 18 .3 1.5.3 4 2 4.4-1-6.5-1.6-13.7-2.8-19.6m2.3-51a1.2 1.2 0 00-1 2 1.4 1.4 0 001-2m-2.3-41.1c0 .6-.3.9-.3 1.5.8.9 1.1 2.4 2.2 3 1-1.7-1.3-3.1-1.9-4.6m1.2 11.8c-.6.2-.4 1.3-.8 1.7.7.5.7 1.6 1.3 2.1.5-1.3 1-3-.5-3.8m-.2 11.2c-.3 1 .5 2.5 1.1 3.2a2.8 2.8 0 00-1.1-3.2m.2 22.6c0 .2-.2.3-.4.3.2 2.8 2.6.4.4-.3m.2 4c-.4.5-.6 1.4.2 1.7 0-.5.6-.5.7-1-.4-.2-.3-.9-1-.8m0 5.3a1.5 1.5 0 00.4-1.3.7.7 0 00-.4 1.3m-.4 2.3c-.3.4 0 1.4.6 1.3.4-.4.2-1.4-.6-1.3m-1-30.5c-.3 1.6 1 1.5 1 2.8 1.4-.8-.4-2.1-1-2.8m1 12.7c-.6.1-.8.7-1 1.3.3 0 .2.5.7.4 0-.6.8-.5.7-1.1a.5.5 0 01-.4-.6M182.3 16c-.7 2 1.2 2.7 1.6 4.2 1-1.5-.6-3.1-1.6-4.2m.6 12.2c-.3 1.2.5 2.3 1.2 3.2.8-1.1-.3-2.7-1.2-3.2m.4-24.3a1 1 0 001 1v-.8c-.6.1-.5-.3-1-.2m-.2 55.8a.5.5 0 01-.4.5 2.5 2.5 0 001 1.5l.6-.9c-.5-.3-.6-1-1.2-1.1m-.4-17c.1 1 .3 1.8 1.4 1.8 0-1.1-.8-1.2-1.4-1.7m.6 12.9c-.6.6-1 1.5.2 1.9 0-.5.6-.6.6-1.2-.5 0-.5-.5-.8-.7m0 8.1c-.4.4-.1 1.3 0 1.7 1 0 1-1.7 0-1.7m.4 3.6c-.7.2-1 1.2-.4 1.6.3-.5.7-.9.4-1.6m-.6 3.7c0 .5 0 1 .8.9-.1-.5-.3-.9-.8-1M182 3.9c-.7.4-.8 1.5-1 2.5 1 .6 1.2 2 2 2.6 1.7-2.3-1.7-2.8-1-5.1m-.2 16.9c-1 1 .3 3 1.2 3.8a2.8 2.8 0 00-1.2-3.8m.4 10.8a2.7 2.7 0 001.2 3 3.8 3.8 0 00-1.2-3m-1.7 70.2c-.3-2.7.1-5.4-1.3-7.2-.7 2 0 4 .2 6a118.6 118.6 0 002 16.2c.5 2 .5 4.3 1 5.9 0 0 .9 1.6 1 .7-1-7-2.1-14.7-2.9-21.6m2.7-52.6c-1.1.1-.5-1.2-.8-1.5-1 .6-2.5.5-3.4 1.2.7-.2.8.4 1 1-.5.5-1.8.3-2.5.5-.7 0-.3-1-1-1-4.3 1.7-8.5 2.9-9.8 7.8 1 0 .5-1.6 1.9-1.3l.2.4a21.6 21.6 0 01-1.6 3c-.5.5-.6-.8-1.1-.2a20.4 20.4 0 00-.6 2.2c.3.1 1-.2 1 .2a4.9 4.9 0 01-.6 3c-.5.2-.5-.2-1-.1.2.7-.3.9-.1 1.7.2 0 1 .1 1.1.7 0 .9.1 1.8-.6 2s-.3-.6-.9-.4c.3.7-.2 1.7 0 2.8.6.1.7-.4 1.1 0V73c-.3.3-1 .3-1.1.8a8.2 8.2 0 01.4 2.8c1.4-.2 3.7.6 3.8-1-.4-.3-.7 1-1.7.6-2-2.8.6-8-.4-11.2.2-.5.7-.7.7-1.3a23 23 0 013.3-9c-.7 0-.8.3-1.4 0a1.4 1.4 0 011.6-2c.5.6 0 1.5-.2 2 4.1-2 7.8-4.4 12.7-5.6m-1 23.1c-.1.7-.7 1-.8 1.7.5 0 .4.4.6.6a1.2 1.2 0 00.2-2.3m-.2-10.8c0 .4-.5.4-.6.8.5.3.4 1.1 1 1.3.1-.3.4-.5.5-1-.5-.1-.3-1-1-1.1m.3 4.1c-.4 0-.2.7-.6.6 0 .6.4.6.4 1.2.5-.1.6-.7 1-1-.7.1-.1-1-.8-.8m-1 11.8a4.4 4.4 0 01-1.5 2.1 43.8 43.8 0 01-1.3 4.4c-.5 1.3-.6 3.5-2.5 3.6-.5-3.8 3-7 2.7-10-2 2.8-2.9 6.7-4 10.4 1.7.6 2.5 0 4.5.2.4-4.4 2.5-7 3.8-10.5a4 4 0 00-1.7-.1m1.2-23.4a1.5 1.5 0 00-1 1.2.6.6 0 01.4.3c.8 0 1.2-1 .6-1.5m-1.8-45.7a18.4 18.4 0 00-.3 2c1 .3.8 1.8 1.9 2.2.8-2-.8-2.8-1.5-4.2m.5 27a7.3 7.3 0 001.2 2.8 2.3 2.3 0 00-1.2-2.8m.6 22.6c-.8.4-.4 1.2.4 1.5.6-.4.3-1.5-.4-1.5m.6 11.4c-.8-.2-.5 1.2.1.9a1.2 1.2 0 00-.2-1m-1.6-45c-.6 1.6 1 1.7.9 3.3 1.3-.7-.5-2.4-1-3.2m-1-11.8a3.2 3.2 0 001.6 3.2c.7-1.4-.4-2.7-1.7-3.2m1.6 26.6c-1.3.3 0 2 .6 2.3 0-1.1-1-1.4-.6-2.3m-.2 24c-1.5.3-.6 1.7.2 2.2 1-.6.2-1.4-.2-2.1m0 4.1c-.2.5-.1 1.1.6 1.2.4-.5-.2-1-.6-1.2m-1-15.5c-.2 1 .5 1.3.6 2 .6 0 .7-.6 1-1-.9 0-.5-1.3-1.5-1m1 20.4c.1-.5.6-.8.5-1.7-.8.2-1.5 1.3-.5 1.7m-.4 3.6c.3 0 1.1.3 1-.3-.2-.2-1-.2-1 .3m-.2-47.8a2.3 2.3 0 00.7 2.7c.3-.9.1-2.4-.7-2.7m.2 31.5a.9.9 0 00.5 1.5c.3-.6.3-1.5-.5-1.5m.7 63a174.2 174.2 0 01-3.6-27 3.5 3.5 0 01-.7-2 26.9 26.9 0 01-5.4.2 215 215 0 002.5 21.6c.2 1 1 2.8-.2 3.5-.5-.7-.6-1.6-1.1-2.1-.7-8.2-2.4-15.3-2.1-23-1 .3-1.5-.2-2.3.2 1.3 7.3 2.2 18.3 4.6 25.2.9.6 2.3.8 3.2 1.5-1.2-2.2-.7-4.9-1.2-7.8-.8-5.2-2.8-11-1.3-15 1.8 6.7 2.1 15.1 3.8 21.7.2.7-.3 2.3 1.2 2-.9-2.3-.4-4.7-.8-7.3-1-6.4-2.7-13.7-1.5-19.8A92.5 92.5 0 01178 106l1.7 16c.5.3 1 .5 1.5 1zm-1-79.5a23.6 23.6 0 010 2.7c.9-.4 1.1-2.4 0-2.7m.2 13c-.4.6-.6.7-.2 1.4 1 0 1-1.3.2-1.5M179 16.1c-.8 2 1 3 1.5 4.3.8-2-.6-3.4-1.5-4.3m.6 16.1a2.5 2.5 0 00.7 1.7c.4-.6.3-2-.7-1.7m.3 36.4c-.1.6-.6.9-.5 1.7.9 0 1.5-1.4.5-1.7m-1-65.2c.5.1.4 1 1 1 0-.6.6-.4.4-1-.3 0-1.2-.5-1.5 0m.4 61.3c-.4.7.4 1.5 1 1.9.3-.6-.5-1.5-1-2m-.4-10.7c0 .2-.3.3-.4.5.5.3.4 1 1 1.2 0-.4.5-.4.6-.8-.3-.3-.6-.8-1.2-1m.4 7.7c-.2.5-.3 1.3.6 1.1.2-.5.2-1-.6-1.1m-.7-40.6a2.4 2.4 0 001.3 2.4c0-1.2-.3-2.2-1.3-2.4m1 15.3c0 .9-.4 1.1-.2 2 .6-.2.7-1.7.2-2M179 58c0 .1 0 .3-.2.3a.7.7 0 00.8.8c.2-.6.1-1.1-.6-1.1m-.2-12.2c-.1.5-.6 1.5 0 1.5 0-.3.6 0 .8-.3 0-.6-.6-.8-.8-1.2M179 74c0 .5 0 1 .6 1 0-.6-.3-.8-.6-1m-2-69.6c-.4 2.4 1.3 2.7 2 4 .8-2.4-.6-3.2-2-4m1.5 61.8c-.6 0-.6.6-1.1.8.1.7.7 1 1 1.7 1.3-.4.7-1.7.1-2.5m-.5-42c-.8 1.5.3 2.5 1.1 3.3a3.3 3.3 0 00-1.1-3.2m.6 18.6c.6 0 .4-1.9.1-2.1.2.9-.3 1.2-.1 2m-1.4-33.5a2.6 2.6 0 001 2.8c.1-.4 0-1 .5-1.5a2.1 2.1 0 00-1.5-1.3m0 19a6.6 6.6 0 001.3 2.9c.5-1.2-.6-2.3-1.3-2.9m0 27.3c0 .2 0 .4-.2.4.3.6.5 1.2 1.1 1.3-.1-.5.4-.4.4-.7-.6-.1-.4-1.2-1.3-1m.6 4c-.5.5.2.8.2 1.3 1 .1.5-1.5-.2-1.3m.5 3.4c-1.6.5.8 1.5 0 0m-1.5-31.5c-.3 1.8 0 3.4 1.3 4a8.6 8.6 0 00-1.3-4m-.2 36.7c-.2.3 1 2.4 1.4 1.5-.7-.4-.5-1.5-1.4-1.5m.6-54.5a1.8 1.8 0 00.4 2c0-.7.2-1.7-.4-2m-.8 23.2a5.3 5.3 0 001 4.5c.4-1.5.3-4-1-4.5m.6 36.8c.2.5-.3.4-.2 1 .4-.1.8-.1.8-.6-.3 0-.3-.3-.6-.4m-.2-55.4a.7.7 0 00.6 1.2c0-.6-.2-1-.6-1.2m-.4 25c0 .9-.2 2 .6 2.1.7-.7 0-1.6-.6-2m.2 19c.7 0 .9-.4.8-1-.8 0-1 .3-.8 1m.4 2c-.2.5-.8.6-1 1.1a.5.5 0 01.4.6c.6 0 1.4-1.4.6-1.7m-1.1-6.8c.2.5.4 1.1 1.1 1.3.4-.7-.5-1.7-1.1-1.3m.5-35.9c-.2.4-.5 2.2.4 2.1 0-1 .5-1.7-.4-2m-.7 47.5a2.4 2.4 0 001.3 2c-.3-.8-.5-1.7-1.3-2M173.4 44c-.8 2.1 1.7 2.5 1.7 4.4.6-.1 1.2-.3 1.3-.8l-3-3.6m2.1 9.5c-.4.5.4 1.3 1 1.5 0-.8-.6-1-1-1.5m-.4 21c0-.4.4-.4.2-1-.7-.3-.7-1.4-1.7-1.5 0 1.7 1.5 3.3 2.9 4.2v-1c-.5-.3-1.3-.1-1.4-.7m-.2 3a67.5 67.5 0 00-3.6 10.6h1.4a85 85 0 013.8-10.6c-.3-.3-.8.1-1.6 0m1-14.8c-.1.6-1.2 1.1-.3 1.7.2-.5 1.3-1.3.3-1.7m-1 7.7c-.9.9.7 1.9 1.2 2.5.5-1-.5-2-1.2-2.5m-1.1-65.3c-.3 1.5 1.2 2.8 2.2 3.6-.1-1.7-.6-3.3-2.2-3.6m1.3 53.5c.2.6-.5.4-.4 1 .4.3.5.8 1 1.1a1.3 1.3 0 00-.5-2m.3 7.5c-.3.3 0 .8.4 1 .4-.4 0-.8-.4-1m-1.7-56.5c-.4 1.7 1.3 2.6 2 3.8.2-2.2-.5-3.4-2-3.8m-.2 3.8a5.3 5.3 0 002 3.4c.5-1.6-1.2-2.4-2-3.4m1.7 16c0 .7-.5 1.8.2 2.2a3.2 3.2 0 00-.2-2.3M174.7 3c0 .5.5.7.8.9-.2-.4 0-1.1-.8-1m-1.1 14.3c.2 1.8.6 3.3 1.7 4.2.2-2-.8-3-1.7-4.2m1 16.9c0 1.4-.3 2.2.5 3 .2-.8.7-3.1-.6-3m-.5 4.7a3.4 3.4 0 001.1 4c.1-1.8-.1-3.2-1.1-4m0 21.6c-.2.5-.7.7-.8 1.4.5.2.5 1 1 1 .2-.5.9-.5 1-1.2-.6-.2-.6-1-1.1-1.2m.9 7.2a.9.9 0 00-.6.2c0 .5.1 1 .8.8a1.2 1.2 0 00-.2-1m-1.7-45.9a5 5 0 001.5 2.7 5.3 5.3 0 00-1.5-2.7m-.6 52.2c.5.9 1.2 1.5 1.4 2.7a.8.8 0 00.7-.4c-1-.5-1-2-2-2.3m.9-17.3c-.7.5-.4 2 .5 2 .4-.8.5-1.8-.5-2M173 25c-.5.4.1 2-.4 2.4.9.1.8 1.1 1.4 1.5a4.3 4.3 0 00-1-4m.6 45.2c.6 0 .6-.6.6-1.1a.7.7 0 00-.6 1.1m-.2-3c.5 0 .5-.4.6-.8-.7-.2-.7.3-.6.8m-1.1-37.2c0 1.5-.2 3.2 1 3.6a3.1 3.1 0 00-1-3.6m.7 17.8c-.3.6 0 .6 0 1.3 1 .1.4-1.1 0-1.3m-.6 15a2.1 2.1 0 001.2 1.3 1.3 1.3 0 00-1.2-1.3m-.3-4c-.4.8-.5 1.5.3 1.9.1-.6.8-.7.8-1.3-.5-.1-.4-.8-1.1-.6m.3 13a.7.7 0 00.8-.8c-.6-.1-.9.1-.8.7m.2-4.2c0 .4-.5.4-.4 1 .8.3 1-.8.4-1M172 75c-.5.5.1.9 0 1.6a1.3 1.3 0 011.1 0A2.5 2.5 0 00172 75m-.2-11.3c-.8.8.3 1 .4 1.8.4 0 .6-.3.7-.5-.5-.4-.5-1.1-1.1-1.4m-.2-28.6a2.9 2.9 0 00.7 3 2.2 2.2 0 00-.7-3m1 42.9c-2.3 2.6-2.7 7.2-4 10.8.3.2.5-.1 1 .2.5-4.2 3.3-7.2 3-11M171.2 6c.3 1 0 2.7 1.1 3-.2-1.2.3-2.8-1-3m.9 5.5c-.9 0-.6 1 .1 1 .2-.6-.2-.5-.1-1m-.8 3c0 1-.3 1.5.6 1.9 0-.9.4-1.8-.6-2m-.8 25a4.2 4.2 0 001.4 3.7c.3-1.3-.2-3.2-1.4-3.6m.4-21.3c-.4.7.4 1.5 1 1.7 0-.8-.2-1.6-1-1.7m0-15.4c0 .7 0 1.1.8 1V3zm-.5 18.3c-.5 1-.4 4 1.1 3.8 0-1.8 0-2.7-1.1-3.8m-.4 22.2c-.3 2.3-.1 4 1.3 4.9 1-2-.5-3.6-1.3-5m.7 17.7c.4.2.4.7.8.8.5-.4-.6-1.1-.8-.8m-.1 4.2c0 .2-.3.3-.4.4 0 .7.8.5.7 1.3 1.5-.3.3-1.4-.3-1.7m1 4.8v-1c-.7 0-1 1 0 1m-.3 48c0-.2-.3-.4-.4-.6-2.2-6.9-2.6-16.2-4.1-23.5-1.4.2-.7 1.9-.6 2.7.8 7.8 3 13.7 3.4 21 .7.2.9.8 1.7.8zm-1.9-92c0 1.7.3 3 1.3 3.6 1-1.4-.3-2.6-1.3-3.6m1 32.4c.5 0 .8-.3.8-1-.8 0-.9.3-.8 1m-.4 17a1.7 1.7 0 00-.2 1c.6 0 1 0 1.2-.3-.8.2-.6-.6-1-.8m-.6-13.3c0 .7.6 1 1.1 1.1.6-.6-.5-1.6-1.1-1.1m1 8.7c-.3.3-.3 1 .2 1 .2-.3.3-1-.2-1m-1-3.8c-.4.7.3 1.6 1 1.7.5-.7-.2-1.6-1-1.7m-.8-59.4a3 3 0 001.8 2.9c0-1.5-1.1-2-1.7-2.9M169 30c.1.7-.3 1-.2 1.7.9.5.7 2 1.5 2.5.7-1.8-.8-3-1.3-4.2m.4 18.6c.3 1-.7 1.8-.2 2.3.4-.5 1.2-.6 1.3-1.4-.4-.2-.2-1.1-1.1-1m-.2-36.3c0 1 .2 1.5 1 1.7-.1-.6.2-.7.2-1.2-.6 0-.7-.4-1.2-.5m-.3-8.8c-.7 1.2.6 3 1.3 2.7-.7-.6-.3-2.4-1.3-2.7m0 11.8c0 1 .3 1.7 1 1.9.2-1-.5-1.5-1-1.9m0 62.6c.9 2.6-2 5-1.7 7.6 1.6-1.9 2.1-4.8 2.8-7.6zm0-14.2c.1.5.2 1 1 1V64c-.6.1-.4-.5-1-.4m-.2 5.3c-.1.7.7.5.5 1.2a.6.6 0 00.6-.4c-.5-.1-.5-.8-1.1-.8m-.4-34.7c-.8 1.9.4 3.2 1.1 4.6.3-1.1.2-3.9-1.1-4.6m.4-15.7c.1 1-.4 2.8.5 3 .1-1.3.5-2.5-.5-3m.2 56.1c.6.1.6-.4.5-1-.6 0-.6.4-.5 1m-1.4-35.4c-.5 2.4.6 3.6 1.4 5.3a5 5 0 00-1.4-5.3m.6 30.8a1.2 1.2 0 00-.2 1c.3 0 1 .6 1.1.1-.4-.2-.4-1-1-1.1m-.5-25.4c-1.5.5 0 2.2.8 2.6 0-1.1-.7-1.6-.8-2.6m.4 27c.1.6-.6 1.3.2 1.5.3-.4.2-1.4-.2-1.5M165.6 8c0 1.7 1.4 2.2 2.3 3-.2-1.5-1.3-2.2-2.3-3m.2 76.5c1.2-1.7 1.4-4.3 2.1-6.5-1.5 1.1-2.8 4.4-2 6.5m0-72.9a3.8 3.8 0 001.6 2.3c0-.3.3-.3.2-.6-1-.2-.8-1.6-1.9-1.7m.8 37a1.6 1.6 0 001 1.9 1.4 1.4 0 00-1-1.9M165.4 4c-.3 1.1 1 2.3 2 2.8 0-1.6-1.3-2-2-2.8m.6 11a3.9 3.9 0 001.3 4 4.1 4.1 0 00-1.3-4m-.4 5a2.6 2.6 0 001.5 3.2c.1-1 0-3.1-1.5-3.2m1.2 32.2c-.6-.3-.5 1.1-.2 1.1.2-.3.6-.7.2-1.1m-1.4-27.3c0 1.3.1 2.4 1.2 2.6a1.9 1.9 0 00-1.2-2.6m-.3 4.3c-.6 1.3.3 2.3.9 3 .3-1 .3-2.6-1-3m-1 73.3a23.2 23.2 0 001.8 8c-.3-3-.7-6-1.9-8m1.5-24.3c-1.7 1.3-2.1 3.9-3 6 .8.2 1.1-.1 1.7-.1.1-2.3 1.6-4 1.4-6m-.8-44.7c0 1.5-.5 3.4.8 4-.4-1.5.4-3.2-.8-4m.2 21c-.2 1.8-.6 2.5-.7 4.4a4.3 4.3 0 00.7-4.3m-.7-15.2a1.6 1.6 0 00.9 2c0-1-.2-1.7-1-2m-.1 52a12 12 0 001 6.3c0-1.7-.1-4.9-1-6.3M151.2 89c.6.1.3.7.2 1.1 1.3-.3 3-.3 3.6-1.3.4 0 .4.5.6.8 3.1-.8 7.7-.3 9.3-1.7-4.7 1.3-8.8-.3-13.7 1.1m11.2-77.4c-.3 1.4 1.2 3 2.3 3-.7-1.2-.3-2.9-2.3-3m.2 4c0 1.9.6 4.3 2 4.1a7.1 7.1 0 00-2-4.1m.7 27.9a3 3 0 001.2 2 1.7 1.7 0 00-1.2-2m.2 46.2a1 1 0 00.6 1.4c-.2-.8.4-1 .4-1.5-.5-.1-.4.3-1 .1m-1-68.6c-.1 1.8 1.2 2 1.6 3.2.6-1.5-.9-2.4-1.5-3.2m-.2-16.2c.1.9 1.2 2.4 1.7 1.7-.5-.6-.9-1.4-1.7-1.7m-.4 2.5v1.9c1 0 1.2.6 1.9.8 0-.8-1.5-1.7-1.9-2.7m.8 39c-.4 2.2-.9 4.5 1 4.6 0-2.2.5-3.7-1-4.5m-.6-21.8c-.5 1.9.8 2.6 1.5 3.8a4.4 4.4 0 00-1.5-3.8m0 67.1a31.7 31.7 0 001.7 9.7c-.2-3.8-1.2-6.7-1.7-9.7m.6 14a29.3 29.3 0 001 5.7 9.1 9.1 0 00-1-5.7M162 29c-.5 1.7 0 3.7 1.1 4.4.3-1.5 0-3.8-1.1-4.4m0 22.6c0 .7-.3.9-.4 1.5.7.3.9 1.2 1.7 1.3a2.6 2.6 0 00-1.3-2.8m-17.6 65.8c7.2-.4 12.2-1.7 19-2.4-6.6-.1-13.4 0-19 2.4m17.8-47.2c-.1 1-.8 1.7-.8 2.7a5.3 5.3 0 001.4 2.4c-.7-3.3 0-8 .2-11-.8 1.7-.5 3.8-.8 5.9m-.2 8.3c-.4 1.9-2.3 4.2-1.7 5.7 1.8-1 1.8-3.8 2.8-5.7zm-.6-44.2a5.8 5.8 0 001.6 3.8 4 4 0 00-1.6-3.8m-.2 20.2c-.8 1.7-.4 3.7 1.4 4.1.8-1.9-.2-3.2-1.4-4.1m.8 46.2c0 1.4.1 3.7 1 4.8a21.3 21.3 0 00-1-4.8m-1.1-62.6a5.4 5.4 0 001.5 3.5c-.5-1.3-.3-3-1.5-3.5m-.6 20.5a3.6 3.6 0 001.3 4.6c1-2-.1-3.4-1.3-4.6m.2-17c-1.1 1.6-.9 4.4.6 5.4a4.8 4.8 0 00-.6-5.4m.7 55.7c.5.2 0 1.3.6 1.4-.2-.4 0-1.8-.6-1.4m.4 11c0-2.3-1-5.9-1.3-8.9-.3-2.5-.3-5.2-1.5-7.2a127.1 127.1 0 002.8 17zm-.5-32.8c0 .5-.3 1.4.1 1.5.2-.5.4-1.2-.1-1.5m-1.4-63c-.1 1.8.5 2.7 1.5 3.2.5-2-.5-2.5-1.5-3.2m.2 4.7c.2 1.2.3 2.4 1.3 2.7.2-1.4-.6-2.8-1.3-2.7m1 76.9a4 4 0 00.3 1.7 2.2 2.2 0 00-.3-1.7m-1-84a1.7 1.7 0 001 1.3c.6-.7-.3-1.3-1-1.3m1 11.7c-1 0-.5 1.4-.6 2.1.9 0 1-1.5.6-2m-1.6 41a5 5 0 001.7 4.7 5.5 5.5 0 00-1.7-4.8m1.2 29.6c0 .6 0 1.2.5 1.4 0-.6 0-1.3-.5-1.4m0-87c-2.7 0-1.5 3 .4 3.2a15.8 15.8 0 01-.4-3.2M159.2 47a10.3 10.3 0 00-.4 2.5c.7.5.7 1.6 1.7 1.9.4-2.2-.7-2.9-1.3-4.4m.7-21.2c0 .7-.6 2.6.4 2.8-.5-1 .8-2.3-.4-2.8m-.5 4.5a1.8 1.8 0 00.7 2.5 2.6 2.6 0 00-.7-2.5m-.8 36.7c-.6 1.9 1 2 1.1 3.6 1.4-1-.5-2.8-1-3.6m.7 12c-1.7 1-2 3.5-2.7 5.4h1.7c.5-1.8 2.5-3.8 1-5.5m-1-27.5c0 1-.4 1.4-.4 2.3.9.3.8 1.5 1.7 1.7.1-1.2.2-3.3-1.3-4m-.4 19.2a4.7 4.7 0 001.5 4.5c.7-2-.4-3.4-1.5-4.5m.4-32.9c.2 1.8-1.4 4 .2 4.8-.1-2.2 1.4-3.5-.2-4.8m.5 66.6c0 2 1 1.1 0 0m-1.4-48.9c-.2 1.6 0 3 1.1 3.4a2.1 2.1 0 00-1.1-3.4m1.1 46.3c0 .7-.2 1.9.6 1.9-.2-.6-.2-1.4-.6-2M155 14.5a1.2 1.2 0 00.6-.4c-.7 0-1 .5-1.5.6a11.8 11.8 0 002.4 2.9 4.3 4.3 0 002.5 4c.3-3.3-3.4-4-4-7m1-.6a17.7 17.7 0 002.8 3c-.3-1.1-1.2-3.5-2.9-3m.8 7.6c-.3 2.3.9 3.3 1.9 4.3.7-2.1-1-3.1-2-4.3m.8 53.7v2c2 .6.6-1.7 0-2m-.5-15.8c-.8 1.3.2 2.4 1.1 3 .6-1.4-.4-2.4-1.1-3m.2 44.8a42 42 0 00.7 5.1c.8-1.2 0-4-.7-5.1m-.6-78.6c-.5 2 .8 2.6 1.5 3.8.1-1.8-.8-2.7-1.5-3.8m1.1 19a7.8 7.8 0 00-.3 2.9c.7-.1 1-2.2.3-2.9m-1.5 18.6a3 3 0 001.3 3.3c.5-1.8-.3-2.5-1.3-3.3m1 28.9c-.3-.6 1-1 0-1-.6.7 0 3 .6 3.6a6.5 6.5 0 00-.6-2.7M156 33c-1.1 2.4-.9 4.7 1 6.3-.1-3 1-4.6-1-6.3m.2 47.8c-1.4.7-1.7 2.6-2.3 4.2.6 0 .8-.5 1.5-.4.6-2 1.5-3.7 2-5.9-1.4 0-1.4 1-1.2 2.1m-1.3 10.4c.6 4.5 1 8.5 2.4 12.5-.8-4.4-.7-8.8-2.4-12.5m1.9-41.9c0 .6-1 2 0 2.3-.2-.3.8-2 0-2.3m-.5-19.3a.7.7 0 00.6 1.1c-.1-.4-.1-1-.6-1.1m-.7 37.2a2.6 2.6 0 001.1 2.5 2 2 0 00-1.1-2.5M150 13.5c.2.6 1.2.3 1.7.6a4.5 4.5 0 014.7-2.3v-.6c-2.4-.8-4 2-6.4 2.3m4.5 25.2c-.3 1-.2 2.2-.5 3 1 .8.9 2.9 2 3.6 1-2.9-.2-4.6-1.5-6.6m1.7 14.6c-.5.4-1 1.8-.2 1.9.2-.5.5-1.5.2-1.9m-1.1 50a32.5 32.5 0 001.3 8.2 32.6 32.6 0 00-1.3-8.1m.2-32a4.2 4.2 0 00.6 3.4c0-1.5.7-2.8-.6-3.4m0-14.2c-.3.3-.4 1.8.2 1.9.2-.4.4-1.9-.2-2m-1.5-12.8a4.8 4.8 0 001.5 5.3c.5-2.4-.7-3.8-1.5-5.3m1.5-22.4v-1c-1-.3-.6 1.1 0 1m-.6 78.9c0 .6 0 1.3.4 1.5.3-.3-.1-1.1-.4-1.5m-1.1-78.4c0 1.4.5 2.3 1.5 2.7.2-1.6-1-1.8-1.5-2.7m1 38.5c0 1-.3 1.4 0 2 1 0 .5-1.8 0-2m-1.2-34.7a2 2 0 001.4 2.1 2.3 2.3 0 00-1.4-2m-.2 3c-.2 1.8-.8 4 1 4.5.6-2.2.7-3.5-1-4.6m0 20.5a2.3 2.3 0 001.4 3c.5-1.6-.5-2.3-1.4-3M153 92c.3 2.1.7 5.8 1.7 7.8-.5-2.7-.7-5.7-1.7-7.8m1 17.3c-.6-2.5 0-5-.4-7.2-.5-2.6-1.4-5.3-2-7.8 0-.9.6-2.5-.7-2.7-.4 1.8.3 3.8.6 5.9.6 5 1.5 11.3 3.2 14.6.4-1-.5-1.9-.7-2.8m0-44.4c0 .5-.1 1 .3 1.1 0-.4.3-1.3-.3-1.1m-1.2 8.3c-.1 2.1.4 3.6 1.5 4.4a5.7 5.7 0 00-1.5-4.4m1.3 6.7c0-.3-.4-.2-.7-.2-.2.8-.5 2-1.5 1.5a14.1 14.1 0 00-1.5 4.3 9 9 0 002.4-.5c.1-2.2 1.4-3.3 1.3-5.1m-1.5-26.4c-.2 1.7 0 2.6 1.2 3.2 1-1.4-.3-2.5-1.2-3.2m1.4 17.8c.1-1.1-.5-2 0-2.8-1 .3-1 2.7 0 2.8m-5.7-49.9c2.6-.3 6.9-1.6 4.9-4.7-1 2-3 2.9-5.7 3.2-.1 1 .4 1.1.8 1.5m4.1 12.8c-.2 1.8-.8 4.1.6 5 .4-2 .8-3.8-.6-5m-.3 23.3c-.5 1.2.7 2.4 1.3 3.2.7-1.6-.7-2.4-1.3-3.2m-2.1-50a15.7 15.7 0 00-.6 4.6 12.3 12.3 0 003.8-1.7 2.2 2.2 0 00-3.2-2.8m1.7 53.3a2.8 2.8 0 001.1 2.8 2.9 2.9 0 00-1.1-2.8m0-20.7c-.6 1.6-.4 3.4.7 4.2.3-1.7.3-3.3-.7-4.2m0-16.5a1.8 1.8 0 00.2 1.5c1 0 .3-1.4-.2-1.5m-.4 41c0 1.7-.4 2.8.8 3.4.3-1.4.5-2.9-.8-3.4m-.4-38c0 2-.7 2.8.8 3.9.1-1.4 1-3.5-.8-3.9m-.2 18.3a4.3 4.3 0 001.2 3.8 3.8 3.8 0 00-1.2-3.8m.2 25.4c.3.8-.2 2.4.8 2.6-.1-1.3.5-2.4-.8-2.6m-.8-39a8 8 0 01-.5 3 2.6 2.6 0 001.1 1.4c.3-1.6 1.3-4.6-.6-4.4m0 17.9c-.2 1.7-.1 3 1.2 3.6.4-1.5 0-3-1.2-3.6m-.1-33.8c-1.3 0-2 1.5-2.3 2.9 2 .6 5-2.7 2.3-2.9M148.4 86c1.6-.4 1.3-2.6 1.8-4 .4-1 1.1-1.6 1.2-2.5-2.2 1-2.1 4.2-3 6.5m1.3-32c0 1.3.7 2 1.2 2.8a2.3 2.3 0 00-1.2-2.9m-1.1-30.3a36.5 36.5 0 001.1 4.3c.3-1.4.6-2.3-.2-3.4.2-.6.9-.8 1.2-1.3a2.8 2.8 0 00-2.1.4m.7 13.5a7 7 0 01-.4 1.9c.9 0 .4 1.4 1.4 1.3.6-1.4.2-2.7-1-3.2m0 68.3c.2 2.3.3 4.8 1.2 6.4-.2-1.6-.2-4.4-1.2-6.4m0-48c0 1.4.2 2.3 1.2 2.7a3 3 0 00-1.2-2.7M149 92c.5 2.6.3 6 1.6 7.8-.5-2.5-.4-5.6-1.6-7.8m0-31c0 1.8-.1 2.6 1 3.3a2.7 2.7 0 00-1-3.2m-.3 9.6a8 8 0 001.5 3.5 5.4 5.4 0 00-1.5-3.5m.7 6.3v1.1h.8a1.8 1.8 0 00-.8-1m-.8-36.3c-.7 1.7.7 2.7 1.2 3.8.4-1.5 0-3.3-1.1-3.8m0 25.4v1.5c.8-.1.4 1 .9 1.1.2-.8.4-2.4-1-2.6m-1.3 27c.8 3.7.8 8.1 2.3 11.1-.8-3.7-.8-8.1-2.3-11.2m-.2-78c.7.2.6-.4 1.2-.3-1.4-2.8-.2-6.4 1-8.2-2 1.6-2.4 4.7-2.2 8.5m2.1 14h-.6c.1 1.5-.5 3-.1 4.2 1-.5 1-3 .7-4.2m-1.3 15.6c-.5 2.1.4 3.1 1.3 4.4a4.2 4.2 0 00-1.3-4.4m-2 41.3c.4.3 1.2 0 1.7-.2a17 17 0 011.7-6.2c-2.9.4-2.4 4.1-3.4 6.4m-.6 3c.4 0 .1.7.2 1a3.4 3.4 0 01-2.4.2c-.3-.5.5-1-.2-1a16.1 16.1 0 00-3 .6c.1.7-.4 1 0 1.3 3-.6 6.6-.5 9-1a3.5 3.5 0 01.2-1.3c-1.1 0-3-.5-3.7.2m1.5 12c-.4-3-.4-6-1.5-8.9.3 7 1.8 14.5 3 21.3a.5.5 0 00.5-.4c-.6-3.8-1.6-8.3-2-12m.5-51.8c-.2 1.6-.3 3.2 1.1 4.2.7-1.7-.5-3.1-1-4.2m.5-14.8c-.7.4-1 2.5.2 2.5-.1-.8.2-2-.2-2.5M146.9 54a3.2 3.2 0 001.3 3c0-1.5-.4-2.6-1.3-3m-.2 4c-.3 1.6-.1 2.6 1 3.2a2.6 2.6 0 00-1-3.2m.2-19.7a7.2 7.2 0 00-.4 1.7 10.2 10.2 0 00.7 1c.3-1 .6-2.4-.3-2.7m-.6 24.6c-.2 1.4.2 2.2 1.1 2.5 0-1.1 0-2.3-1.1-2.5m.4 13.9c0 .7-.2 1.6.5 1.7.3-.3 0-1.6-.5-1.7m.3-45.4c.3-.3.2-.8.2-1.3-.8-.2-.8 1.3-.2 1.3m-1 35.5a3.1 3.1 0 001.2 2c-.3-.7-.2-1.9-1.1-2m.1 4.2c.3 1-.1 2.6 1 2.8 0-1.3.2-2.7-1-2.8m-4.1-44.4c-.4 2.8 5 2.5 5 .2-1.8.3-3.2-.2-5-.2m3.8 15.5c-.4 1.1-.6 2.4.6 2.9.1-1 .9-2.8-.6-2.9m0-9.7c-.5.8-.5 2.1.6 2.3.1-1 .4-2-.6-2.3m-3-7.2c.8.3 3.3.6 3.4-.5-1-.4-3-.4-3.4.5m3-3.6c-.6 0-.6.4-.6 1l.8.2c.1-.6-.2-.7-.2-1.1m-1 24c-.2 2-.4 3.7 1.1 4.2.1-1.8.1-3.6-1.1-4.1m0 38.9c.5-1.1 1.5-3 .8-4.2-.8 1.6-2 4.2-1.6 5.9.9 0 .8-.9.8-1.8m-.2-49.3a2.4 2.4 0 001 2.9c.3-1.4 0-2.3-1-2.9m-.2 64.5c-.4-2.5-.2-5.5-1.3-7.6.2 5.2 1.6 11.5 2.3 16.2.6-2.4-.5-6-1-8.6m-.2-49.5c-.6 1.3.6 2.2 1.4 2.7 0-1.4-1-1.8-1.4-2.7m-.5 3.2a3.1 3.1 0 001.5 4.4 4 4 0 00-1.5-4.4m-.6-23.3a3.1 3.1 0 001.5 2 6.5 6.5 0 01.4-1.8c-.3-.3-1.4.3-2-.2m.8 8l-.7 2.7c.5.4.7 1.2 1.3 1.5.4-2.3.4-3-.6-4.2m-1.7 31.5c.2 1.5 2 3.1 2.7 4.7-.1-1.6-1.5-3.5-2.7-4.7m.8-11.2c-.3 1.4 1.2 2.6 1.9 3.6 0-1.9-.6-3-1.9-3.6m1.1 52c0 1.4.1 2.7.8 3.4-.2-1.1 0-2.8-.8-3.4M143 62c-.1 1.8 1 2.3 1.9 3.2-.1-1.6-1.2-2.2-2-3.2m-.3 3.4a3.5 3.5 0 01-.2 1.5 13.6 13.6 0 012.5 3c.4-2.7-1.4-3.2-2.3-4.5m-37.8-4a4.3 4.3 0 001.7 1.9c.4 0 .2-.7.6-.6-.1-.7-1.1-.6-1.1-1.5s.4-1.5 1.5-1.3c.5.2.3 1.2 1 1.3.7-.9.6-2.6 1.9-2.9 1 1 1.1 2.7 2.3 3.4.6-1-1.3-2.8.7-3.4a3.9 3.9 0 01-.2-1.7c1-1 2.5 0 2.7 1.4-.7.4-1.2.1-2 .7 1.6.6 1.7 2.6 3.3 3a1 1 0 01.6-.5c-.2-1-1.2-1.1-1-2.5l.4-.2c1-.2 1 .6 1.7.8A1.9 1.9 0 01120 58c-1 .1-1.3-.4-1.2-1.3 1-.5 2.8-.5 2.9 1 0 .5-.9.4-1.2.7.5.6 0 1.8-.4 2 .3.8 1.1 1.8 1.7 1.6 0-.9-.7-1-.7-1.9.2-.4.3-.8.7-1 .3.3.5.6 1 .6 0-.6.5-.6 1-.7.2.3.7.3.8.7a3.5 3.5 0 01-.2 1.5c.6.3.7 1.1 1.7 1-.2-.7-1-.7-.7-2 .2 0 .3-.2.5-.3 1 .4 1.3-.2 2.3-.2a1.8 1.8 0 01.8.8c-.2.5-.6.7-.6 1.3 1.5 1.1 3.4 1.8 4.2 3.6-.3.3-.2.9-.8.8s-.5-.9-1.3-.8c-.5 1 1.2 1 1.7 1.7.3-.5.3-1.4 1-1.7.5 0 1 0 1.3.4.3 1.5-1 1.5-1.2 2.5.5 0 .4.6 1 .5-.4-1.2 2.2-1.3 2-.2.1.9-.5 1-.7 1.6.6 0 .6.4 1.1.5 0-.5.4-.8 1-.7.4.2.8.4.8 1 .2.6-.3.5-.4 1 .2.5 1 .5 1.2 1.2.1 1.3-1.1 1.2-1.4 2.1.5.2.8.5 1.4.6.3-.3.1-1 .7-1 .5.2 1 .2 1 .8.2.8-.7.6-.6 1.3.9.4 2.1.4 2.3 1.5a10 10 0 012-.3c-.2-1.3-1-2.1-1-3.6-.8-.2-.2 1-1 1a2.5 2.5 0 01-1.7-2.3l.4-.2c.9-.1.9.7 1.5.8a15.9 15.9 0 00-2.3-3.4c0 .3 0 .8-.5.7-1-.6-2.2-1-2.1-2.6.2 0 .2-.2.3-.2.6-.1.8.3 1.2.4-.6-1.8-2.2-2.7-3.2-4-.2 1 .4 1.4-.4 1.7a2.5 2.5 0 01-1.6-2.5 1.3 1.3 0 011-.2 21.6 21.6 0 00-13-7.6 34.5 34.5 0 00-6.1-.4c-.4.1-.4.6-1 .4-3.7-1-9.9 0-13.9.4A25 25 0 0189 51.4c0 .2-.3.2-.6.2.3 1.1-.4 1.4-.5 2 .4.4.3 1.2 1 1.2.4-.8.5-1.4.9-2 .4.1 1 0 1.1.5.2 2.1-2.1 3.2.4 4.4a9.6 9.6 0 011.5-1.7.8.8 0 01-.8-.4c0-.5 0-1 .4-1.1.5.6 2.1.1 2 1.3a3.2 3.2 0 01-.7 1.5c.3.8.6 1.4 1.5 1.6.6-1.3 4-3.5 4.2-.6 1-.3 1 .4 1.5.6.3 0 .3-.3.6-.2-.6-1.8 3-2.5 3.4-.6a2 2 0 01-2 .6c0 .7.2 1.5 1 1.7.2-.6.5-1.3 1.3-1.3 1.4.5.7 2-.4 2.4m38.6 44.5c0 1.5 0 4 1 4-.8-1.1.2-3-1-4m-.7-63.4a2.7 2.7 0 001 3.5c.9-1.5.2-2.7-1-3.4m1 37.1c-1.8 1.3-2 4.1-2.3 6.9a2.9 2.9 0 001.5-.4c-.2-2.8 1.3-3.8 1.3-6.3-.2 0-.5 0-.5-.2m-.4-47c.2 1-.4 1.1-.4 2 .4 0 .3.4.8.3 0-1 .8-2-.4-2.3M122 120.7c-1.2.8-3.4.7-4.6 1.7 9.2-1.2 17.2-3.3 26.2-5-7.7-.7-13.8 3.3-21.6 3.3m20.7-19.2c.2 1.3-.2 2.2.6 3a4.1 4.1 0 00-.6-3m-.8-55.2c-.8 1.6.4 2.6 1.2 3.6.7-1.6-.7-2.6-1.2-3.6m.4-10.4a10.3 10.3 0 00-.8 2c.3.3.2.9.8.8.5-.9 1.1-2.3 0-2.9m-3.2 57a163 163 0 003.4 21.2.5.5 0 00.5-.4c-1.8-6.5-1.5-14.3-4-20.8m2.1-.2c.2 2.1.5 5.8 1.6 7.7-.2-2.5-.2-5.7-1.6-7.7m0-42.9a2.4 2.4 0 01-.5 1.9 9.6 9.6 0 001.7 2.6c1-1.8-.3-3.4-1.2-4.5m-1 4.5c0 1.6 1 2.3 1.7 3 .2-1-.9-2.2-1.7-3m.4-14.8c.2.9-.3 1-.4 1.6.5.5.6 1.3 1.4 1.5a2.2 2.2 0 00-1-3m-1 18c-.3 2.2 1 2.8 2 3.8a3.9 3.9 0 00-2-3.8m-.7 29c.4-.1 1.2.2 1.3-.2-.2-1.9 1-4 1.3-6-2.4 1-2 3.4-2.6 6.2m.5-24.9a2.6 2.6 0 002 3.4 3.4 3.4 0 00-2-3.4m1-27.9c-.2 1-1.1 2.2.2 2.7a3.6 3.6 0 01.5-2c-.3-.2-.1-.8-.7-.7m-.8 9c-1.1 1.3-.2 3 1 3.6a3.8 3.8 0 00-1-3.6m-.4-5.5c-.1.6-.9 1.3-.3 2a1.1 1.1 0 00.3-2m-1 9c.2 1-.3 1.3-.3 2.1a19.4 19.4 0 001.7 2c.6-1.2.5-3.7-1.3-4m.6 31.8c-.4.5-1.3.5-1.4 1.3a4.3 4.3 0 002.5-.9c-.7.2-.5-.5-1.1-.4M137.2 93c.1 5.5 1.3 10.5 2.2 15.6a70.2 70.2 0 00-2.2-15.6m0-42.1c.7.9.7 2.4 1.9 2.8.4-1.3-1-3-2-2.8m-.5 2.5c-1 1.8 1 3.3 2 4.3.7-2.5-1.2-2.8-2-4.3m.6 27.5a26.4 26.4 0 00-1.5 5.8h1.9c.3-2 .9-4 1.3-6-.8-.2-1 .3-1.7.2m.7-40.5c-.4.6-1.1 2.4.2 2.5.2-1 1-2-.2-2.5m-.2 70c.1 1 0 2 .8 2.3a8.8 8.8 0 00-.8-2.3M135.8 57c-1 2 1 3.3 2.1 4.3 1-2-1-3.2-2-4.3m.9-21.1a6.4 6.4 0 001 1.5 7 7 0 01.4-1.3c-.3-.3-1-.6-1.4-.2M135.5 94c-.3 5.5 1.3 10 2.3 15.2a128 128 0 00-2.3-15.2m1.5-17.6a1.7 1.7 0 00-1.3 1.5c.2 0 .2.2.3.4 1 0 1.3-.6 1.7-1.2a1.8 1.8 0 01-.7-.7m.4 13.6c-.6.6-2.6-.3-2.9.6v.4c.7.4 2 0 3 .2a1.6 1.6 0 00-.2-1.2m-1-46.1a2 2 0 00.7 2.7 5.6 5.6 0 00.4-2.3c-.5-.1-.6-.5-1.2-.4m.8 29c-.6 0-.8.6-1.1 1 .3.1.5.5 1.1.3.1-.7.6-.8 0-1.3m-1.1-35.5a8.5 8.5 0 01-.8 1.7c.5.5.8 1.1 1.3 1.5a2 2 0 00-.5-3.2M133.8 93c-.8 1.4-.5 3.9-.2 5.7l1.5 9.3c.4 2 .6 4.3 1.5 5.9 0-.3.3-.3.2-.6-1-6.4-2.4-13.4-3-20.3m1.2-45.9c-.7 1 .5 1.7.7 2.5 1.5-.3.2-2.4-.7-2.5m-.3 13.7c.6.1.7.8 1.1 1.1.2-.8-.6-1.6-1.1-1.1m-.2 10.4c-.2.5-.6.7-.8 1.2.3.2.9.1.8.7a1.9 1.9 0 001.3-1.3c-.6 0-.7-.6-1.3-.6m-.6-21.6c-1 1.4.3 3 1.4 3.4.8-1.6-.6-2.4-1.4-3.4m0 32c-.2 2-.8 3.5-1.1 5.4.9-.2 1 0 1.5-.2.4-2.1.8-3.5 1.4-5.7a5.4 5.4 0 00-1.8.6m.4-40.4c0 .8-.5 1.2-.7 1.9.7 0 .5.9 1.3 1 .1-.8.6-1.2.6-2.1-.6-.2-.5-.8-1.2-.8m-.6 35.3c.7.8 1.3-.4 1.8-1-.8-1-1.4 0-1.8 1m.8 2c-.7.1-1 .6-1.1 1.2.3.2 1.6 0 1.7-.5a1 1 0 01-.6-.6M133 53.3c0 .8-.7 1-.6 1.9a20.6 20.6 0 002.1 2 3.5 3.5 0 00-1.5-4m1.5 60.6c-1.2-6.2-1.5-12.6-3-19.7a124.6 124.6 0 002.9 20.3 1 1 0 01.2-.6m-1.7-69a1.2 1.2 0 01-.4.6 1.9 1.9 0 001.3 1.3 1.2 1.2 0 00-1-1.9m-1 12.7c0 1.5 1.1 2 2.2 2.5a3.2 3.2 0 00-2.3-2.5m1.2 16a1.4 1.4 0 00-1.2 1 1.4 1.4 0 001.2 1c1-.4 1-1.5 0-2m.1-34a7.3 7.3 0 00-.9 1.9 1.6 1.6 0 00.8.8c0-1 1.3-2.4.1-2.7m-.9 30c-.2.4-.6.6-.8 1.1.9 0 .7 1 1.7.8.7-1 .1-1.6-.9-1.9m.1-22.5c-.8 0-.7 1-1.1 1.5.6.3.8 1 1.3 1.4a3.2 3.2 0 01.8-1.6 2.1 2.1 0 01-1-1.3m-.2 31.3c.5 0 1 0 1-.5-.6-.1-1 0-1 .5m-1 3.6c-.2 1.9-1 3.2-1 5.3a3.8 3.8 0 011.6-.2c.2-1.8.8-3.4 1.1-5.3a3.9 3.9 0 00-1.7.2m.4 28.1c-.3.5.1 1.7.6 2.5a2 2 0 00-.6-2.5m-1.2-59.6l-.5 2c.8.3 1 1.1 1.7 1.6.9-1.4.4-3.2-1.2-3.6m.4-10c.8-.2.9-1.1 1.2-1.7a2.1 2.1 0 00-1.2 1.7m0 3c.5.1.4.7 1 .7v-.7c-.6 0-.7-.8-1 0m-.2 28c-1.5.5-1.8 2 0 2.3.3-.5.9-.7 1.2-1.3l-1.2-1m0 7.6c0 .7-1 .4-1.1 1a2.9 2.9 0 002.3.2c-.6-.2-.5-1.1-1.2-1.2m-.7 14.8c-1.4 1-.3 3 0 4.6.2 1.4 0 3 .2 4.3 0 .8.6 1.6.7 2.5.3 1.6 0 3.7 1 4-1-4.3-1-10.2-2-15.3m.8-18.3a1.5 1.5 0 00-1.1 1c.8 0 .8.8 1.7.8.8-.6 0-1.3-.6-1.8m-1.7 16.2a5.1 5.1 0 002.7-.6v-1c-1.6-.2-2 1-2.7 1.6m1-47c0 .8-.6 1-.6 1.7.5.3.6.9 1.1 1.1.5-1.1 1-2.6-.5-2.8m-.7 22.4c0 .4-.7.3-.6 1 .7.4 1 1 2 1.3 1.2-1-.3-2-1.4-2.3m0-12.9c-.6 1.3 1 1.7 1.5 2.5.7-1.3-.8-1.9-1.5-2.5m1.1 60.7c.3 0 .5 0 .4-.4-1-5.4-1.8-11.7-2.6-17-.2-1.2.2-3.5-1-4.2a190 190 0 003.3 21.6m-.8-73.4c0 .5 0 .8.6.8.3-.4-.1-.8-.6-.8m-.6 40.8c.1 1.8-1.6 3.6-.5 5.1 0-.3.4-.2.7-.2 0-2 .9-3.3 1.1-5.1a3 3 0 00-1.3.2m0-34.4c-1.4.3-1.5 2.8 0 3a2.7 2.7 0 000-3m-.4-4.9c.3 1.1-1 1.5-.5 2.3.7-.3 2-2.3.5-2.3M127 63.2a3.6 3.6 0 002.1 2c0-.5.2-.5.2-.9-.9-.1-1.1-1.8-2.3-1m.4 6c-.2.6-1 .6-1 1.3a6.2 6.2 0 011.4 1.3c.7-.1 1-.8 1.5-1.3-.7-.4-1-1-1.9-1.3m.2 4.7l-.4.8c.5.3.8.9 1.7.7.5-.7-.5-1.4-1.3-1.5m1 3.6a2.2 2.2 0 00-1.4 1 .5.5 0 01.4.6c.7-.1 1.4-.2 1.5-1a1 1 0 01-.6-.6m-1.1-21.8c.1-1-.7-1.3-1.1-1.7a2 2 0 00-.2 1.9c1.3-.3 2 1.1 2.9.6-.4-.4-1.2-.4-1.6-.8m.2 54.6c.2 2.4-.3 5.4 1.2 6.5-.5-2-.3-5-1.2-6.5m-.7-58.8a1.9 1.9 0 001.1 2.1c.8-1-.3-1.7-1.1-2m-1 13a.5.5 0 01-.4.6 4.3 4.3 0 002 1.9c0-.5.7-.4.6-1-.8-.5-1.1-1.4-2.2-1.5m1.7-23c-.8.4-1 1.3-1.2 2.3a2.4 2.4 0 001.2-2.3m-.2 4.8c-.6.3-1.4 1.7-.4 2 0-.7.8-1.4.4-2m-1.7 33c-.7.5 0 .5 0 1.3a9.7 9.7 0 011.9.4c-.2-1-1.2-1.3-2-1.7m-1.8 12.1c1.1.4 2.2 0 3.8.2 0-.7-.3-.7 0-1.3-1.5.1-3.7-.4-3.8 1.1m1.5-4.2h1.3c0-1.3.7-3 .8-4.9-2 .5-1.6 3-2.1 5m1.1-11.8a5.5 5.5 0 00-1.7 1.1c.5.3.8.8 1.4 1 1-.5 1.4-1.3.3-2m-1.3-4.3c0 .6-.5.5-.6 1 .8.2 1 .8 1.7 1.1a1.6 1.6 0 00.8-.7c-.8-.4-1-1.2-1.9-1.4m-.6-5a1.8 1.8 0 00-1.3 1.6 3.8 3.8 0 011.7 1.5 3.1 3.1 0 001.5-1.7c-.9-.1-1.3-.8-1.9-1.3M126 100a2.4 2.4 0 00.4 1.3c-.2-.4.3-1.4-.4-1.3m-1-55c-.2.6-.7 1.4 0 1.9.8 0 .8-1 1.1-1.5-.6 0-.4-.6-1.1-.4m.6 4.7a2.1 2.1 0 00-.4 1.6c.7 0 .6-.9 1-1.4a1 1 0 01-.6-.2m-2.3 44.6c.3 5.3 1.1 12.8 2.7 17.5-.7-5-1-12.4-2.7-17.5m1-42c-.5.6-.5 1.7.6 1.8.2-.7.4-1.8-.6-1.9m-1 21.3c-2.6.8 1 3.5 1.7 1.1-.8 0-.8-1-1.7-1.1m-.2-11c0 .3-.4.4-.3 1a11.2 11.2 0 001.3 1.1c.3-.3.6-.5.7-1-.6-.3-1-1-1.7-1.1m1.5 20.3c-.8.7-2.2 4.3-.7 4.9 0-2 1.1-3.3.7-5m.2 35c-1.5-7.6-1.9-16.5-3.6-24.1-1.1.6-.3 2-.2 3 1 7.5 1.7 15 3.5 21.4.2 0 .4 0 .3-.4m-1.3-70a.6.6 0 01-.4.4 1.9 1.9 0 001 1.5c.7-.5.7-2-.6-1.9m0 30.2c-.5 0-.7.4-1 .8.5.5 1.7.8 2-.2-.6 0-.5-.6-1-.6m-.2-23.3a.8.8 0 01-.2.5c.3 0 1 .6 1.1 0-.4 0-.3-.6-1-.5m.4-11a1 1 0 00-1 1c.3.1.4.6.8.7.1-.5.6-.8.5-1.5 0 0-.3 0-.3-.2M122.2 69c-.5 0-.8.4-.7 1a8.3 8.3 0 002 1.5l.4-.7a4.4 4.4 0 01-1.7-1.7m-.2-19.3c0 .5-.3.7-.6 1a2.4 2.4 0 001.6 1.5c.2-.4.2-1 .6-1.4-.7-.2-.7-1.1-1.6-1m-.3 14.5c-.1.6-.8.7-.8 1.3.6.2.6 1 1.3 1 .3-.4 1-.5 1-1.1a12.3 12.3 0 01-1.5-1.1m0-18.6c0 .6-.6.5-.4 1.3.4 0 .2.5.7.4.4-.3.5-.8.8-1.1-.5-.2-.4-.8-1.1-.6m.3 37c-.3 1.2-1.3 3.6-.5 4.7a26 26 0 001.3-4.7zM121 52c-.8 1 0 1.7.9 2 .4 0 .5-.4.6-1-1 0-.6-1-1.5-1m-.6 18.7c-.4.4-1 .6-1.2 1.2 1 .1 1.1 1.3 2.1 1.5.4-.4 1.1-.4 1.2-1.2-1-.2-1.2-1.2-2.1-1.5m.6 4.8c-3.2 2.2 4.2 2.5 0 0m.9 39.8a6.7 6.7 0 00.6 2.1c0-.9 0-1.8-.6-2m-4-24.6c.4 1.5 2 .7 3.6.8 0-.6.5-.5.6-1a20 20 0 00-4.2.2m2.6-10.6c.5.2.6.8 1.2 1 .8-1-.8-2.3-1.2-1m.8 31.3c0 1.3 0 2.7.6 3.4 0-1.3 0-2.7-.6-3.4m-1-63.5c-.6.5-.6 1.6.5 1.7.6-.5.6-1.5-.4-1.7m-.6 18.8c-.1.4-.6.5-.7 1 .8 1 1.6 1.3 2.2 0-.6-.3-.8-.9-1.5-1m.2-21.3c.7.3 1.2-.8.8-1.1-.1.5-1 .3-.8 1.1m-.2 51c0-.5 0-1.3-.7-1.5.6 3.7 1 7.8 1.7 11.4-.3-2.7-.4-6.7-1-9.9M119 62c-.4.3-.9.5-1 1.1.9.2 1.2 1 2 1.4.1-.4.6-.6.7-1.2-.6-.4-1-1.1-1.8-1.3m.6 20.9c-.1 1.3-2 4.3-.2 4.7.8-1.2.7-3.2 1.2-4.7zm.2 31.8c0 1.3.1 2.6.8 3.3-.3-1.1.1-2.8-.8-3.3m-1.1-63.9c.2.3.4.8 1 .8 1-1-.7-2.5-1-.8m-.8 22c-.2.3-.2.8-.6 1a2.4 2.4 0 001.6 1.5c.6-.1.8-.6 1.1-1a10 10 0 00-2-1.5m.5 4.7c0 .2-.2.3-.4.4.2.7.8 1 1.3 1.5 1.1-.7.2-1.8-1-2m-.3 19.4a6.7 6.7 0 00-1.1-3.3c-1.3 3.8 1 8.2 1.7 12.5.4 3 .1 5.8 1 8.6a109.1 109.1 0 00-1.6-17.8m.8-50.5c-.1.5-.6.6-.6 1.1.4.1.3.6 1 .4.2-.7.7-1.4-.4-1.5m-1 5.5c0 1-.8 1.2-.7 2.3.5 0 .5.4 1.1.4l1-1.6c-.8 0-.7-1-1.3-1.1m-.2 17.3c0 .3-.5.2-.4.7.4.2.5.8 1 1 0-.6.8-.5 1-1-.6-.2-.6-1-1.5-.7m-.6-4.8c-.3.3-.7.4-.7 1 .6.5 1 1.2 1.9 1.3 1-.8 0-2-1.2-2.2m1.7 54.2c.1-1.7-.8-3.9-1.1-5.9-1-7-1.3-12.8-3.2-18.2 1.4 8.5 1 18.3 3.8 25 .7-.2.5-.6.5-1m-1-70.4c-.6 0-.5.6-1 .6a1 1 0 001 1c.3-.6.5-1 0-1.5m-.2 34.7c-.4 1.6-1.5 2.6-1.7 4.4.3.2.9.2 1.4.2-.5-1.9 1.2-3.6.3-4.6m-1.1-37.6c.4.2.3.9 1 .8 0-.4.3-.5.3-1a.7.7 0 00-1.3.2m-.4 29.6c-.5 0-.7.4-1 .7.8.3 1 1.2 2 1.4.1-.3.4-.4.5-.8-.6-.3-1.4-.5-1.5-1.3m.3 4.2c0 .2-.2.2-.3.3a1 1 0 001.5.8c0-.7-.8-.7-1.2-1.1m-.7 43.6c.6 0 1.1 0 1.3-.4-.6 0-1.1 0-1.3.4m.4-72.9c-.4.8-1.3 1-1.4 2 .4.4.6 1 1.4 1 .3-1 1.3-2.3 0-3m-.8 16.6c-1.6.6-.3 1.7.8 2.2 1.5-.6 0-1.7-.8-2.2m.4 4.5c0 .7-.7.5-.6 1.2.3.3.4.7 1 .7.2-.4.7-.5.8-1.1-.4-.3-.6-.7-1.2-.8m-.3-24.4c0 .2-.3.3-.4.3 0 .8.7.8 1.1 1.2 0-.5.6-.4.6-1-.6-.1-.6-.7-1.3-.6m-2.1 44.4c.1.5-.3.5-.2 1 1.1-.4 2.1.2 3.2-.2v-.8c-.9.3-1.8-.1-3 0m1.1-29c0 .5-.8.5-.7 1.2.7 0 .6 1 1.5 1 1.6-.6.4-1.8-.8-2.2m-.2 25.2c1.3-.8 1.3-2.8 2-4.1-1.4.6-1.6 2.5-2 4.1m-.3-10.4c-.5 0-.5.6-.8.8.8.5 1.8 2 2.3.6-.7-.3-.8-1-1.5-1.4m-11.4 46.9c3.9.4 9 .8 12.8-1-4.3 1.3-9 0-12.8 1M114 48c-.1 1-1 1.2-1.1 2 .4.2.4.8 1.1.7.1-.8.8-1.2 1.1-1.8-.5-.2-.6-.7-1.1-1m-.4 4.8a2 2 0 001.4 1.8c.5-.8-.8-2-1.3-1.8m0 15.8c-.5.2-1.1.3-1.2 1 .3.6 1 .7 1.2 1.5.7-.2 1-.7 1.3-1.2-.5-.4-1.2-.5-1.3-1.3m-.6 5.3c.5.1.5.8 1.1.8.1-.4.6-.4.6-.8-.4-.5-1.4-.8-1.7 0m1.1-27.7c.2-.4.5-.6.4-1.3-.8 0-1.3 1-.4 1.3M114 106c0 .6 0 1 .4 1.1-.1-.3.3-1.3-.4-1.1m.4 12.5c-.1-1.7-1-3.8-1.2-5.8-.2-3.4-.6-5.6-1-8.4-.3-3.4-.3-7.2-1.9-9.9.7 8.1 1.7 18 3.5 25.8.7-.1.6-1.2.5-1.7M112.4 64c-1.4 1 .2 1.3.6 2.5.7-.1.9-.7 1.1-1.2-.7-.3-.8-1.2-1.7-1.3m0 30.4c.5 3.5.4 7.6 1.7 10.4-.5-3.9-.4-7.3-1.7-10.4m-1-7.4c.4.4.7-.2 1.4 0 0-1.8 1-2.6 1.1-4.2-1.5.7-2 2.4-2.5 4.1m.2-8.3c.2.9 1 1.1 1.7 1.3-.3-.6-1-1.7-1.7-1.3m1.2-32a2.5 2.5 0 00-1.6 1.6c.4 0 .3.6.8.4 0-.8 1.4-1 .8-2m-.4 4.3a.7.7 0 00-.8.8c.3.2.5.5 1 .5.4-.4 0-1-.2-1.3m-1.2 19.7a1 1 0 00-1 1c.8.3 1 1.1 2 1.4 0-.5.6-.4.5-1a2.4 2.4 0 01-1.5-1.4m0 5c.4.2.6.6 1.1.7.7-.8-.7-1.6-1.1-.7M111 66a1.5 1.5 0 00-1.1 1.3c.8 0 .7 1.1 1.7 1 .2-.3.7-.4 1-1A2 2 0 01111 66m0-13.5c0 .4-.5.4-.4 1 .5 0 .6.4 1.2.2a.9.9 0 01.1-.5c-.4-.1-.3-.7-.9-.6m-1.3 34.3c1.2-.9 1.4-2.9 2-4.3-1.4-.2-2 3-2 4.3m0-41.1a1 1 0 001 1 16 16 0 011-1.4c-.8 0-1 .5-2 .4m0 15.9c-1.1.9.7 1.7 1.4 2.3-.1-.7.7-.5.6-1.2a12.8 12.8 0 00-2-1.1m0 18.8a3.1 3.1 0 002 .4 1 1 0 00-2-.4M111 49c-.6-.1-.6.3-1 .4-.2.7.5.6.4 1.2.7 0 .6-.7 1-1a.5.5 0 01-.4-.6m-1.9 23.6a3 3 0 001.8 1.7c0-.3.3-.4.3-.6-.9-.2-1-1-2-1.1m1.5 3.8c-.6 0-.8.5-1 1 .6-.1.4.5 1.1.3.4-.4 0-1-.2-1.3m-4 13.3c.2.6-.2.7-.2 1.1 1.4-.8 2.4.7 4.2.6v-1a11.3 11.3 0 00-4-.8m2.5-38.9c0 .2-.3.3-.4.4 0 .6.2 1 .7 1 .3-.2.6-.3.6-.7-.5 0-.4-.6-1-.6m-.4 17.6c0 .2-.2.3-.4.4a1.9 1.9 0 001.4 1.3c.8-.6-.3-1.4-1-1.7m-.4 24.3a69.7 69.7 0 001.8 13.6c-.6-5.4-.7-9.4-1.7-13.6m-.3-29.2c0 .4-.7.3-.6 1 .7.4.7 1.4 1.7 1.5 1.2-1 0-2.1-1.1-2.5m.4-17.3a2 2 0 00.7 2.5c.8-.7-.2-2-.7-2.5M109 82c-.5 1.3-2 3.4-1.5 4.5 1-.8 2-3.4 1.5-4.5m-1.9-7.8a2.6 2.6 0 001.7 2c0-.4.3-.6.4-.9-.8-.2-.9-2-2.1-1m.8 5c.6 0 1.2-.3 1.3-1a1 1 0 00-1.3 1m0-26.7c0 .4-.6.2-.4.7.8 0 .6.6 1.3.2a1 1 0 00-1-1M106 92.2a119.2 119.2 0 002.8 19.7c-.9-6.8-1-14-2.8-19.7m2.2 26.6c-1-.1-.3 1.3.2 1.3.2-.7-.3-.7-.2-1.3m-1.1-48.6c0 .2-.2.3-.4.4a1.4 1.4 0 001.4 1.1c.3-.6-.4-1.3-1-1.5m-.4-21.6c-.5.7.3 1.5 1 1.7.7-.5 0-1.8-1-1.7m1.3 67.7c-.5-1.5-.6-3.8-1-5.9-1-5.8-2.3-13-2.8-18.4-1.2 2.2 0 4.7.3 7l2.9 18.6c.6-.2.6-1.2.6-1.3m-2.3-50.1a3.3 3.3 0 001.7 1.7c.4-.9-1.2-2.5-1.7-1.7m.3 9.1a2.8 2.8 0 00-1.3 1c.8.4 1 1.3 2 1.5.2-.3.8-.4 1-1-.7-.4-1.4-.7-1.6-1.5m1 6h-.6a17 17 0 00-2 4.3 2 2 0 001.5.3c.3-1.4 1.5-3 1.1-4.5M105.7 50c-.2.5-.7.7-.8 1.3.8.1.7 1.1 1.5 1.1 1.1-.9.1-2-.7-2.4m-.6 22.2a1.7 1.7 0 001.2 1.1 3.8 3.8 0 00.5-.7c-.5-.2-1-1-1.7-.4m1.5 48.5a3.3 3.3 0 01-.5-1.1c.3-3.3-1-6.3-.8-9.1-1.5-4.9-1.5-11.5-2.7-16.9a5.3 5.3 0 00-1-2.5c0 5 1.7 10.7 1.6 15.4 1 3.4 1 7.4 1.7 11 .3 1.3.3 3 1.3 3.6.3 0 .3-.2.4-.4m-2.2-53.3c-.5 1 .7 1.8 1.5 2.3.3-.1.5-.5.5-1-1 0-.9-1.3-2-1.3m-.4-15.1a1 1 0 01-.2.7 12.2 12.2 0 011.5 1.2l.4-.8c-.8-.2-.7-1.2-1.7-1.1m.2 24.8c-.5.1-.9.3-1 .8a1.6 1.6 0 011.3 1.1c.4-.1 1-.1 1.2-.6-.6-.3-1-1-1.6-1.3m-.7-14.4c0 .2-.2.3-.4.4a3.2 3.2 0 001.9 2 1 1 0 00.6-.5c-1-.4-1-1.6-2.1-2m1 10.7c-1.3.2-1.7 1.3-.4 1.7.3-.4.8-.5 1-1.1-.6.1-.4-.4-.6-.6m.2-24.6a.7.7 0 10-.4 1.3c.3-.3.8-.9.4-1.3m-2 20.3c0 .2-.1.2-.3.3a3.5 3.5 0 002.3 2 3.5 3.5 0 00-2-2.3m-.3 16c.2.3.7.3 1 .5.4-1.2 1.3-3 1-4.2a9.5 9.5 0 00-2 3.8m2 3.8c-.8 0-1.2-.4-2-.4-.2.3-.5.5-.4 1.1 1-.2 2.3 1 2.7.2-.4 0-.1-.6-.2-1m-1.7-34.3c.6-.3 1.3.7 1.3-.1-.5-.2-1.3-.9-1.3.1m-.4 10c-.5 0-.6.3-1 .4.5.9 1.4 1.3 1.9 2.1 1-1-.8-1.5-1-2.5m.8 52.6c-.4-2.2-.1-5-.6-7-.3-1.6-1-3.4-1.1-4.7a16.2 16.2 0 01.2-1.8 42.5 42.5 0 00-2-11.7 195.5 195.5 0 002.6 23c.4 2.4-.1 4.6 1.3 6 .5-1.3-.2-2.6-.4-3.7m-.7-66.6a.8.8 0 00.7 1.3c.3-.6.2-1.4-.8-1.3m-1.5 20c-1.1.9.5 1.8 1.2 2.5a1.5 1.5 0 001.1-1c-1-.3-1-1.4-2.3-1.5m1.3 9.1c-.3 1.7-1.6 3.4-1.7 4.8h1c.3-1.7 1.2-2.9 1.5-4.6l-.8-.2m-1.3-20c-2 .4 1 3 2 2.2-.3-1.2-2-.9-2-2.3m.4 16a1 1 0 001 1c1.3-.5-.3-2.2-1-1m-.4 47.8c.5-.2 1.5.2 1.7-.2a1.1 1.1 0 00-1.7.2m.2-70.8c.4 0 .7 1 1.1.4-.4-.1-.8-1.3-1-.4m-.7 13.9c0 .2-.4.2-.5.3a3 3 0 001.7 1.7c.8-.7-.4-1.7-1.2-2m1.2-17.9c-.5 0-.6.3-1 .4a1.1 1.1 0 00.6 1.1c.3-.4.7-.8.3-1.5m-3.1 13.1a4.2 4.2 0 002 2.5c.4-.2.8-.4.8-1-1-.2-1.6-2-2.8-1.5m2.6-7V54c-.8-.3-.6 1 0 .8M99 72.3a3.3 3.3 0 01-.8.6c.3.9 1.2 1 1.6 1.8a1.8 1.8 0 001.1-.5 9 9 0 01-1.9-2m1.5 7c-.9 1.5-2 2.8-2.4 4.8.5-.1.5.3 1 .2.3-1.6 2-3.8 1.5-5M97.1 90c-.8 3.5.5 6.8.8 10.5v3.4c.2 1.6 1 3.4 1.1 5.5.4 3 .9 7 1.4 9.7 0 .6-.5 1.8.5 2-1.2-10.4-1.9-20.4-3.8-31m3.3-13a.8.8 0 00-1 .6c.7-.2.7.4 1.3.4 0-.5-.3-.6-.4-1m-.7-26.2c-.1.6.1.8.7.7a.7.7 0 00-.7-.7m-1 17.4c0 .5-.7.4-.6 1 1.3 2.1 2.8-.2.6-1m-1 54.8c.8 0 1.9.6 2.3.2a2.5 2.5 0 00-2.3-.2m-1-35.3c.5.5 1.4.5 2 .8.3-.2.5-.6 1-.8-.7-.1-2.7-1-2.9 0M98 51.4c0 .6-.9.3-.7 1a11.3 11.3 0 011.5 2.1 10.7 10.7 0 01.6-1.7 9.3 9.3 0 00-1.4-1.3m-.5 7.6c.7-.5 1.5.3 1.7-.6-.6.1-1.8-.3-1.7.6m-.5 4.6c-.2 1 1.2 2 2 2.6.3-1-1-2.1-2-2.6M97 74c-1.1.8.3 1.8 1.3 2 0-.3.7 0 .6-.5-.8-.3-1-1.3-1.9-1.5m-1 8.5c0-.2-.3-.1-.4-.3.2-1.8 1.8-2 2-3.8-1.6 1-3.4 2.7-3.9 4.1 1.2.2 2 .8 3.2.8.1-1.3 1.6-2.2 1.4-3.2-.8.7-1 2.2-2.3 2.4m.8-12.3c-.3.2-.6.3-.6.8.5.2.4 1 1.1 1 .3-.2.7-.2.8-.6-.7-.1-.5-1.1-1.3-1.1M95.4 65c-.2 1.3 1.1 2.3 2.1 2.9 0-.3.3-.3.4-.6-1.2-.4-1-2.1-2.5-2.3m2 47.3a2.5 2.5 0 00.3 1.5c.2-.3.2-1.5-.4-1.5m0-53a1.5 1.5 0 00-1.1 1c.4.2.5.7 1.1.8.5-.6-.6-1 0-1.8m-.5 49.2c.4 1-.2 2.9.7 3.4-.4-1 .2-3-.7-3.4M96.4 51c.4.4.9-.2 1-.8-.6 0-1 .1-1 .8m0 53.5a6 6 0 00.5 3.6 5.2 5.2 0 00-.5-3.6m-1.7-15.4c-.4 4 .7 8.2 1.1 11.8.1.8-.3 3 .8 3v-.4c-.8-4.1-.9-10.3-2-14.4m.3-27.9a1.3 1.3 0 001.3 1.3 1.9 1.9 0 00-1.3-1.3m-.6 5.8c-.6 0-.5.5-1 .6.4 1 1.2 1.4 1.7 2.2a1.4 1.4 0 001.1-1.1c-1-.1-.8-1.5-1.8-1.7m.5 4.7a.7.7 0 00-.7.8c.9 0 .6 1.1 1.5 1.1.2-.3.5-.4.5-.9-.8 0-.6-.9-1.3-1m.2 36.8c-.2-1.7.3-3.7-1-5a80.4 80.4 0 002 12.4c.1-2.7-.7-5.2-1-7.4m-.1-32.8c-.3.6.8.8 1 .4-.4-.1-.4-.6-1-.4m0-24.1c-.4.5.2 1.4.7 1.5 0-.8-.1-1.4-.7-1.5m-4.2 30a7.2 7.2 0 001.7.4c.8-1.6 2.2-2.6 3-4.2a11.4 11.4 0 00-4.7 3.8m3.6 41.6c.4-.2 1.3.3 1.1-.4-.5 0-1.1-.1-1.1.4m-1-60.4c0 .3-.3.4-.4.6 1 2.4 3 0 .4-.6m.2 50c-.5-4-.4-8-1.4-11.6.5-.4.3-.9.2-1.4-.3-3.9-1.4-9.4-2.6-11.6 0 4.9 1.5 10.4 2 15.2.4 3.5.5 7.2.8 10.5.3 2.4.6 5.1 2 7 .6-2.5-.7-5.4-1-8.2m-1.3-24.3c0 5.2 1.4 9.7 2.1 14.8-.3-4.4-.5-10.7-2-14.8m1-15.4c-.7-.1-.7.3-1 .4.3.8.7 1.5 1.8 1.5a.9.9 0 01.2-.5c-.8 0-1-.7-1.1-1.4m-.8-14.2a2.8 2.8 0 001.5 2c0-.3.3-.3.2-.7-1 0-.7-1.3-1.7-1.3m-1.3 25.8c.2.7.4.9.2 1.7a13 13 0 002.4.6c-.1-.5.4-.4.4-.8-1.3-.2-1.8-1.2-3-1.5m.9-16c0 .3-.2.4-.4.5.5.8.7 2 2.1 2 .5-1.1-1-2-1.7-2.4m-.4-17.5c.3.6 1 .9 1.6 1.2a1.4 1.4 0 00-1.6-1.2m.6 13.1a1 1 0 00-1 1c.3.5.8.7 1 1.3 1.6-.3.5-1.5 0-2.2m-4.7 15.8c2.9 1.6 4-1.6 5.7-3-2.5-1.3-4.3 1.7-5.7 3M91 123c.5 0 1.6.7 1.7-.2-.7 0-1.2-.2-1.7.2m.5-62.8c-.5-.1-.4.4-.7.4a4.3 4.3 0 001.3 1.7c0-.2.3-.3.4-.5a2.5 2.5 0 01-1-1.6M90 70.5c-.5 1 .6 1.7 1.2 2.3.1-.4.7-.4.7-.8-.6-.5-.8-1.4-1.9-1.5m.6 4.2c-.1.5 1 .8 1.1.3-.5-.2-.4-.7-1.1-.3m-.2 35a27.7 27.7 0 00-.4-7.5c-.1-.6-.6-1.3-.7-2s.2-1.3.1-2c0-.6-.4-1.2-.5-1.7-.5-3.3.4-6.9-1.5-9a205.6 205.6 0 004.1 31c-.3-3-.2-6.4-1.1-8.7m-.8-43.3c0 .3-.3.3-.3.6.3.4 1 .6 1.1 1.3 1.4-.2.2-1.9-.8-1.9m.2-4.6a3 3 0 01-.5.8c0 .7.6.7.7 1.3 1.5-.3.6-1.6-.2-2m-1.3-4.2c-.4.8.9 1.3 1.3 1.9.2-.3.5-.4.6-.8-.7-.3-1.3-1.4-1.9-1.1m1.3 62.2c.4-2.7-.9-5-1.3-7.8-.5-3.2-.5-6.8-1.1-10.2-.9-4.8-.6-10.2-2.1-14.4-.2 9.5 2.6 19.8 3.6 28.8.2 1.6-.4 4.2 1.5 4.6v-.4a1 1 0 00-.6-.6m-1.7-48a.8.8 0 00-.5 1c1 0 .9 1.1 1.7 1.3-.2-.7.5-.5.4-1.1-.7-.2-.7-1-1.5-1.2m0-7.7c-.4 0-.4.5-.8.5a1.4 1.4 0 001.1 1.2 1 1 0 00-.3-1.7m.1 4c-.3 0-.8 0-.7.5.2.4.7.3.6 1 .4 0 .9 0 .9-.4-.2-.4-.7-.5-.8-1.1m-1.9 11.6c.4-1.6 2.2-1.8 2.7-3.3-1.2.6-4.4 2.3-2.7 3.3M83 81.7c0 .5.1 1-.3 1-.2-.4-1.4.2-1.6-.3-.1-.7.4-1 0-1.3-1.1.1-1.1-.8-2.2-.8a1.7 1.7 0 01-.6 1.7c3.8.6 7.2 3.4 11 2.8v-.5c-2.6-.4-3.9-2.1-6.3-2.7M87.5 59c0 .6-.5.6-.6 1.1.7.4.9 1.3 1.7 1.5.5-1.3-.5-2-1.1-2.6m-.6-4.4c-.5-.1-.4.4-.8.4a2.5 2.5 0 001.6 1.7c1-.8-.7-1.2-.8-2m-1.1 51.7c-.3-1.6-.2-3.3-.4-5-.2-1-.7-2.2-.8-3.3-.3-3.6 0-7.3-.6-10a8.9 8.9 0 00-1.3-2.9c-.4 2 0 5 .4 8.4s.9 7.9 1.5 11.2c1 5.3 1.2 11.6 3 15.9a129.3 129.3 0 00-1.9-14.2m-1.9-28.1c1.6.2 3.2-2.2 3.6-3.2-1.3.9-2.8 1.7-3.6 3.2m2.1-17c-.3.2-.6.4-.8.9.3.5 1 .7 1.2 1.3.5 0 .7-.4 1-.8-.6-.4-.4-1.5-1.4-1.5m.8 8.4c-1.2.2-1.3 1.3-.2 1.7 1-.4.7-1 .2-1.7M84.8 123c1.2-.1 1.8 0 2.5-.2-.4-.2-2.4-.6-2.5.2m1.3-57c-.3.5.2 1.4 1 1.3-.2-.5-.4-1.1-1-1.3m-.7-9.5c-.8.7 0 1.9.5 2.3 1.1-.7.1-1.7-.5-2.3m-1.2 14.7c-.2.5 1 2 1.7 1.5L84.2 71m1-19.3c-1 .4-.7 2 .2 2.3l.2-.8c-.9.1-.5-1-.4-1.5M85 67.4c-.3.6-1.1.7-1.2 1.5 1 1.2 2.7-.7 1.2-1.5m-3 10.4a7.5 7.5 0 003.8-3.4c-1.8.5-3.6 2-3.8 3.4m3.8 42a94.6 94.6 0 01-1.4-10.7c-.1-1.5-.7-3-1-4.6-.6-5.3-1-11-1.8-15.9-.3-1.5-.2-3.5-1.5-4.4 1 9.4 2 19 3.4 28.1.2 1.6 2.3 7.3.7 7.6-2 .4-1.2-4-1.3-4.6-1.6-7.1-2.4-15.3-3.4-23.1-.4-3 0-6.2-1.7-8.7.6 13.3 2.5 24.6 4.7 37 1-.3 2.9.4 3.3-.4zm-1.5-56.6c-.5.7.5 1.5 1 1.9.4-.7-.5-1.4-1-2m-.3-4.5c.2.7-.5.6-.4 1.2.5.1.2 1 1 1a9.9 9.9 0 00.7-1c-.5-.3-.5-1.1-1.3-1.2m-.6-4.3c-.6.7.4 1.1.4 1.9.7 0 .7-.6 1-1-.5-.2-.6-1-1.3-1m-6 68c2.7 0 4.7 1 7.1.4-2.3-.1-5.1-1-7.2-.4M83 67.4c1 0 1.3-2-.2-2.3a1.2 1.2 0 00.2 2.3m-.7-6.5c0 .8.6 1.7 1 1.3 0-.7-.3-1.2-1-1.3m-2.8 15.7c1.7.7 2.8-1.8 3.8-3-2 .4-2.7 1.9-3.8 3M82 56.2c-.2.2-.2.7-.6.7.3.6.5 1.2 1.2 1.3a1.2 1.2 0 00-.6-2m.2 13.4c0 .5.1 1 .7.8 0-.5 0-.9-.7-.8m-1-18c.2.9.3 1.9 1.3 2 .4-.7-.6-1.3.2-2zm-.6 10.8c-.2.5-.7.7-.7 1.4.3.2.4.8 1 1-.2-1 1-.6 1-1.4-.5-.2-.5-1-1.3-1m-.4-9c-.1.5-.6.7-.5 1.4.7 0 .3 1.2 1.1 1.1.4-.2.5-.8.8-1-.5-.5-.8-1-1.4-1.4m0 5a2.7 2.7 0 001 1.4c.6-.7-.2-1.4-1-1.5m.2 8.7a.8.8 0 001 1.4c0-.8-.3-1.3-1-1.4m-3 8.6c.4 0 .5.4 1 .4.8-1.2 2.2-1.6 2.7-3-1.7-.4-2.8 1.5-3.6 2.6m3.4 44.2c-1.1-3.2-1.4-6.8-1.9-9.5a37 37 0 01-.6-6.8c0-5-1.7-10-2-14.6-.2-2.1.2-5-1-6.5-.4 4.4.5 9 1 13.7l1 7.8c.7 4.5.7 9.7 1.6 13.6.2 1 .5 2.9 1.9 2.9v-.6zm-2.2-64.1c0 .2-.2.3-.3.4.3.6.4 1.4 1.3 1.5.5-.8-.5-1.5-1-2m.2 4.3a1 1 0 01-.7 1 2.7 2.7 0 00.5 1.3A1.2 1.2 0 0079 60m-1 9.5c.2.5.8.5.8 1.1a1.4 1.4 0 001.1-1.1c-.8-.6-1.3-1.4-1.9 0m.6-4.8c-.6.6-.3 1.3.2 1.8 1.5 0 .7-1.6-.2-1.8m-.2-13.4c-.6.9 0 1.4.6 2 .6-.5.8-2.1-.6-2m-1 20.7c-1.2.6-1.6 2-3.2 2.2-.2-1.5 1.1-1.5 1.3-2.6-2-.8-2 2-3.8 2l-.2-.3c.1-1.2 1.1-1.4 1.5-2.3-1.9-1-2.7 1-3.6 2a46.2 46.2 0 016.5 2.4 13.7 13.7 0 002.8-3c-.5 0-.6-.5-1.3-.4m0-14.2c-1.4.2-.7 1.5-.2 2.2.7 0 .9-.5 1.2-1a5.3 5.3 0 01-1-1.2m-.2-4.2a1 1 0 00.5 1.9c.7-.8.2-1.5-.5-2m.9 66.2c-2-12.6-2.2-25.1-5.1-37.7-.8 0-.9-.7-1.7-.6.7 11.2 2.8 23.2 4.5 33.4.3 1.8.4 3.6 1.3 5 .3 0 1 .3 1 0m-1.3-57.4c-.2.3 0 1.5.8 1.5.8-.3 0-1.5-.8-1.5m.8 4.4c-.8 0-1 .4-.8 1h1c.1-.6-.3-.6-.2-1m-30.8 4.5c1.2 0 1.1 1.1 1.1 1.7a4.3 4.3 0 012.5.4 1 1 0 01.6-1.1c1 .8 3-.4 3.2 1.1 0 .5-.7.5-1 .8 8 2.2 16.4 5 24 7.2-1.3-.2-.7-1.8-1-2a6.4 6.4 0 01-3.5-1.2c0 .6 0 1.1-.4 1.3-1.2-.1-3.2-.7-2.2-2-1-.1-1.8-.6-2.9-1-.3.4-.4 1-1 1-1.2-.6-2.6 0-3-1.2 0-.8 1.1-.4 1.2-1a79.3 79.3 0 00-17.6-4M64 119.5a37.8 37.8 0 0013 2.2 90.2 90.2 0 00-13-2.2m10.8-68.3a4.2 4.2 0 001.4 1.9c.7-.9 0-2-1.4-2m.8 4.6c-.5.6-.2.8 0 1.5a1 1 0 001-1c-.5 0-.4-.6-1-.5m-.8 4c.5.7.5 1.7 1.4 1.9.5-1-.6-2.3-1.4-1.9m-.3 2.7A4 4 0 0076 66c.8-1.3-.9-2.6-1.5-3.6m.7 5.9a3.7 3.7 0 01-.1 1.5c.5-.1.5.3 1 .2-.4-.8.4-1.7-.8-1.7m-2.7-16.7c.9 1 .8 3 2.3 3.6a4.3 4.3 0 00-2.3-3.6m0 54.3C71.5 98.2 71 90 70 83.3c-.1-1-.2-2.3-1.3-2.7a280 280 0 004.5 36.6c1 .7.3 2.3 1.7 2.3v-.4c-.6-4.3-1.8-8.5-2.4-13.2m1.9-48.2c-1-.1-1.1.7-.8 1.3.9-.1 1-.5.8-1.3m-2.1 60.9c-.4-1.4-.9-3-1.2-4.6l-1.1-5.7c-.2-1 .1-2.3 0-3.4-.5-3.4-1.4-7-1.7-10.8a79 79 0 00-1-9.7c-.3-1.5 0-4-2-4.7C67 91 68.4 105 71 116.3c.2 1 .2 2.6 1.3 2.8v-.5zm-2.1-52.2c-.5.4.3 1.1.6 1.3-.4-.6 0-1.3-.6-1.3m-1.5 44.4C67 100.3 65 90.6 63.9 79.5c-1.2-1.1-3.3-1.4-5-2 1.5 13 2.7 26.5 5 38.8.2.7-.7.5-1 1 .7 0 1.7.5 2.2.1-.4-4.6-.7-11.7-1.7-16.7-1.3-6-1.7-12.5-2.7-18.4-.2-1.2-1.3-2.5 0-3.8 1.2.8 1.3 2.7 1.5 3.8.6 3.5.6 7.3 1.2 10.8.9 5.6 2.2 11.1 2.8 16.7.3 2.9 0 5.5.8 8.2a13 13 0 012.6.6 54.1 54.1 0 00-1-7.8m.3-45.2c.5.1 1-.8.5-1-.1.3-.5.5-.5 1m-.6-7.7c.2-.3.8-.3 1.2-.4-.1-1.4-1.6.2-1.2.4m.8 9.8c.1.5-.4.4-.4.8h.7c0-.4 0-.7-.3-.8m-1.6 4.8a2.9 2.9 0 002-2c-.8.5-1.8.9-2 2m.4-12c-.2.4-.2 1-1 .8-.2-.2-.6-.3-.5-.8.1-1 .9-1.3 1.3-2-.5 0-1 0-1-.6-.2-1.3 2.1-1.8 1-2.7-.1.8-.4 1.4-1.5 1.1-.2-1.1.3-1.5.6-2.2-.6 0-1.4.5-1.6-.2.3-.9.3-1.9 1-2.3-1.8.1-3.1.8-4.7 1.1 0 1.1-.8 1.3-1.3 1.7.2.3.3.6.9.4.4-.4.4-1.1 1.1-1.1a3.2 3.2 0 01.6 2.3 3.6 3.6 0 00-2.6 1.7c.7 0 .9.7 1.5 1-.2-.6.3-.7.7-.8.9.6 1.2 2.7-.5 2.5-.1 2.3-2.4 2.3-3 4 .4-.1 1-1 1.7-.4 0 1-.7 1.4-1 2.1 2.9.5 5.2 1.5 8 2.1-.1-1 .8-.8.7-1.7 0-.7-.7-.7-.7-1.3s.8-.7.7-1.5c-.6 0-.5.6-1.3.3a.9.9 0 00-.2-.5c0-1.2 2-2.1 1.2-2.9m-.4-8c-.6.5.4 1.2.5.4-.2 0-.3-.3-.5-.4m-1.4 16.8c-.2 1-1.3 1.1-1.5 2.1.6-.1.7.2 1.1.2a11.3 11.3 0 002-1.9l-1.6-.4M64.5 73c0 .5 1.4.7 1.7.3a13.5 13.5 0 01-1.7-.3m-2.3-2.1c1.4.4 1.8-.8 2.3-1.7-1-.5-1.8.9-2.3 1.7m-17 41.9c-4.3-2.6-9-4.6-13.5-7a19 19 0 00-5.7-4.4c-2.3-2.7-5.7-5.1-8.7-8-.8-.7-1.2-1.9-2-2.7-.5-.5-1.4-.7-1.8-1.3s-.6-1.2-1-1.7a26.1 26.1 0 01-3.3-4c-.8-1.5-2.4-3-2.8-4.5-.5-1.7.4-3.6 1-5.3 2.3-2.1 6.1-2.7 10.2-3 1.4-.2 3.7 0 3.8-1.2-6.5 0-14.2 2-16.6 6.7 1.4 5.5 5.8 9.1 8.3 14.2 1 .6 1.5 1.7 2.7 2 3.3 5 9 8.5 13.8 12 1.7 1.3 3.3 2.9 5 3.9a111.9 111.9 0 0012 5.6 46.3 46.3 0 006.3 2.3c2.3.6 4.5 1.7 6.7 2.3a12.2 12.2 0 004.2.5c-6.7-1.6-12.4-4.3-18.6-6.4m12.7-33.4c-1-.3.1-2.5-1.4-2.3-.5 4.8.8 10.4 1.4 16 .8 8.2 1.5 16 2.6 23.3.7 0 1.4.9 2 .3a371.5 371.5 0 01-4.6-37.3m1.7-9.5a6.4 6.4 0 011.3.4c.3-.7 1-1 1.1-2a1.8 1.8 0 00-2.4 1.6M60 60c-.2.4-1.2.6-.7 1.1.6.1.4-.6 1.1-.3 0-.5 0-.7-.4-.8m-1.5-4.4c0 .5.3.6.6.8a1.2 1.2 0 00.2-1 1 1 0 00-.8.2m.6 2.6a.7.7 0 00-.6 1.2c.5-.1 1-.8.6-1.2m-1.5 9c-.6.5-1.4.9-1.5 1.9.8-.1 1 .3 1.7.3.2-.8 1.1-1 1.3-1.9-.4-.2-1-.1-1.5-.3m1.3 48.1c-1.1-1.7-.3-3.6-.8-5.8-1-4.7-1-11-1.7-16.5-.3-2.5-1-4.8-1.1-7-.3-4-.2-6.9-1.1-9.7-.8.1-.9-.3-1.6-.2 1 12.8 2.2 25.8 4.2 38.7a11.4 11.4 0 002.1 1zm-1-53.5c-.3.4-.1 1.2.6 1 .3-.6.1-.9-.5-1m-.6-5.3a.7.7 0 00.6 1.2c.4-.5-.2-1-.6-1.2m.2 3.5c-.7.1-1 .5-.8 1 .9.2 1.1-.4.8-1m-.6 3.2a3 3 0 00-1.5 1.9c.9.4 2-1 1.5-2m-.7-3.7c1.8-1.7-2.3-1.4 0 0m-.2 2.3c-.7 0-1 .5-1 1.5.7-.3 1.3-.9 1-1.5M52.9 68c1.7.5 2.7.3 2.9-1.3-1.4-.6-2.4.4-2.9 1.3m1.6-11c0 1.1 1 .7 1-.2-.4-.5-.5.3-1 .2m.2 2.7c-.5.5-.6 1.4.1 1.7a1 1 0 00-.1-1.7m-.6 43c-.2-2-1-4.2-1.2-6.2-.4-4.5-.4-10.2-.7-15-.2-2.6-.4-6.6-2.9-6.3.6 11.3 1 26.3 3.6 36.4.4 1.3.5 2.6 2.1 2.5l-1-11.4m-1-47.8c.2.7.5 1.3 1.2 1.3.4-.5-.3-1.3-1.1-1.3m0 3.4a.8.8 0 00.5 1c.1-.4.4-.5.4-1a.7.7 0 00-1 0m.5 3.2c-1.2.1-1.4 2-1.4 2.7.7-.6 1.7-1.6 1.4-2.7M52 55.8c0 .3-.7.1-.6.7.3.3.7.5.8 1 .4 0 .8-.2 1-.6-.6-.1-.6-1-1.2-1.1m.4 3.6a2.4 2.4 0 00-1.5 1.5 1.6 1.6 0 00.8.8c.1-1 1.3-1.3.7-2.3m-2 8.1c1.2.9 1.8-.6 2.2-1.7-1.2-.5-1.6 1.1-2.3 1.7m.4 42v-2.9c-.2-4.5-2-10-1.9-14.4 0-4.1-.8-8.2-.8-11.8 0-1.7-.5-3.4-.4-4.9 0-.4.6-.6.2-1.1-.7-.1-1-.3-1.5 0 0 3.7.7 7.4 1 11 .5 8.2 1.5 15 2.6 22.3.2 1.7.2 4 1.7 5 .1-1.5-.8-2-1-3.2m-.4-52.2a3.8 3.8 0 01-1 .8c.3.5.4 1.2 1 1.5.4-.6 1-.8 1.2-1.5-.6-.2-.5-.8-1.2-.8m-.4-2.7c.2.9.7 1 1.4.6a.7.7 0 00-1.4-.6m0 7.2c0 .6-.4.8-.5 1.4.2 0 .3.3.5.4.2-.4.9-.4.8-1-.5 0-.3-.8-.8-.8M48.6 67c1 0 .9-1.2 1.5-1.7a4 4 0 00-1.5 1.7M48 56.4a2.9 2.9 0 01.6.7c2-.3 0-2.6-.6-.8m.2 2.7c-.4 0-.1.6-.6.6.3.7.5 1.5 1.3 1.7.7-.7 0-1.9-.7-2.3m.6 51.8c-.3-4.5-1.4-9-2-13.9 0-1.1.2-2.3 0-3.6s-.6-2.3-.7-3.6c-.1-1.4.2-3 0-4.5-.1-1.1-.6-2.2-.8-3.2-.2-2.8.5-5.7-.7-8.2l-2.5-.4a335.5 335.5 0 004.4 37c.8.2 1.6 1.3 2.5.8-.2 0-.3-.2-.2-.4m-2.5-44.2c.9-.2 2-1.2 1.7-2a6.2 6.2 0 00-1.7 2m.8-12.7c-.3 0-.4.3-.6.4.2 1 1.3 1.4 1.5.2-.5 0-.4-.6-1-.6m-.3 3c0 .4-.7.3-.6 1 0 .3.5.3.6.7a.9.9 0 100-1.7m-.6 5.7a5 5 0 001.1.3c1-2.1-1.7-2.5-1-.3m-1.4-7.2c-.1.7.4.9.6 1.3 1.6 0 .6-2-.6-1.3m-1.2 8.5a14.4 14.4 0 00-1 1.6c.8.1 1.3.6 2.3.5a20.4 20.4 0 001.4-1.7 11.2 11.2 0 00-2.7-.4m1.7 7.3c.4 0 1.5-.2.6-.2-1.2-.1-2.4-1-3.3-.8.5 0 .1.7.2 1-.6.5-1.7-.2-2 .2a22 22 0 003.7.7c-.1-.7.5-.7.8-1m-.2-19c.2.6-.3.6-.2 1 .3.3 1.3.4 1.2-.3-.6 0-.5-.5-1-.6m-.1 6.2c-1 .4 0 1.4.2 2 .5 0 .7-.5 1-.8-.6-.2-.4-1.1-1.2-1.2m-.1 50.9c-1.4-6.3-1.5-14.1-2.5-21.5-.1-.9-.7-1.7-.8-2.6-.3-3.2-.2-5.8-.3-8.4-.1-1.4 0-3.6-1.7-4 0 3.6 1 7.5 1.5 11.6.9 8 .7 16.8 2.8 23.5.4.9-.3 1.8 1 2v-.7zm-1.3-53c-.6.5-.2 1.2 0 1.8.6 0 .7-.5 1-.8-.5-.1-.4-.9-1-1m-.3-2.6a1 1 0 001 1c.5-.6-.6-1.4-1-1m.3 6c-.6.6-1.4.9-1.3 2.1a2.5 2.5 0 002.1 0c.1-1-.7-1.1-.8-2m-1.1-5.3c-.6-.1-.5.5-1 .5.2.5.3 1.1 1 1.2a1.7 1.7 0 00.8-.8c-.4-.2-.8-.4-.8-1m0 3.5A1.8 1.8 0 0041 59c.4.2.3.8 1 .8a1.1 1.1 0 00.5-2m-2.4 7c.7 0 .9.3 1.5.2 0-.8.6-1 .7-1.7-1.3 0-1.7.9-2.2 1.5m-2.7 7.8c.8 11.5 1.4 22 3.6 31.5.3 1.5 0 3.4 1.1 4.4-2.2-12.3-1.7-25.2-4.7-35.9M36 69.4c.5 0 .3.8.3 1.3a17 17 0 002.7.2c0-.5 0-1 .4-1.1.6-.1 1.7.2 2-.2a29.7 29.7 0 00-5.4-.2M40 54a.8.8 0 001.3-.7c-.5-.4-1.2.1-1.3.7m.1 2c-.4.1-.5.6-1 .8 0 .6.7.7.8 1.3 1.3-.3 1.8-1.8.2-2.1m0 3.8c-.6.3-1.5.8-1.1 1.5a1.4 1.4 0 001.9-.5l-.8-1m-3 2.8a4.2 4.2 0 00-1.3 1.9c1.9.4 3.3 0 3.8-1.5-1 .4-1.7-.2-2.5-.4m2.5 44.2a1.4 1.4 0 00-.4-.6c-.3-6-1.8-12.7-2.3-19.3-.3-5.3.4-10.8-1.7-14.5-.8 1.1.1 2 .4 3.1.7 2.9.6 7.2.6 10-.1 6.8 2 14 2.8 20.1.3.7-1.2 1.1-.2 1.3l.8.2zM38 54.5c0 .3-.5.2-.4.7.4.2.3.8 1 .8.4-.3 1-.3 1-1-.5-.3-.7-.7-1.6-.6m0 3.2a1 1 0 01-.5.6c0 .6.6.6.5 1.3.6-.2 1.1-.4 1.4-1-.6-.1-.6-.9-1.4-1m-1.5-1.8c-.9.7-.6 1 0 1.9a1.4 1.4 0 001.2-1.2c-.6 0-.6-.6-1.2-.7m-.4-2.5c.2.5.3.9.8 1s.4-.6.6-.8c-.7.1-.8-.3-1.4-.2m.4 6c-.2.5-.6.7-.5 1.4a3.1 3.1 0 001.5.6c.1-1.1-.5-1.4-1-2m-.3 40.8l-.3-5.9c-.2-2-1.2-4.3-1.2-5.9 0-.5.4-1.1.4-1.7 0-1-.5-2.1-.6-3.2-.3-3.6 0-7.7-1.5-11 .7 8.7 2 21.8 2.9 30.6 0 1-.3 2.6 1.1 3 .4-2.2-.6-3.9-.8-6m-2-41.7c.4.2.4 1 .9 1.2.1-.5.8-.5.8-1.2-.7-.6-1.4-1.4-1.7 0m0-3.8c0 .7.6.8.7 1.4.6 0 .8-.4.8-1-.7 0-.8-.8-1.5-.3m-.8 7.7c-.5.8-1.2 1.2-1.5 2.1a2.7 2.7 0 003.6-1.9 5.6 5.6 0 00-2.1-.2m0-3.2c-.7 0-1 .6-1 1.3.4.3 1.9.5 2-.2a2 2 0 01-1-1m-.6-3.7c-.8.6-.1 1.8.7 1.9 0-.5.6-.4.6-1-.7 0-.5-1-1.3-1m-3 13.9c.8-.1 1 .6 1 1.3 1.5 0 2.8.2 3.2-1.3-1.9.2-2.9-.4-4.2 0M33.4 95c-.2.3-.2 1.5.4 1.5-.1-.5 0-1.2-.4-1.5m-.2-42.1a1.2 1.2 0 00-.2 1c.7.2.8-1 .2-1m-1.9 4c-.1.4-.5.5-.5 1.1.3.4.5.9 1.1 1a1.2 1.2 0 00-.6-2.1m0 17c.1 2.8.5 5.1.8 7.6.8-1.6-.3-5.4-.8-7.6m.4 13.9c-.3-3.6-1.1-7.6-1.7-11.4-.2-1.5 0-3.3-1.1-4.5 1 9.5 1.4 18.9 2.4 27.7a6.3 6.3 0 001.2 3.4c-1-5-.4-10.2-.8-15.2m-.8-33.6c0 .7.3 1 1 1l.2-.6c-.4-.1-.8-.8-1.2-.4m-1.7 10.1h1.4c.2-1 1-1.5 1.3-2.5a4.1 4.1 0 00-2.7 2.5m1-5.5c-.7.2-1 .8-1.2 1.3a7 7 0 012 .2c.1-1-.9-.7-.8-1.5m-.8-3.8a.5.5 0 01-.6.4c.1.8.5 1.3 1.2 1.5a10.1 10.1 0 00.8-1c-.6-.2-.7-.9-1.4-1m-1.1 27.6c-.5-3.8 0-7.3-1.5-10.4-.2 7.7 1.9 14.7 2.2 21.4.1 2.2-.3 4.5 1 6.7-.7-6.9-1-12.1-1.8-17.7m-1-21c.6 1.2-.3 1.7-.7 2.6.6-.1.7.2 1.1.2a13.7 13.7 0 011.7-2.7 5.1 5.1 0 01-2-.1m-3.6 7.7c.3.2.2.8.3 1.2 1.3.1 2-.3 2.9 0 0-.5-.1-1.1.4-1.2.9-.3 1.4.6 2-.1-1.7-.1-4.2-.6-5.6.2m3.8-12.8c-1.1.9-.2 2.2 1 2.3 1-1-.2-2-1-2.3m0-1.7c.5.1.8-.1.7-.7-.4 0-.9 0-.7.7m-.2 35.9c-.2-1-.9-2-1-3s.3-2 .2-3c-.2-2.2-.8-4.5-1-6.7s.5-4.3-.9-5.8C25 80.5 26 92 27.8 99.8c-.5-3-.2-6-.5-9M26 58.5c0 .6-.6.7-.6 1.4.5 0 1.7.4 2.1 0-.6-.4-.6-1.3-1.5-1.4m.2-1.9c-.1-.6.5-.5.6-1-1-1-2.3.8-.6 1m-1.3 4.8c-.5 1.1-1.7 1.6-2.1 2.8 1-.6 1 .1 2.2 0 .3-1.2 1.4-1.7 1.8-2.8a4 4 0 01-2 0m.4 29.8c-.1-1.1-.6-2.1-.7-3-.6-5.8-.3-11.3-2-16-1.2 3.4 0 8 .3 12 .3 4.3.6 8.8 1.3 12.7.6.2 1.7 1.7 1.9 1-.6-2-.4-4.4-.8-6.6M24.1 55a1.3 1.3 0 001.3-1.1c-.7 0-1.3.2-1.3 1.1m-.6 2.5c.6.2.5 1.1 1.4 1.1-.1-.6.5-.5.5-1-.4-.5-1.5-1.3-1.9-.2m-1 1a7.8 7.8 0 00-.7 1.3c1.7 1.4 2.8-.9.7-1.3m0-2.8a.7.7 0 000 1c1.1.1.8-1 0-1m-.3 6.2c-1 .6-1.4 1.7-2.1 2.5.5-.1.6.2 1.1.2 0-1 1.6-1.5 1-2.7m-.8 24.9c-.3-4.3 0-9-1.3-13.5 1.2 6.5-.2 14.7 1.7 20.1-.3 1-.5 1.5.5 2 .3-3.3-.7-5.8-.9-8.6m-.4-30c-.2.4-.7.5-1 1 .5.3.5 1 1.2 1-.1-.9.8-.6.8-1.4l-1-.5m-2 1.5a3.7 3.7 0 01-2 1.7c0-.3-.3-.2-.3-.4 1-1.5 2.7-2.3 3.6-4-3 1-4.9 3.3-6.8 5.5 1.8-.5 5.5-.7 7.2-1.3-.7-.3-1-1-1.5-1.5m-.4 32c-.4-.8-.3-3.5-.4-5.3l-.4-7.4c-.7 3 .6 8.1 0 11.6-2-4.1-.3-10.8-2-15.2.2 5.8.5 10.7 1 15.6 1.6.8 2.1 2.7 3.5 3.8.6-1.7-1.2-2-1.6-3m.5-28.5c0 1.5-1.4 1.7-1.9 2.8h1.3c0-1.5 1.3-1.6 1.5-2.8zm-.4 13a98.2 98.2 0 00.8 11.4c0-4 .2-8.3-.8-11.4m-3.8-9.8c.7.1.7-.3 1.3-.2 0-1.4 1-1.8 1.4-2.9-1.7.3-1.7 2.2-2.7 3m-2.3.6a2.3 2.3 0 001.5-2c-.5.6-1.4.9-1.5 2M14.6 86c-.8-3.9-.4-8.6-1.7-12.3a90 90 0 001.4 12.7c.2 0 .4 0 .3-.4m-3.2-11.5c-.5 2.6.5 5.6.6 8.7.5 0 .2.9 1 .8-.7-3-.6-6.9-1.6-9.5m-1.3-8h1.1c0-1 1-2.3 1.5-3.3-1.2.7-1.9 2-2.6 3.3m-.4 8.3c.1 2.3-.2 4.1 1 5.5-.4-1.8-.3-4-1-5.5m-.8-9.3c-1 .5-2.3 1.7-2 2.9a3.2 3.2 0 011.8-1c-.2-1.7.8-2 1.2-3-1-.3-.6.7-1 1.1M3 71c1.1-1.6 2.7-2.7 3.4-4.6-1.5 1-3.2 2.9-3.4 4.6"/></svg>
